<svg xmlns="http://www.w3.org/2000/svg" width="15" height="10" viewBox="0 0 15 10"><defs><style>.a{fill:#2c6ace;}</style></defs><g><path class="a" d="M14.836,4.714V4.638l-.046-.07a1.032,1.032,0,0,0-.132-.133h0L10.063.188A.751.751,0,0,0,9.029.214a.686.686,0,0,0,.026,1l3.292,3H.695a.74.74,0,0,0-.69.33.681.681,0,0,0,0,.742.74.74,0,0,0,.69.33H12.472L9.036,8.784a.691.691,0,0,0,0,1,.765.765,0,0,0,.527.216.739.739,0,0,0,.507-.2l4.608-4.209a.67.67,0,0,0,.211-.583.324.324,0,0,0,0-.076h0a1,1,0,0,0-.053-.216Z"/></g></svg>