<svg xmlns="http://www.w3.org/2000/svg" viewBox="0 0 18 16.66"><defs><style>.cls-1{fill:#474748;}.cls-2{fill:#fff;}</style></defs><title>Urgent Care_1</title><g id="Layer_2" data-name="Layer 2"><g id="Layer_1-2" data-name="Layer 1"><path class="cls-1" d="M15.29,3.36H13.85V2.44A2.43,2.43,0,0,0,11.42,0H6.58A2.43,2.43,0,0,0,4.15,2.44v.92H2.71A2.71,2.71,0,0,0,0,6.07v7.87a2.72,2.72,0,0,0,2.71,2.72H15.29A2.72,2.72,0,0,0,18,13.94V6.07A2.71,2.71,0,0,0,15.29,3.36ZM4.87,2.44A1.72,1.72,0,0,1,6.58.72h4.84a1.72,1.72,0,0,1,1.71,1.72v.92H4.87Zm12.41,11.5a2,2,0,0,1-2,2H2.71a2,2,0,0,1-2-2V6.07a2,2,0,0,1,2-2H4.42l.09,0,.09,0h8.8l.09,0,.09,0h1.71a2,2,0,0,1,2,2Z"/><path class="cls-1" d="M17.56,14.13a2,2,0,0,1-2,2H2.62a2,2,0,0,1-2-2V6.06a2,2,0,0,1,2-2H4.37l.1,0,.09,0h9l.1,0,.09,0h1.75a2,2,0,0,1,2,2Z"/><path class="cls-2" d="M10.49,14.74H7.68a.32.32,0,0,1-.32-.32V11.93H4.87a.31.31,0,0,1-.31-.32V8.81a.31.31,0,0,1,.31-.32H7.36V6a.32.32,0,0,1,.32-.32h2.81a.32.32,0,0,1,.32.32V8.49H13.3a.31.31,0,0,1,.31.32v2.8a.31.31,0,0,1-.31.32H10.81v2.49A.32.32,0,0,1,10.49,14.74ZM8,14.1h2.17V11.61a.32.32,0,0,1,.32-.32H13V9.12H10.49a.31.31,0,0,1-.32-.31V6.32H8V8.81a.31.31,0,0,1-.32.31H5.19V11.3H7.68a.31.31,0,0,1,.32.31Z"/><path class="cls-2" d="M8,14.31H10.2V11.65a.33.33,0,0,1,.32-.34h2.55V9H10.52a.33.33,0,0,1-.32-.34V6H8V8.64A.34.34,0,0,1,7.65,9H5.11v2.33H7.65a.34.34,0,0,1,.33.34Z"/></g></g></svg>
