<?xml version="1.0" encoding="utf-8"?>
<!-- Generator: Adobe Illustrator 23.0.1, SVG Export Plug-In . SVG Version: 6.00 Build 0)  -->
<svg version="1.1" id="Layer_1" xmlns="http://www.w3.org/2000/svg" xmlns:xlink="http://www.w3.org/1999/xlink" x="0px" y="0px"
	 viewBox="0 0 19.5 20" style="enable-background:new 0 0 19.5 20;" xml:space="preserve">
<style type="text/css">
	.st0{fill:none;stroke:#333D47;stroke-width:1.5;stroke-miterlimit:10;}
	.st1{fill:#333D47;}
</style>
<title>Asset 3</title>
<ellipse class="st0" cx="9.8" cy="10" rx="7.8" ry="8"/>
<path class="st1" d="M9.6,5.7c-0.2,0-0.4,0.2-0.4,0.4v3.5c-0.6,0.3-0.8,0.9-0.5,1.5c0.2,0.4,0.5,0.6,0.9,0.6c0.4,0,0.9-0.3,1-0.7h2
	c0.2,0,0.4-0.2,0.4-0.4c0-0.2-0.2-0.4-0.4-0.4h-2C10.6,10,10.3,9.7,10,9.6V6.2C10,5.9,9.8,5.7,9.6,5.7z"/>
</svg>
