<?xml version="1.0" encoding="utf-8"?>
<!-- Generator: Adobe Illustrator 19.1.0, SVG Export Plug-In . SVG Version: 6.00 Build 0)  -->
<svg version="1.1" id="Layer_1" xmlns="http://www.w3.org/2000/svg" xmlns:xlink="http://www.w3.org/1999/xlink" x="0px" y="0px"
	 width="114.5px" height="130px" viewBox="0 0 114.5 130" style="enable-background:new 0 0 114.5 130;" xml:space="preserve">
<style type="text/css">
	.st0{fill:#A7A9AC;}
	.st1{fill:#9EA256;stroke:#FFFFFF;stroke-width:2;stroke-miterlimit:10;}
	.st2{fill:#898F4A;stroke:#FFFFFF;stroke-width:2;stroke-miterlimit:10;}
	.st3{fill:#FFFFFF;}
</style>
<g>
	<g>
		<g>
			<g>
				<ellipse class="st0" cx="60.6" cy="35.8" rx="26.4" ry="30"/>
				<path class="st0" d="M106.1,119.6c0-24.3-13-44.9-31.1-52.2L61.2,93l-14.1-26c-18.5,7-31.9,27.8-31.9,52.5c0,0.2,0,0.4,0,0.7h0
					c0.1,3.5,20.4,6.4,45.5,6.4c25.1,0,45.5-2.9,45.5-6.4c0,0,0,0,0-0.1C106.1,120,106.1,119.8,106.1,119.6z"/>
			</g>
		</g>
	</g>
	<g>
		<g>
			<ellipse class="st1" cx="58.2" cy="33.7" rx="26.2" ry="30"/>
			<path class="st2" d="M103.3,117.5c0-24.3-12.9-44.9-30.8-52.2L58.7,90.9l-14-26C26.4,72,13,92.8,13,117.5c0,0.2,0,0.4,0,0.7h0
				c0.1,3.5,20.3,6.4,45.1,6.4c24.9,0,45.1-2.9,45.1-6.4c0,0,0,0,0-0.1C103.3,117.8,103.3,117.7,103.3,117.5z"/>
		</g>
		<circle class="st3" cx="43.5" cy="97.4" r="6.2"/>
		<path class="st3" d="M42.6,95.2c-7.2-9.6-6.7-22.3,0.8-29.9l-0.3-0.4l-3.5,1.4c-5.9,8.2-5.4,20-0.3,28.3c3.1,5,2,3.7,7.3,4.8
			C42.6,97.8,45.4,99,42.6,95.2z"/>
		<circle class="st1" cx="43.5" cy="97.4" r="4.8"/>
		<path class="st3" d="M82.1,77c-0.5-3.8-1.8-7.5-4-10.7l-3.5-1.4l-0.3,0.4c3.1,3.2,5,7.3,5.6,11.7H82.1z"/>
		<g>
			<path class="st3" d="M87.2,75.5H75.3c-1.4,0-2.8,1.6-3.1,3.6l-2.4,18.8l0,0c0.1,0.7,0.4,1.3,1.1,1.5l2.8,1
				c1.1,0.4,2.3-0.2,2.8-1.3c0.4-1.1-0.1-2.3-1.1-2.7l-1.9-0.7l1.2-13c0.2-2,1.2-3.6,2.2-3.6h8.6c1,0,2,1.6,2.2,3.6l1.1,13l-1.9,0.7
				c-1,0.4-1.5,1.6-1.1,2.7c0.4,1.1,1.7,1.7,2.8,1.3l2.8-1c0.7-0.2,1-0.8,1.1-1.5l0,0l-2.3-18.8C89.9,77.1,88.6,75.5,87.2,75.5z"/>
		</g>
	</g>
</g>
</svg>
