<?xml version="1.0" encoding="utf-8"?>
<!-- Generator: Adobe Illustrator 19.1.0, SVG Export Plug-In . SVG Version: 6.00 Build 0)  -->
<svg version="1.1" id="Layer_1" xmlns="http://www.w3.org/2000/svg" xmlns:xlink="http://www.w3.org/1999/xlink" x="0px" y="0px"
	 width="96px" height="96px" viewBox="-257 349 96 96" style="enable-background:new -257 349 96 96;" xml:space="preserve">
<style type="text/css">
	.st0{fill:#F2F2F2;}
	.st1{fill:#FBB040;}
	.st2{fill:#FEE1C5;}
	.st3{fill:#DDAB72;}
	.st4{fill:#FFFFFF;}
	.st5{fill:#B77E32;}
	.st6{fill:#FECC89;}
	.st7{opacity:0.23;enable-background:new    ;}
	.st8{fill:#E6E7E8;}
</style>
<g id="Layer_3">
	<circle class="st0" cx="-209" cy="397" r="47.2"/>
</g>
<g id="Layer_2">
	<g>
		<path class="st1" d="M-202.6,368.2l-30.6,48.4c-1.7,2.6-0.9,6.1,1.8,7.8l10,6.3c2.6,1.7,6.1,0.9,7.8-1.8l31.4-49.7
			c1.7-2.6,0.9-6.1-1.8-7.8l-8.7-5.4L-202.6,368.2z"/>
		<g>
			<path class="st2" d="M-199,397.9l-4.8,7.6c-1.1,1.8-3.5,2.3-5.3,1.2l-6-3.8c-1.8-1.1-2.3-3.5-1.2-5.3l4.8-7.6
				c1.1-1.8,3.5-2.3,5.3-1.2l6,3.8C-198.4,393.7-197.9,396.1-199,397.9z"/>
			<path class="st3" d="M-199.6,398.9l-5,7.8c-1.1,1.8-3.5,2.3-5.3,1.2l-6-3.8c-1.8-1.1-2.3-3.5-1.2-5.3l5-7.8
				c1.1-1.8,3.5-2.3,5.3-1.2l6,3.8C-199,394.7-198.5,397.1-199.6,398.9z"/>
			<circle class="st4" cx="-222.3" cy="412.3" r="1.4"/>
			<circle class="st4" cx="-218.8" cy="414.6" r="1.4"/>
			<circle class="st4" cx="-215.2" cy="416.8" r="1.4"/>
			<circle class="st4" cx="-227.1" cy="416" r="1.4"/>
			<circle class="st4" cx="-223.5" cy="418.2" r="1.4"/>
			<circle class="st4" cx="-220" cy="420.4" r="1.4"/>
			<circle class="st4" cx="-216.5" cy="422.7" r="1.4"/>
			<path class="st5" d="M-228,415.4c0.4-0.6,1.2-0.8,1.8-0.5l-0.1-0.1c-0.6-0.4-1.5-0.2-1.9,0.4c-0.4,0.6-0.2,1.5,0.4,1.9
				c0,0,0.1,0,0.1,0.1C-228.2,416.8-228.4,416-228,415.4z"/>
			<path class="st5" d="M-224.5,417.6c0.4-0.6,1.2-0.8,1.8-0.5l-0.1-0.1c-0.6-0.4-1.5-0.2-1.9,0.4c-0.4,0.6-0.2,1.5,0.4,1.9
				c0,0,0.1,0,0.1,0.1C-224.7,419-224.9,418.2-224.5,417.6z"/>
			<path class="st5" d="M-221,419.8c0.4-0.6,1.2-0.8,1.8-0.5l-0.1-0.1c-0.6-0.4-1.5-0.2-1.9,0.4c-0.4,0.6-0.2,1.5,0.4,1.9
				c0,0,0.1,0,0.1,0.1C-221.2,421.2-221.3,420.4-221,419.8z"/>
			<path class="st5" d="M-217.5,422c0.4-0.6,1.2-0.8,1.8-0.5l-0.1-0.1c-0.6-0.4-1.5-0.2-1.9,0.4c-0.4,0.6-0.2,1.5,0.4,1.9
				c0,0,0.1,0,0.1,0.1C-217.7,423.4-217.9,422.6-217.5,422z"/>
			<circle class="st4" cx="-221" cy="406.4" r="1.4"/>
			<circle class="st4" cx="-217.4" cy="408.6" r="1.4"/>
			<circle class="st4" cx="-213.9" cy="410.8" r="1.4"/>
			<circle class="st4" cx="-210.4" cy="413.1" r="1.4"/>
			<path class="st5" d="M-221.9,405.8c0.4-0.6,1.2-0.8,1.8-0.5l-0.1-0.1c-0.6-0.4-1.5-0.2-1.9,0.4c-0.4,0.6-0.2,1.5,0.4,1.9
				c0,0,0.1,0,0.1,0.1C-222.2,407.2-222.3,406.4-221.9,405.8z"/>
			<path class="st5" d="M-218.4,408c0.4-0.6,1.2-0.8,1.8-0.5l-0.1-0.1c-0.6-0.4-1.5-0.2-1.9,0.4c-0.4,0.6-0.2,1.5,0.4,1.9
				c0,0,0.1,0,0.1,0.1C-218.6,409.4-218.8,408.6-218.4,408z"/>
			<path class="st5" d="M-214.9,410.2c0.4-0.6,1.2-0.8,1.8-0.5l-0.1-0.1c-0.6-0.4-1.5-0.2-1.9,0.4c-0.4,0.6-0.2,1.5,0.4,1.9
				c0,0,0.1,0,0.1,0.1C-215.1,411.6-215.2,410.8-214.9,410.2z"/>
			<path class="st5" d="M-211.4,412.4c0.4-0.6,1.2-0.8,1.8-0.5l-0.1-0.1c-0.6-0.4-1.5-0.2-1.9,0.4c-0.4,0.6-0.2,1.5,0.4,1.9
				c0,0,0.1,0,0.1,0.1C-211.6,413.8-211.8,413-211.4,412.4z"/>
			<path class="st5" d="M-216.2,416.2c0.4-0.6,1.2-0.8,1.8-0.5l-0.1-0.1c-0.6-0.4-1.5-0.2-1.9,0.4c-0.4,0.6-0.2,1.5,0.4,1.9
				c0,0,0.1,0,0.1,0.1C-216.4,417.6-216.5,416.8-216.2,416.2z"/>
			<path class="st5" d="M-219.7,414c0.4-0.6,1.2-0.8,1.8-0.5l-0.1-0.1c-0.6-0.4-1.5-0.2-1.9,0.4c-0.4,0.6-0.2,1.5,0.4,1.9
				c0,0,0.1,0,0.1,0.1C-219.9,415.4-220.1,414.6-219.7,414z"/>
			<path class="st5" d="M-223.3,411.7c0.4-0.6,1.2-0.8,1.8-0.5l-0.1-0.1c-0.6-0.4-1.5-0.2-1.9,0.4s-0.2,1.5,0.4,1.9
				c0,0,0.1,0,0.1,0.1C-223.5,413.1-223.7,412.3-223.3,411.7z"/>
			<circle class="st4" cx="-201.5" cy="379.6" r="1.4"/>
			<circle class="st4" cx="-198" cy="381.8" r="1.4"/>
			<circle class="st4" cx="-194.4" cy="384" r="1.4"/>
			<circle class="st4" cx="-206.3" cy="383.2" r="1.4"/>
			<circle class="st4" cx="-202.7" cy="385.5" r="1.4"/>
			<circle class="st4" cx="-199.2" cy="387.7" r="1.4"/>
			<circle class="st4" cx="-195.7" cy="389.9" r="1.4"/>
			<path class="st5" d="M-207.2,382.6c0.4-0.6,1.2-0.8,1.8-0.5l-0.1-0.1c-0.6-0.4-1.5-0.2-1.9,0.4c-0.4,0.6-0.2,1.5,0.4,1.9
				c0,0,0.1,0,0.1,0.1C-207.4,384-207.6,383.2-207.2,382.6z"/>
			<path class="st5" d="M-203.7,384.9c0.4-0.6,1.2-0.8,1.8-0.5l-0.1-0.1c-0.6-0.4-1.5-0.2-1.9,0.4c-0.4,0.6-0.2,1.5,0.4,1.9
				c0,0,0.1,0,0.1,0.1C-203.9,386.3-204.1,385.5-203.7,384.9z"/>
			<path class="st5" d="M-200.2,387.1c0.4-0.6,1.2-0.8,1.8-0.5l-0.1-0.1c-0.6-0.4-1.5-0.2-1.9,0.4c-0.4,0.6-0.2,1.5,0.4,1.9
				c0,0,0.1,0,0.1,0.1C-200.4,388.5-200.5,387.7-200.2,387.1z"/>
			<path class="st5" d="M-196.7,389.3c0.4-0.6,1.2-0.8,1.8-0.5l-0.1-0.1c-0.6-0.4-1.5-0.2-1.9,0.4c-0.4,0.6-0.2,1.5,0.4,1.9
				c0,0,0.1,0,0.1,0.1C-196.9,390.7-197.1,389.9-196.7,389.3z"/>
			<circle class="st4" cx="-200.2" cy="373.6" r="1.4"/>
			<circle class="st4" cx="-196.6" cy="375.9" r="1.4"/>
			<circle class="st4" cx="-193.1" cy="378.1" r="1.4"/>
			<circle class="st4" cx="-189.6" cy="380.3" r="1.4"/>
			<path class="st5" d="M-201.1,373c0.4-0.6,1.2-0.8,1.8-0.5l-0.1-0.1c-0.6-0.4-1.5-0.2-1.9,0.4c-0.4,0.6-0.2,1.5,0.4,1.9
				c0,0,0.1,0,0.1,0.1C-201.4,374.4-201.5,373.6-201.1,373z"/>
			<path class="st5" d="M-197.6,375.3c0.4-0.6,1.2-0.8,1.8-0.5l-0.1-0.1c-0.6-0.4-1.5-0.2-1.9,0.4c-0.4,0.6-0.2,1.5,0.4,1.9
				c0,0,0.1,0,0.1,0.1C-197.8,376.7-198,375.9-197.6,375.3z"/>
			<path class="st5" d="M-194.1,377.5c0.4-0.6,1.2-0.8,1.8-0.5l-0.1-0.1c-0.6-0.4-1.5-0.2-1.9,0.4c-0.4,0.6-0.2,1.5,0.4,1.9
				c0,0,0.1,0,0.1,0.1C-194.3,378.9-194.4,378.1-194.1,377.5z"/>
			<path class="st5" d="M-190.6,379.7c0.4-0.6,1.2-0.8,1.8-0.5l-0.1-0.1c-0.6-0.4-1.5-0.2-1.9,0.4c-0.4,0.6-0.2,1.5,0.4,1.9
				c0,0,0.1,0,0.1,0.1C-190.8,381.1-191,380.3-190.6,379.7z"/>
			<path class="st5" d="M-195.4,383.4c0.4-0.6,1.2-0.8,1.8-0.5l-0.1-0.1c-0.6-0.4-1.5-0.2-1.9,0.4c-0.4,0.6-0.2,1.5,0.4,1.9
				c0,0,0.1,0,0.1,0.1C-195.6,384.8-195.7,384-195.4,383.4z"/>
			<path class="st5" d="M-198.9,381.2c0.4-0.6,1.2-0.8,1.8-0.5l-0.1-0.1c-0.6-0.4-1.5-0.2-1.9,0.4c-0.4,0.6-0.2,1.5,0.4,1.9
				c0,0,0.1,0,0.1,0.1C-199.1,382.6-199.3,381.8-198.9,381.2z"/>
			<path class="st5" d="M-202.5,378.9c0.4-0.6,1.2-0.8,1.8-0.5l-0.1-0.1c-0.6-0.4-1.5-0.2-1.9,0.4c-0.4,0.6-0.2,1.5,0.4,1.9
				c0,0,0.1,0,0.1,0.1C-202.7,380.3-202.9,379.5-202.5,378.9z"/>
			<path class="st6" d="M-198.4,396.9l-6.8,10.7c-0.4,0.7-1.3,0.9-2,0.5l-10-6.4c-0.7-0.4-0.9-1.3-0.5-2l6.9-10.7
				c0.4-0.7,1.3-0.9,2-0.5l10,6.4C-198.1,395.3-197.9,396.2-198.4,396.9z"/>
		</g>
	</g>
	<path class="st7" d="M-192.7,366l-0.3,0.5l-9.2,1.9l1.3,0.8c2.7,1.7,6.3,1,7.9-1.7l0.8-1.3L-192.7,366z"/>
	<path class="st8" d="M-202.6,368.2l1.3,0.8c2.6,1.7,6.1,0.9,7.8-1.8l0.8-1.3L-202.6,368.2z"/>
</g>
</svg>
