<?xml version="1.0" encoding="utf-8"?>
<!-- Generator: Adobe Illustrator 19.1.0, SVG Export Plug-In . SVG Version: 6.00 Build 0)  -->
<svg version="1.1" id="Layer_1" xmlns="http://www.w3.org/2000/svg" xmlns:xlink="http://www.w3.org/1999/xlink" x="0px" y="0px"
	 width="114.5px" height="130px" viewBox="0 0 114.5 130" style="enable-background:new 0 0 114.5 130;" xml:space="preserve">
<style type="text/css">
	.st0{fill:#939598;}
	.st1{fill:#FFFFFF;stroke:#FFFFFF;stroke-width:3;stroke-miterlimit:10;}
	.st2{fill:#FFFFFF;stroke:#FFFFFF;stroke-miterlimit:10;}
	.st3{fill:#FFFFFF;stroke:#9EA256;stroke-width:8;stroke-miterlimit:10;}
	.st4{fill:#9EA256;}
	.st5{fill:#898F4A;}
	.st6{fill:#B7B765;}
</style>
<path class="st0" d="M100.3,120.1H20.7c-5.5,0-10-4.5-10-10V37.3c0-5.5,4.5-10,10-10h79.6c5.5,0,10,4.5,10,10v72.7
	C110.3,115.6,105.8,120.1,100.3,120.1z"/>
<path class="st0" d="M40.5,38.5h-1.4c-1.1,0-2-0.9-2-2V19.1c0-1.1,0.9-2,2-2h1.4c1.1,0,2,0.9,2,2v17.3
	C42.5,37.5,41.6,38.5,40.5,38.5z"/>
<path class="st0" d="M62.1,38.5h-1.4c-1.1,0-2-0.9-2-2V19.1c0-1.1,0.9-2,2-2h1.4c1.1,0,2,0.9,2,2v17.3
	C64.1,37.5,63.2,38.5,62.1,38.5z"/>
<path class="st0" d="M84.4,38.5H83c-1.1,0-2-0.9-2-2V19.1c0-1.1,0.9-2,2-2h1.4c1.1,0,2,0.9,2,2v17.3C86.5,37.5,85.5,38.5,84.4,38.5z
	"/>
<path class="st1" d="M99.4,117H15.1c-4.4,0-8-3.6-8-8V31.9c0-4.4,3.6-8,8-8h84.3c4.4,0,8,3.6,8,8V109
	C107.4,113.4,103.8,117,99.4,117z"/>
<path class="st2" d="M39.6,38.5h-9c-0.7,0-1.3-0.6-1.3-1.3V17.2c0-0.7,0.6-1.3,1.3-1.3h9c0.7,0,1.3,0.6,1.3,1.3v19.9
	C41,37.9,40.4,38.5,39.6,38.5z"/>
<path class="st2" d="M61.2,38.5h-9c-0.7,0-1.3-0.6-1.3-1.3V17.2c0-0.7,0.6-1.3,1.3-1.3h9c0.7,0,1.3,0.6,1.3,1.3v19.9
	C62.6,37.9,62,38.5,61.2,38.5z"/>
<path class="st2" d="M83.5,38.5h-9c-0.7,0-1.3-0.6-1.3-1.3V17.2c0-0.7,0.6-1.3,1.3-1.3h9c0.7,0,1.3,0.6,1.3,1.3v19.9
	C84.8,37.9,84.2,38.5,83.5,38.5z"/>
<path class="st3" d="M99.2,111.5h-84c-1.6,0-3-1.4-3-3V32.4c0-1.6,1.4-3,3-3h84c1.7,0,3,1.4,3,3v76.2
	C102.2,110.2,100.9,111.5,99.2,111.5z"/>
<path class="st4" d="M38.4,42.9h-6.6c-0.7,0-1.3-0.6-1.3-1.3V18.4c0-0.7,0.6-1.3,1.3-1.3h6.6c0.7,0,1.3,0.6,1.3,1.3v23.1
	C39.8,42.3,39.2,42.9,38.4,42.9z"/>
<path class="st4" d="M60,42.9h-6.6c-0.7,0-1.3-0.6-1.3-1.3V18.4c0-0.7,0.6-1.3,1.3-1.3H60c0.7,0,1.3,0.6,1.3,1.3v23.1
	C61.4,42.3,60.8,42.9,60,42.9z"/>
<path class="st4" d="M82.3,42.9h-6.6c-0.7,0-1.3-0.6-1.3-1.3V18.4c0-0.7,0.6-1.3,1.3-1.3h6.6c0.7,0,1.3,0.6,1.3,1.3v23.1
	C83.6,42.3,83,42.9,82.3,42.9z"/>
<rect x="26.9" y="47.4" class="st5" width="16.5" height="16.5"/>
<rect x="49" y="47.4" class="st5" width="16.5" height="16.5"/>
<rect x="70.7" y="47.4" class="st5" width="16.5" height="16.5"/>
<rect x="26.9" y="66.5" class="st5" width="16.5" height="16.5"/>
<rect x="49" y="66.5" class="st5" width="16.5" height="16.5"/>
<rect x="70.7" y="66.5" class="st6" width="16.5" height="16.5"/>
<rect x="26.9" y="85.4" class="st5" width="16.5" height="16.5"/>
<rect x="49" y="85.4" class="st5" width="16.5" height="16.5"/>
<rect x="70.7" y="85.4" class="st5" width="16.5" height="16.5"/>
</svg>
