<?xml version="1.0" encoding="utf-8"?>
<!-- Generator: Adobe Illustrator 19.1.0, SVG Export Plug-In . SVG Version: 6.00 Build 0)  -->
<svg version="1.1" id="Layer_1" xmlns="http://www.w3.org/2000/svg" xmlns:xlink="http://www.w3.org/1999/xlink" x="0px" y="0px"
	 width="218px" height="312px" viewBox="-196 241 218 312" style="enable-background:new -196 241 218 312;" xml:space="preserve">
<style type="text/css">
	.st0{display:none;}
	.st1{display:inline;}
	.st2{fill:#1C75BC;}
	.st3{fill:#17669B;}
	.st4{fill:#60AEE1;}
	.st5{fill:#A7A9AC;}
	.st6{fill:#F1F2F2;}
	.st7{fill:#0F4968;}
	.st8{fill:#939598;}
	.st9{fill:#58595B;}
	.st10{fill:#3DB0D7;}
	.st11{fill:#14597F;}
	.st12{fill:#2499C1;}
	.st13{fill:#124960;}
	.st14{fill:#FFFFFF;}
	.st15{display:inline;fill:#F8F8D3;}
	.st16{display:inline;fill:#F2F2F2;}
	.st17{display:inline;fill:#E2F4FD;}
	.st18{display:inline;fill:#FFEEDD;}
	.st19{display:inline;fill:#DAE79C;}
	.st20{display:inline;fill:#D1D3D4;}
	.st21{display:inline;fill:#FFFFFF;}
	.st22{display:inline;fill:#B0E2F6;}
	.st23{display:inline;fill:#FFFFFF;stroke:#262262;stroke-width:2;stroke-miterlimit:10;}
	.st24{display:inline;fill:#FBBA63;}
	.st25{display:inline;fill:none;stroke:#262262;stroke-width:2;stroke-miterlimit:10;}
	.st26{display:inline;fill:#262262;}
	.st27{display:none;fill:#FFEEDD;}
	.st28{fill:#F3E3FF;}
	.st29{fill:#FFEEDD;}
	.st30{fill:#F2F2F2;}
	.st31{fill:#F8F8D3;}
	.st32{fill:#B77DD8;stroke:#262262;stroke-width:2;stroke-miterlimit:10;}
	.st33{fill:#FFD40B;stroke:#262262;stroke-width:2;stroke-miterlimit:10;}
	.st34{fill:#C2D34A;stroke:#262262;stroke-width:2;stroke-miterlimit:10;}
	.st35{fill:#FFD40B;}
	.st36{fill:none;stroke:#262262;stroke-width:2;stroke-miterlimit:10;}
	.st37{fill:#D1D3D4;stroke:#262262;stroke-width:2;stroke-miterlimit:10;}
	.st38{fill:#FFFFFF;stroke:#262262;stroke-width:1.584;stroke-miterlimit:10;}
</style>
<g id="Layer_3" class="st0">
	<g class="st1">
		<g>
			<path class="st2" d="M-1054.7,739.6c-13.7,1.4-23.7,13.7-22.3,27.4l1,10l6.6,64l14.1-1.5l-6.6-64h-0.1l-0.7-6.9
				c-0.8-7.9,5-15,12.8-15.8l9.3-1l-1.4-13.6L-1054.7,739.6z"/>
			<path class="st3" d="M-1050.1,752.4l9-0.9l-0.7-7.2l-9.9,1c-10.5,1.1-18.2,10.6-17.1,21.1l0.8,7.7l5.1,49.2l0,0l2.3,21.6l5.8-0.6
				l-2.3-22.1l0,0l-4.9-47.2h-0.1l-0.7-6.9C-1063.7,760.4-1058,753.3-1050.1,752.4z"/>
			<path class="st4" d="M-1073.1,777l-1-10c-1.4-13.7,8.6-26,22.3-27.4l10.1-1v-0.3l-12.9,1.3c-13.7,1.4-23.7,13.7-22.3,27.4l1,10
				l6.6,64l2.8-0.3L-1073.1,777z"/>
			<path class="st5" d="M-1032.7,756h-4.9c-6.2,0-11.3-5.1-11.3-11.3l0,0c0-6.2,5.1-11.3,11.3-11.3h4.9c6.2,0,11.3,5.1,11.3,11.3
				l0,0C-1021.4,750.9-1026.5,756-1032.7,756z"/>
			<path class="st5" d="M-1032.7,756h-4.9c-6.2,0-11.3-5.1-11.3-11.3l0,0c0-6.2,5.1-11.3,11.3-11.3h4.9c6.2,0,11.3,5.1,11.3,11.3
				l0,0C-1021.4,750.9-1026.5,756-1032.7,756z"/>
			<path class="st6" d="M-1037.7,735.4h4.9c5.9,0,10.7,4.5,11.3,10.3c0-0.3,0.1-0.7,0.1-1.1c0-6.2-5.1-11.3-11.3-11.3h-4.9
				c-6.2,0-11.3,5.1-11.3,11.3c0,0.4,0,0.7,0.1,1.1C-1048.4,740-1043.6,735.4-1037.7,735.4z"/>
			<path class="st7" d="M-1046.7,744.8l-3.2,0.3c0.1,2.7,1,5.1,2.6,7l5.3-0.5l-0.4-4C-1044.1,747-1045.5,746.1-1046.7,744.8z"/>
			<path class="st8" d="M-1032.7,748.2h-4.9c-4.8,0-9-3.1-10.6-7.4c-0.5,1.2-0.7,2.6-0.7,4c0,6.2,5.1,11.3,11.3,11.3h4.9
				c6.2,0,11.3-5.1,11.3-11.3c0-1.4-0.3-2.7-0.7-4C-1023.8,745.1-1027.9,748.2-1032.7,748.2z"/>
			<path class="st5" d="M-1049,744.2c0,0.3,0,0.6,0.1,1h27.5c0-0.3,0.1-0.6,0.1-1c0-1.9-0.5-3.6-1.5-5.1h-24.6
				C-1048.5,740.6-1049,742.4-1049,744.2z"/>
			<ellipse class="st9" cx="-1028.2" cy="744.6" rx="2.6" ry="4.6"/>
			<ellipse cx="-1028" cy="744.6" rx="1.5" ry="2.8"/>
			<path class="st8" d="M-1030.8,744.6c0-2.1,0.8-3.9,1.9-4.4c-0.2-0.1-0.4-0.2-0.7-0.2c-1.4,0-2.6,2.1-2.6,4.6s1.1,4.6,2.6,4.6
				c0.2,0,0.5-0.1,0.7-0.2C-1030,748.5-1030.8,746.7-1030.8,744.6z"/>
		</g>
		<g>
			<path class="st2" d="M-947.1,739.6c13.7,1.4,23.7,13.7,22.3,27.4l-1,10l-6.6,64l-14.1-1.5l6.6-64h0.1l0.7-6.9
				c0.8-7.9-5-15-12.8-15.8l-9.3-1l1.4-13.6L-947.1,739.6z"/>
			<path class="st3" d="M-951.7,752.4l-9-0.9l0.7-7.2l9.9,1c10.5,1.1,18.2,10.6,17.1,21.1l-0.8,7.7l-5.1,49.2l0,0l-2.3,21.6
				l-5.8-0.6l2.3-22.1l0,0l4.9-47.2h0.1l0.7-6.9C-938,760.4-943.8,753.3-951.7,752.4z"/>
			<path class="st4" d="M-928.6,777l1-10c1.4-13.7-8.6-26-22.3-27.4l-10.1-1v-0.3l12.9,1.3c13.7,1.4,23.7,13.7,22.3,27.4l-1,10
				l-6.6,64l-2.8-0.3L-928.6,777z"/>
			<path class="st5" d="M-969,756h4.9c6.2,0,11.3-5.1,11.3-11.3l0,0c0-6.2-5.1-11.3-11.3-11.3h-4.9c-6.2,0-11.3,5.1-11.3,11.3l0,0
				C-980.3,750.9-975.2,756-969,756z"/>
			<path class="st5" d="M-969,756h4.9c6.2,0,11.3-5.1,11.3-11.3l0,0c0-6.2-5.1-11.3-11.3-11.3h-4.9c-6.2,0-11.3,5.1-11.3,11.3l0,0
				C-980.3,750.9-975.2,756-969,756z"/>
			<path class="st6" d="M-964.1,735.4h-4.9c-5.9,0-10.7,4.5-11.3,10.3c0-0.3-0.1-0.7-0.1-1.1c0-6.2,5.1-11.3,11.3-11.3h4.9
				c6.2,0,11.3,5.1,11.3,11.3c0,0.4,0,0.7-0.1,1.1C-953.3,740-958.2,735.4-964.1,735.4z"/>
			<path class="st7" d="M-955,744.8l3.2,0.3c-0.1,2.7-1,5.1-2.6,7l-5.3-0.5l0.4-4C-957.7,747-956.2,746.1-955,744.8z"/>
			<path class="st8" d="M-969,748.2h4.9c4.8,0,9-3.1,10.6-7.4c0.5,1.2,0.7,2.6,0.7,4c0,6.2-5.1,11.3-11.3,11.3h-4.9
				c-6.2,0-11.3-5.1-11.3-11.3c0-1.4,0.3-2.7,0.7-4C-978,745.1-973.8,748.2-969,748.2z"/>
			<path class="st5" d="M-952.7,744.2c0,0.3,0,0.6-0.1,1h-27.5c0-0.3-0.1-0.6-0.1-1c0-1.9,0.5-3.6,1.5-5.1h24.6
				C-953.3,740.6-952.7,742.4-952.7,744.2z"/>
			<ellipse class="st9" cx="-973.5" cy="744.6" rx="2.6" ry="4.6"/>
			<ellipse cx="-973.8" cy="744.6" rx="1.5" ry="2.8"/>
			<path class="st8" d="M-971,744.6c0-2.1-0.8-3.9-1.9-4.4c0.2-0.1,0.4-0.2,0.7-0.2c1.4,0,2.6,2.1,2.6,4.6s-1.1,4.6-2.6,4.6
				c-0.2,0-0.5-0.1-0.7-0.2C-971.8,748.5-971,746.7-971,744.6z"/>
		</g>
		<path class="st10" d="M-949,915.6L-949,915.6h-0.3c-1.3-0.1-2.5-0.1-3.8-0.1c-0.8,0-1.6,0-2.4,0.1h-1.2c-0.3,0-0.5-0.1-0.8-0.1
			h-81.5c-3.7,0-6.8,3.1-6.8,6.8s3.1,6.8,6.8,6.8h81.5c0.2,0,0.3,0,0.5,0l8.4-0.1c20.7,2.2,36.8,19.8,36.8,41.1
			c0,22.8-18.5,41.3-41.3,41.3c-21.3,0-38.8-16.1-41.1-36.7c-0.6,3.1-3.4,5.5-6.7,5.5s-6-2.3-6.7-5.4c2.4,28,25.8,49.9,54.4,49.9
			c30.2,0,54.6-24.5,54.6-54.6C-898.5,941.3-920.8,917.7-949,915.6z"/>
		<rect x="-1034" y="924.6" class="st11" width="83.6" height="4.5"/>
		<path class="st11" d="M-908.6,969.6c0-24.9-20.2-45-45-45c-7.1,0-13.8,1.6-19.7,4.5h15.7c0.2,0,0.3,0,0.5,0l8.4-0.1
			c20.7,2.2,36.8,19.8,36.8,41.1c0,22.8-18.5,41.3-41.3,41.3c-21.3,0-38.8-16.1-41.1-36.7c0,0.1-0.1,0.2-0.1,0.3
			c0.1-0.5,0.2-1.1,0.2-1.6v-23.5c-2.9,6-4.6,12.7-4.6,19.8c0,24.9,20.2,45,45,45C-928.8,1014.6-908.6,994.5-908.6,969.6z
			 M-997.3,979.1c0.1-0.1,0.2-0.1,0.3-0.2C-997.2,979-997.2,979-997.3,979.1z M-996.7,978.6c0.1-0.1,0.3-0.2,0.4-0.3
			C-996.4,978.4-996.5,978.5-996.7,978.6z M-996,978.1c0.2-0.2,0.3-0.4,0.5-0.6C-995.7,977.7-995.9,977.9-996,978.1z M-994.3,975
			c-0.1,0.3-0.2,0.7-0.3,1C-994.5,975.6-994.4,975.3-994.3,975z M-994.7,976c-0.1,0.3-0.3,0.6-0.5,0.9
			C-995,976.6-994.8,976.3-994.7,976z M-995.1,976.9c-0.1,0.1-0.2,0.3-0.3,0.4C-995.3,977.2-995.2,977.1-995.1,976.9z"/>
		<rect x="-1034.6" y="915.6" class="st12" width="86.1" height="5"/>
		<path class="st12" d="M-1000.9,980.1L-1000.9,980.1c-3.7,0-6.8-3.1-6.8-6.8v-81.5c0-3.7,3.1-6.8,6.8-6.8l0,0
			c3.7,0,6.8,3.1,6.8,6.8v81.5C-994.1,977.1-997.2,980.1-1000.9,980.1z"/>
		<rect x="-997.3" y="888.3" class="st11" width="3.2" height="90.9"/>
		<path class="st10" d="M-997.3,980.1v-91.9h-4.7l-0.1,91.8v-1.1c0,0,0.3,3.1,0.7,3.9c0.3,0.8,3.2-1.7,3.2-1.7l1.2,0.3L-997.3,980.1
			z"/>
		<path class="st11" d="M-946.2,835.2c-2.8,26.7-28.7,45-54.7,43.8c-25.1,1-52-17.2-54.7-43.8l-13.9,3.9
			c3.6,34.5,34.7,54.9,68.6,54.5c35.1,0.1,65-20,68.6-54.5L-946.2,835.2z"/>
		<path class="st11" d="M-946.2,835.2c-2.8,26.7-28.7,45-54.7,43.8c-25.1,1-52-17.2-54.7-43.8l-13.9,3.9
			c3.6,34.5,34.7,54.9,68.6,54.5c35.1,0.1,65-20,68.6-54.5L-946.2,835.2z"/>
		<path class="st12" d="M-935.2,838.3c-4.7,31.5-32.9,51.4-65.7,51.4c-31.7,0.3-61-19.8-65.7-51.4l-2.9,0.8
			c3.6,34.5,34.7,54.9,68.6,54.5c35.1,0.1,65-20,68.6-54.5L-935.2,838.3z"/>
		<path class="st13" d="M-946.2,835.2c-2.8,26.7-28.7,45-54.7,43.8c-25.1,1-52-17.2-54.7-43.8l-5.8,1.6c3,29.3,32.6,49.2,60.1,48.1
			c28.6,1.2,57.6-18.9,60.7-48.2"/>
		<circle class="st11" cx="-1065" cy="922.8" r="31.3"/>
		<circle class="st12" cx="-1065" cy="923" r="26.4"/>
		<circle class="st14" cx="-1065" cy="923.4" r="18.2"/>
		<path class="st12" d="M-949.2,915.6L-949.2,915.6h-0.3c-0.1,0-0.2,0-0.2,0v4.8c25.3,2.1,45.2,23.3,45.2,49.2
			c0,27.3-22.1,49.4-49.4,49.4c-23.7,0-43.4-16.7-48.2-38.9c-2.8-0.5-5-2.6-5.6-5.3c2.4,28,25.8,49.9,54.4,49.9
			c30.2,0,54.6-24.5,54.6-54.6C-898.7,941.3-921,917.7-949.2,915.6z"/>
		<polygon class="st12" points="-1007.7,973.8 -1007.7,975.5 -1005.7,980 -1002.1,980.1 -1004.3,975.5 		"/>
		<path class="st10" d="M-1002.2,978.5c0,0,0,1.1,0,1.7s1.1,0.6,1.1,0.6l0.4-1.5L-1002.2,978.5z"/>
		<path class="st10" d="M-1002.2,980.2c0,0,0.3,1.9,0.8,1.7c0.5-0.1-0.2-2.3-0.2-2.3L-1002.2,980.2z"/>
	</g>
</g>
<g id="icon1">
	<g id="Layer_5">
	</g>
</g>
<g id="icons2">
	<g id="Layer_6">
	</g>
</g>
<g id="Layer_7" class="st0">
	<path class="st15" d="M-507.6,1295.6c-5.3,0-9.6-4.3-9.6-9.6v-45.4c-3.8-4.8-6.4-10.4-7.7-16.4c-0.4-2-0.7-4.1-0.8-6.2
		c-0.2-0.9-0.2-1.8-0.2-2.7v-82.4c0-6.8,5.5-12.3,12.3-12.3h3c0.8,0,1.6,0.1,2.3,0.2v-2.5c0-6.8,5.5-12.3,12.3-12.3h6.9
		c0.8,0,1.6,0.1,2.3,0.2v-2.8c0-6.8,5.5-12.3,12.3-12.3h6.9c6.8,0,12.3,5.5,12.3,12.3v1.2c0.8-0.1,1.5-0.2,2.3-0.2h6.9
		c6.8,0,12.3,5.5,12.3,12.3v49c1.6-0.8,3.5-1.2,5.4-1.2c0.7,0,1.3,0.1,2,0.2l6.3,1c3.2,0.5,6.1,2.3,8,5s2.7,5.9,2.2,9.2v0.2
		l-11.2,43c-0.3,1.7-1.9,6-21,18.1c-1.4,1.2-2.8,2.4-4.3,3.4v41.4c0,5.3-4.3,9.6-9.6,9.6H-507.6z"/>
	<rect x="-535.8" y="1261.8" class="st16" width="99.7" height="132.6"/>
	<path class="st17" d="M-539.2,1385.9c-5,0-9-4-9-9v-36c-1.2-0.9-2.4-1.8-3.5-2.8c-16.9-10.7-18.3-14.5-18.6-16.2l-9.8-37.7v-0.2
		c-0.5-3,0.2-6,2-8.5c1.8-2.5,4.4-4.1,7.4-4.6l5.5-0.9c0.6-0.1,1.2-0.1,1.8-0.1c1.5,0,2.8,0.3,4.1,0.8v-42c0-6.3,5.1-11.4,11.4-11.4
		h6c0.5,0,1,0,1.4,0.1v-0.3c0-6.3,5.1-11.4,11.4-11.4h6c6.3,0,11.4,5.1,11.4,11.4v1.7c0.5-0.1,0.9-0.1,1.4-0.1h6
		c6.3,0,11.4,5.1,11.4,11.4v1.4c0.5-0.1,0.9-0.1,1.4-0.1h2.6c6.3,0,11.4,5.1,11.4,11.4v72.2c0,0.8-0.1,1.6-0.2,2.4
		c-0.1,1.9-0.3,3.7-0.7,5.5c-1.1,5.3-3.4,10.3-6.7,14.5v39.6c0,5-4,9-9,9L-539.2,1385.9L-539.2,1385.9L-539.2,1385.9z"/>
	<rect x="-557.3" y="1351.7" class="st15" width="88.6" height="42.7"/>
	<path class="st18" d="M-431.6,1387c-4.4,0-8-3.6-8-8v-26.6c-0.7-0.6-1.5-1.2-2.2-1.8c-13.2-8.3-14.2-11.4-14.5-13l-7.4-28.4v-0.2
		c-0.4-2.6,0.2-5.2,1.7-7.3c1.5-2.1,3.8-3.5,6.4-4l4.2-0.7c0.5-0.1,1.1-0.1,1.6-0.1c0.6,0,1.3,0.1,1.9,0.2V1267
		c0-5.4,4.4-9.8,9.8-9.8h4.4c0.5-4.9,4.7-8.8,9.8-8.8h4.5c5.4,0,9.8,4.4,9.8,9.8l0,0h4.4c5.4,0,9.7,4.3,9.8,9.6h1.8
		c5.4,0,9.8,4.4,9.8,9.8v54.6c0,0.6-0.1,1.3-0.2,2c-0.1,1.4-0.3,2.7-0.5,4.1v0.2c-0.9,4-2.6,7.8-5.1,11.1v29.5c0,4.4-3.6,8-8,8
		L-431.6,1387L-431.6,1387z"/>
	<rect x="-448.6" y="1359.7" class="st17" width="69.7" height="34.7"/>
	<path class="st19" d="M-513.6,1125.6h3c4,0,7.3,3.3,7.3,7.3v-14.6c0-4,3.3-7.3,7.3-7.3h6.9c4,0,7.3,3.3,7.3,7.3v-14.9
		c0-4,3.3-7.3,7.3-7.3h6.9c4,0,7.3,3.3,7.3,7.3v13.3c0-4,3.3-7.3,7.3-7.3h6.9c4,0,7.3,3.3,7.3,7.3v66.6c0,0.4,0.3,0.7,0.2,1
		c0.3,0.3-0.1,2.2,0.2,2.5l2.8-11.2c0.6-4,4.4-6.7,8.4-6l6.3,1c4,0.6,6.7,4.4,6,8.4l-11.1,43c-0.4,2.3-10,9.4-19.1,15.1
		c-2,1.8-4.2,3.4-6.3,4.9v44c0,2.5-2.1,4.6-4.6,4.6h-51.6c-2.5,0-4.6-2.1-4.6-4.6v-47.2c-3.8-4.3-6.5-9.6-7.8-15.7l0,0
		c-0.4-1.9-0.6-3.8-0.7-5.7c-0.1-0.7-0.2-1.4-0.2-2.1v-27.8v-21.6v-33C-520.9,1128.9-517.7,1125.6-513.6,1125.6z"/>
	<rect x="-530.8" y="1266.8" class="st20" width="89.7" height="122.6"/>
	<path class="st21" d="M-538.8,1381.4c-3,0-5.5-2.5-5.5-5.5v-37.5c-1.7-1.2-3.3-2.5-4.9-3.8c-3-1.9-16.3-10.5-17.2-14l-9.7-37.4
		v-0.1c-0.3-2.1,0.2-4.1,1.4-5.9c1.2-1.7,3-2.8,5.1-3.2l5.5-0.9c0.4-0.1,0.8-0.1,1.3-0.1c3.5,0,6.6,2.4,7.6,5.7v-50.2
		c0-4.3,3.5-7.9,7.9-7.9h6c1.8,0,3.5,0.6,4.9,1.7v-5.3c0-4.3,3.5-7.9,7.9-7.9h6c4.3,0,7.9,3.5,7.9,7.9v6.8c1.3-1.1,3-1.7,4.9-1.7h6
		c4.3,0,7.9,3.5,7.9,7.9v6.5c1.3-1.1,3-1.7,4.9-1.7h2.6c4.3,0,7.9,3.5,7.9,7.9v71.7c0,0.6-0.1,1.3-0.2,2c-0.1,1.7-0.3,3.5-0.6,5.1
		c-1.1,5.1-3.4,9.9-6.8,13.9v40.6c0,3-2.5,5.5-5.5,5.5L-538.8,1381.4L-538.8,1381.4z"/>
	<path class="st21" d="M-488.7,1236.3h-2.6c-3.5,0-6.4,2.9-6.4,6.4v-12.8c0-3.5-2.9-6.4-6.4-6.4h-6c-3.5,0-6.4,2.9-6.4,6.4v-13.1
		c0-3.5-2.9-6.4-6.4-6.4h-6c-3.5,0-6.4,2.9-6.4,6.4v11.6c0-3.5-2.9-6.4-6.4-6.4h-6c-3.5,0-6.4,2.9-6.4,6.4v58.3
		c0,0.3-0.2,0.6-0.2,0.9c-0.2,0.3,0.1,1.9-0.2,2.2l-2.5-9.9c-0.6-3.5-3.9-5.9-7.4-5.3l-5.5,0.9c-3.5,0.6-5.9,3.9-5.3,7.4l9.8,37.6
		c0.3,2,8.8,8.3,16.7,13.3c1.8,1.6,3.6,3,5.6,4.3v38.6c0,2.2,1.8,4,4,4h45.1c2.2,0,4-1.8,4-4v-41.4c3.3-3.8,5.7-8.4,6.8-13.7l0,0
		c0.4-1.7,0.6-3.4,0.6-5c0.1-0.6,0.2-1.2,0.2-1.8v-24.4v-19v-28.9C-482.3,1239.2-485.2,1236.3-488.7,1236.3z"/>
	<path class="st22" d="M-488.7,1236.3h-2.6c-3.5,0-6.4,2.9-6.4,6.4v-12.8c0-3.5-2.9-6.4-6.4-6.4h-6c-3.5,0-6.4,2.9-6.4,6.4v-13.1
		c0-3.5-2.9-6.4-6.4-6.4h-6c-3.5,0-6.4,2.9-6.4,6.4v11.6c0-3.5-2.9-6.4-6.4-6.4h-6c-3.5,0-6.4,2.9-6.4,6.4v58.3
		c0,0.3-0.2,0.6-0.2,0.9c-0.2,0.3,0.1,1.9-0.2,2.2l-2.5-9.9c-0.6-3.5-3.9-5.9-7.4-5.3l-5.5,0.9c-3.5,0.6-5.9,3.9-5.3,7.4l9.8,37.6
		c0.3,2,8.8,8.3,16.7,13.3c1.8,1.6,3.6,3,5.6,4.3v38.6c0,2.2,1.8,4,4,4h45.1c2.2,0,4-1.8,4-4v-41.4c3.3-3.8,5.7-8.4,6.8-13.7l0,0
		c0.4-1.7,0.6-3.4,0.6-5c0.1-0.6,0.2-1.2,0.2-1.8v-24.4v-19v-28.9C-482.3,1239.2-485.2,1236.3-488.7,1236.3z"/>
	<rect x="-552.3" y="1356.7" class="st19" width="78.6" height="32.7"/>
	<path class="st21" d="M-431.7,1383.7c-2.3,0-4.2-1.9-4.2-4.2v-28.8c-1.3-0.9-2.6-1.9-3.8-2.9c-2.3-1.4-12.6-8.1-13.2-10.8
		l-7.5-28.8v-0.1c-0.3-1.6,0.1-3.2,1.1-4.5c0.9-1.3,2.3-2.2,3.9-2.4l5.3-1.1c0.3-0.1-0.3,0,0,0c2.7,0,5,2.1,5.7,4.7l4.5-31.8
		c0-3.3,7.5,4.4,10.8,4.4l2.5-4.9c1.4,0,1.7-4.9,2.8-4.1l-0.8-3.8c0-3.3,1.3,0.5,4.6,0.5l0.8-5c3.3,0,2-1.7,2,1.6l3.2,8.7
		c1-0.8,3.8-0.4,5.3-0.4l3,2.8c3.3,0,0.8-3.5,0.8-0.2l3.2,5.4c1-0.8,2.6,1.2,4,1.2l3.6,2.8c3.3,0-1.3-1.5-1.3,1.8l-1,48.7
		c0,0.5,1.1,2.4,1,2.9c-0.1,1.3,4.4,1.1,4.1,2.3c-0.8,3.9-2.3,7.3-4.9,10.3l3.2,31.4c0,2.3-1.9,4.2-4.2,4.2L-431.7,1383.7
		L-431.7,1383.7z"/>
	<polygon class="st21" points="-441.5,1346.5 -441.5,1365 -434.2,1365 -434.2,1350.3 	"/>
	<circle class="st23" cx="-443.7" cy="1285.4" r="10.1"/>
	<path class="st24" d="M-393.4,1272.7h-2c-2.7,0-4.8,2.2-4.8,4.8v-9.5c0-2.7-2.2-4.8-4.8-4.8h-4.5c-2.7,0-4.8,2.2-4.8,4.8v-9.9
		c0-2.7-2.2-4.8-4.8-4.8h-4.5c-2.7,0-4.8,2.2-4.8,4.8v8.8c0-2.7-2.2-4.8-4.8-4.8h-4.5c-2.7,0-4.8,2.2-4.8,4.8v44.1
		c0,0.3-0.2,0.4-0.1,0.7c-0.2,0.2,0.1,1.5-0.1,1.7l-1.9-7.4c-0.4-2.6-2.8-4.6-5.5-4.2l-4.3,0.9c-2.6,0.4-4.4,2.9-4,5.6l7.4,28.4
		c0.2,1.5,6.6,6.2,12.6,10c1.3,1.2,2.8,2.3,4.2,3.2v29.2c0,1.7,1.4,3,3,3h34.2c1.7,0,3-1.4,3-3v-31.3c2.5-2.9,4.3-6.4,5.2-10.4l0,0
		c0.3-1.3,0.4-2.5,0.5-3.8c0.1-0.4,0.1-0.9,0.1-1.4v-18.4v-14.3v-21.8C-388.6,1274.9-390.8,1272.7-393.4,1272.7z"/>
	<rect x="-443.6" y="1364.7" class="st22" width="59.7" height="24.7"/>
	<path class="st25" d="M-394.4,1364.7v-16c2.5-2.9,4.3-6.4,5.2-10.4l0,0c0.3-1.3,0.4-2.5,0.5-3.8c0.1-0.4,0.1-0.9,0.1-1.4v-18.4
		v-14.3v-21.8c0-2.7-2.2-4.8-4.8-4.8h-2c-1.9,0-3.6,1.1-4.4,2.8h-0.5v-7.6c0-2.7-2.2-4.8-4.8-4.8h-4.5c-2.3,0-4.2,1.6-4.7,3.7h-0.2
		v-8.7c0-2.7-2.2-4.8-4.8-4.8h-4.5c-2.7,0-4.8,2.2-4.8,4.8v8.7l0,0c-0.1-2.6-2.2-4.7-4.8-4.7h-4.5c-2.3,0-4.2,1.6-4.7,3.7h-8.7V1242
		c2.2-1.5,4.3-3.1,6.3-4.9c9-5.7,18.7-12.9,19.1-15.1l11.2-42.9c0.6-4-2.1-7.8-6-8.4l-6.3-1c-4-0.6-7.8,2.1-8.4,6l-2.3,9.1v-1.2
		h-0.9c0-0.1,0-0.1,0-0.2v-66.6c0-4-3.3-7.3-7.3-7.3h-7.1c-4,0-7.2,3.2-7.3,7.2l0,0v-13.1c0-4-3.3-7.3-7.3-7.3h-6.9
		c-4,0-7.3,3.3-7.3,7.3v13.1h-0.2c-0.8-3.2-3.7-5.6-7.1-5.6h-6.9c-4,0-7.3,3.3-7.3,7.3v11.4h-0.7c-1.2-2.5-3.7-4.2-6.6-4.2h-3
		c-4,0-7.3,3.3-7.3,7.3v33v21.6v23.3c-0.7-0.2-1.4-0.4-2.1-0.4h-6c-3.5,0-6.4,2.9-6.4,6.4v11.5l0,0c-0.1-3.5-2.9-6.3-6.4-6.3h-6
		c-3.5,0-6.4,2.9-6.4,6.4v58.3c0,0.1,0,0.1,0,0.2h-0.8v1l-2-8c-0.6-3.5-3.9-5.9-7.4-5.3l-5.5,0.9c-3.5,0.6-5.9,3.9-5.3,7.4l9.8,37.6
		c0.3,2,8.8,8.3,16.7,13.3c1.8,1.6,3.6,3,5.6,4.3v18.4h-9.1v32.7h21.5h57.1h30.2h2.4h57.2v-24.7h-10.6L-394.4,1364.7L-394.4,1364.7z
		 M-441.1,1346.1c0.8,0.5,1.6,1,2.3,1.5c1.3,1.2,2.8,2.3,4.2,3.2v13.9h-6.5V1346.1z"/>
	<rect x="-481.7" y="1265.8" class="st21" width="29.2" height="2"/>
	<rect x="-542.4" y="1355.8" class="st21" width="69.5" height="1.9"/>
	<rect x="-433.6" y="1364" class="st21" width="38.2" height="1.7"/>
	<rect x="-444.9" y="1364" class="st21" width="2.8" height="1.4"/>
	<rect x="-473.5" y="1355.8" class="st21" width="1.9" height="32.4"/>
	<rect x="-536.4" y="1229.5" class="st21" width="1.9" height="38.3"/>
	<rect x="-516.5" y="1224.3" class="st21" width="1.9" height="43.5"/>
	<rect x="-497.8" y="1237" class="st21" width="1.9" height="30.8"/>
	<rect x="-461.4" y="1117.6" class="st21" width="2" height="47.8"/>
	<rect x="-482.8" y="1117.6" class="st21" width="1.9" height="47.8"/>
	<rect x="-504.7" y="1130.1" class="st21" width="2.3" height="35.3"/>
	<rect x="-444.9" y="1364.7" class="st21" width="1.4" height="23.5"/>
	<rect x="-429.7" y="1268.8" class="st21" width="1.9" height="30"/>
	<rect x="-443.9" y="1267.8" class="st21" width="1.9" height="45.5"/>
	<rect x="-415.4" y="1268.8" class="st21" width="1.9" height="30"/>
	<rect x="-401.2" y="1276.6" class="st21" width="1.9" height="22.3"/>
	<circle class="st23" cx="-486.8" cy="1373.1" r="7.8"/>
	<circle class="st23" cx="-395.4" cy="1377" r="4.8"/>
	<polygon class="st26" points="-553.3,1296.3 -554.1,1296.3 -554.3,1285.5 -553.3,1285.5 	"/>
	<polygon class="st26" points="-439.8,1192.9 -438.9,1192.9 -438.7,1182.1 -439.8,1182.1 	"/>
	<polygon class="st21" points="-442.9,1313.3 -443.3,1313.3 -443.3,1302.6 -442.9,1302.6 	"/>
	<path class="st20" d="M-443.9,1296.5v10.9c0,0-0.3-4.6-1.7-5.8C-447,1300.4-443.9,1296.5-443.9,1296.5z"/>
	<polygon class="st24" points="-444.1,1309.8 -442.9,1314.5 -446,1314.5 -444.9,1310.3 	"/>
</g>
<g id="Layer_10">
	<g id="Layer_11">
		<polygon class="st27" points="-153.5,316.5 -153.5,291.4 -180.8,291.4 -180.8,253.8 6,253.8 6,291.4 -16.8,291.4 -16.8,316.5 
			-85.1,329.3 		"/>
		<path class="st28" d="M-158.2,538c-11.6,0-21.1-8-21.1-17.9V312.9c0-9.9,9.5-17.9,21.1-17.9h143.9c11.6,0,21.1,8,21.1,17.9v207.2
			c0,9.9-9.5,17.9-21.1,17.9H-158.2L-158.2,538z M-17.4,511V321.4H-156V511H-17.4z"/>
		<path class="st29" d="M-118.1,516.5c-17.4,0-31.5-14.1-31.5-31.5s14.1-31.5,31.5-31.5s31.5,14.1,31.5,31.5
			C-86.7,502.4-100.7,516.5-118.1,516.5z"/>
		<g>
			<polygon class="st29" points="-153.1,295 -16.4,295 -16.4,284.3 6.5,284.2 6.5,253.8 -180.4,253.8 -180.4,284.5 -153.1,284.7 			
				"/>
			<polygon class="st28" points="-84.7,329.3 -60.8,321.4 -108.6,321.4 			"/>
		</g>
		<rect x="-144.7" y="332.5" class="st30" width="118.5" height="24.5"/>
		<rect x="-144.7" y="441.9" class="st30" width="69.2" height="15.5"/>
		<rect x="-75.2" y="441.9" class="st30" width="49.1" height="15.5"/>
		<rect x="-144.7" y="359.8" class="st31" width="118.5" height="79.5"/>
		<rect x="-85.5" y="463.8" class="st31" width="60.3" height="37.5"/>
	</g>
	<path class="st32" d="M-11.7,303.8h-149c-6.5,0-11.8,4.3-11.8,9.7V520c0,5.3,5.3,9.7,11.8,9.7h149c6.5,0,11.8-4.3,11.8-9.7V313.4
		C0.1,308.1-5.2,303.8-11.7,303.8z M-10.8,514.4c0,2.8-2.8,5.1-6.2,5.1h-138.6c-3.4,0-6.2-2.3-6.2-5.1V318.9c0-2.8,2.8-5.1,6.2-5.1
		H-17c3.4,0,6.2,2.3,6.2,5.1C-10.8,318.9-10.8,514.4-10.8,514.4z"/>
	<polygon class="st33" points="0.1,263.4 -172.3,263.4 -172.3,273.7 -142.7,273.7 -142.7,302.8 -83.7,320.2 -24.7,302.8 
		-24.7,273.7 0.1,273.7 	"/>
	<polygon class="st34" points="-136.9,532 -133.9,548 -115.1,506.3 -124.2,501.8 -131.7,497 -148.9,538.5 	"/>
	<polygon class="st34" points="-98.9,532 -101.7,548 -120.6,506.3 -111.5,501.8 -104.1,497 -87,538.5 	"/>
	<circle class="st35" cx="-118.1" cy="486" r="26.3"/>
	<path class="st36" d="M-100.2,505c5.2-4.8,8.4-11.7,8.4-19.3c0-14.5-11.8-26.3-26.3-26.3s-26.3,11.8-26.3,26.3c0,7.9,3.5,15,9,19.8
		l-13.8,33.4l12.9-6.8l3,17l15.3-37c0.2,0,0.3,0,0.5,0l15.3,37l3-17l12.9,6.8L-100.2,505z"/>
	<path class="st14" d="M-101.5,504.8c-4.2,3.8-10,6.2-16.3,6.2c-6.2,0-12.3-2-16.5-5.7l-0.7,1.4c4.6,3.8,10.7,6.3,17.2,6.3
		c6.6,0,12.5-2.7,17.1-6.5L-101.5,504.8z"/>
	<rect x="-141.4" y="338.1" class="st37" width="111.7" height="15"/>
	<rect x="-141.4" y="445.8" class="st37" width="62.8" height="7.7"/>
	<rect x="-71.7" y="445.8" class="st37" width="42" height="7.7"/>
	<rect x="-172.3" y="263.4" class="st33" width="172.3" height="10.3"/>
	<polygon class="st34" points="0.1,329.3 -8.9,313.1 -8.9,260.6 -14.2,260.6 -14.2,313.1 -22.9,329.3 	"/>
	<rect x="-141.4" y="364.3" class="st34" width="111.7" height="70.7"/>
	<rect x="-81.5" y="468.6" class="st34" width="51.7" height="28.4"/>
	<rect x="-132.9" y="371.4" class="st14" width="94.6" height="6.9"/>
	<rect x="-141.8" y="272.3" class="st14" width="116.2" height="3"/>
	<rect x="-15.2" y="262.4" class="st14" width="2" height="2"/>
	<rect x="-9.9" y="262.4" class="st14" width="2" height="2"/>
	<rect x="-15.2" y="272.8" class="st14" width="2" height="1.9"/>
	<rect x="-9.9" y="272.8" class="st14" width="2" height="1.9"/>
	<rect x="-132.9" y="384" class="st14" width="94.6" height="6.9"/>
	<rect x="-132.9" y="396.6" class="st14" width="94.6" height="6.9"/>
	<rect x="-132.9" y="408.6" class="st14" width="94.6" height="6.9"/>
	<rect x="-132.9" y="421" class="st14" width="94.6" height="6.9"/>
	<circle class="st38" cx="-118.1" cy="485.8" r="14.7"/>
	<polygon class="st14" points="-143.6,528.8 -146.2,528.8 -141.8,518.1 -139.3,518.1 	"/>
	<polygon class="st14" points="-123.6,528.8 -126.4,528.8 -121.8,518.1 -119.1,518.1 	"/>
	<polygon class="st14" points="-96.5,518.1 -93.8,518.1 -89.4,528.8 -92.1,528.8 	"/>
	<polygon class="st14" points="-116.7,518.1 -114,518.1 -109.4,528.8 -112.2,528.8 	"/>
</g>
<g id="Layer_8">
	<g id="Layer_9">
	</g>
</g>
<g id="guide">
</g>
</svg>
