<?xml version="1.0" encoding="UTF-8" standalone="no"?>
<svg
   xmlns:dc="http://purl.org/dc/elements/1.1/"
   xmlns:cc="http://creativecommons.org/ns#"
   xmlns:rdf="http://www.w3.org/1999/02/22-rdf-syntax-ns#"
   xmlns:svg="http://www.w3.org/2000/svg"
   xmlns="http://www.w3.org/2000/svg"
   viewBox="0 0 251.69333 33.453335"
   height="33.453335"
   width="251.69333"
   xml:space="preserve"
   id="svg2"
   version="1.1"><metadata
     id="metadata8"><rdf:RDF><cc:Work
         rdf:about=""><dc:format>image/svg+xml</dc:format><dc:type
           rdf:resource="http://purl.org/dc/dcmitype/StillImage" /></cc:Work></rdf:RDF></metadata><defs
     id="defs6" /><g
     transform="matrix(1.3333333,0,0,-1.3333333,0,33.453333)"
     id="g10"><g
       transform="scale(0.1)"
       id="g12"><path
         id="path14"
         style="fill:#231f20;fill-opacity:1;fill-rule:nonzero;stroke:none"
         d="m 891.633,247.879 v -4.082 c -8.559,-1.336 -19.531,-4.102 -19.531,-19.844 0,-0.664 0,-7.832 1.043,-18.144 L 889.211,45.1289 c 2.422,-21.5664 4.141,-29.0859 22.574,-34.8555 V 6.16016 h -70.43 v 4.11324 c 10.254,3.0274 19.141,7.1485 19.141,22.2149 0,3.0586 0,3.0586 -1.055,17.0703 L 844.055,212.344 758.27,6.16016 h -3.125 L 666.941,209.617 652.234,47.168 c -0.664,-5.1094 -0.996,-9.2305 -0.996,-14.3477 0,-15.3984 8.52,-19.168 19.133,-22.5469 V 6.16016 h -58.484 v 4.11324 c 16.758,4.0899 19.468,9.1875 21.89,34.168 l 15.012,160.3716 c 1.066,10.234 1.399,14.003 1.399,17.089 0,16.438 -6.86,19.141 -18.833,21.895 v 4.082 h 50.317 L 761.66,62.5664 841.355,247.879 h 50.278" /><path
         id="path16"
         style="fill:#231f20;fill-opacity:1;fill-rule:nonzero;stroke:none"
         d="m 1040.71,106.688 c -1.34,33.175 -21.91,46.855 -41.374,46.855 -22.227,0 -42.078,-15.77 -48.898,-46.855 z m 24.96,-61.9146 c -2.07,-3.75 -4.79,-9.2265 -11.27,-17.0703 -17.81,-21.23044 -35.91,-27.371069 -56.439,-27.371069 -49.926,0 -74.902,39.316369 -74.902,81.355469 0,42.0895 26.699,85.5275 78.021,85.5275 38.29,0 67.7,-24.981 68.71,-74.5705 H 949.07 c -0.347,-8.1836 0,-13.6718 0.688,-17.4414 3.433,-32.1562 28.023,-53.0078 56.752,-53.0078 26.69,0 43.05,15.7422 53.72,26.3477 l 5.44,-3.7696" /><path
         id="path18"
         style="fill:#231f20;fill-opacity:1;fill-rule:nonzero;stroke:none"
         d="m 1213.38,102.566 c 0,7.188 -0.34,16.075 -3.78,24.981 -5.45,14.355 -19.81,25.293 -39.96,25.293 -34.57,0 -53.72,-29.707 -53.72,-68.3791 0,-41.0429 25,-64.2968 52.67,-64.2968 5.81,0 12.69,1.0468 19.86,4.082 13.65,5.4883 21.52,14.7383 24.93,19.1719 z m 26.4,148.079 V 57.0781 c 0.28,-23.5937 4.04,-28.3789 16.01,-32.5 l 1.72,-3.0742 L 1232.9,0 c -8.89,7.83984 -11.94,11.2773 -16.76,24.5781 C 1197.68,8.52344 1183.97,0 1161.08,0 c -45.48,0 -71.14,34.8633 -71.14,77.5859 0,47.1871 29.09,89.6291 79.33,89.6291 11.29,0 27.67,-1.727 44.11,-11.621 v 45.781 c -0.34,10.293 -0.67,22.266 -19.13,20.527 l -1.37,3.078 46.9,25.665" /><path
         id="path20"
         style="fill:#231f20;fill-opacity:1;fill-rule:nonzero;stroke:none"
         d="m 1317.02,230.098 c 0,-10.227 -7.22,-17.754 -17.77,-17.754 -9.93,0 -16.78,7.527 -16.78,16.414 0,7.168 4.1,18.137 18.13,18.137 9.2,0 16.42,-7.2 16.42,-16.797 M 1286.57,122.07 c 0,11.297 -0.33,18.465 -17.11,18.465 l -1.73,3.078 45.83,26.317 V 41.3359 c 0,-19.4726 0.36,-25.957 19.17,-31.0625 V 6.16016 h -62.92 v 4.11324 c 16.76,5.1055 16.76,12.2852 16.76,31.7852 V 122.07" /><path
         id="path22"
         style="fill:#231f20;fill-opacity:1;fill-rule:nonzero;stroke:none"
         d="M 1479.38,44.7734 C 1459.96,6.47266 1434.63,0 1415.18,0 c -18.17,0 -35.93,5.80859 -50.62,24.5781 -15.76,20.1953 -17.43,42.7735 -17.43,54.7461 0,22.2068 6.13,44.0818 20.14,61.2108 17.09,21.563 37.27,26.68 55.42,26.68 26.31,0 41.34,-10.957 49.9,-17.461 l -5.44,-31.445 h -4.11 c -5.52,13.359 -14.37,34.191 -42.77,34.191 -35.91,0 -47.88,-37.609 -47.88,-63.9375 0,-40.3594 25.32,-66.6992 53.37,-66.6992 21.2,0 38.27,15.0586 48.88,26.3398 l 4.74,-3.4297" /><path
         id="path24"
         style="fill:#231f20;fill-opacity:1;fill-rule:nonzero;stroke:none"
         d="m 1537.92,230.098 c 0,-10.227 -7.18,-17.754 -17.77,-17.754 -9.97,0 -16.76,7.527 -16.76,16.414 0,7.168 4.08,18.137 18.09,18.137 9.26,0 16.44,-7.2 16.44,-16.797 M 1507.47,122.07 c 0,11.297 -0.33,18.465 -17.05,18.465 l -1.74,3.078 45.84,26.317 V 41.3359 c 0,-19.4726 0.34,-25.957 19.16,-31.0625 V 6.16016 h -62.97 v 4.11324 c 16.76,5.1055 16.76,12.2852 16.76,31.7852 V 122.07" /><path
         id="path26"
         style="fill:#231f20;fill-opacity:1;fill-rule:nonzero;stroke:none"
         d="m 1611.08,169.59 v -26.66 c 9.89,10.613 24.64,24.285 52.66,24.285 17.11,0 33.54,-6.152 43.45,-19.5 9.57,-12.988 9.91,-25.305 9.91,-44.113 V 42.7227 c 0,-20.8594 1.02,-29.0704 19.14,-32.4493 V 6.16016 h -63.26 v 4.11324 c 3.77,0.6524 11.96,2.3711 15.37,9.8907 1.77,3.7304 2.42,5.4687 2.42,21.8945 V 107.02 c 0,9.238 -0.34,22.226 -11.63,31.789 -6.52,5.496 -15.73,8.574 -26.68,8.574 -7.49,0 -19.15,-1.067 -29.08,-9.602 -11.96,-9.922 -12.3,-20.84 -12.3,-32.48 V 42.0586 c 0,-22.2227 2.07,-27.3633 18.79,-31.7852 V 6.16016 h -63.56 v 4.11324 c 17.76,3.0274 17.76,15.0079 17.76,32.1172 v 67.3634 c 0,21.543 -0.33,29.75 -18.12,30.109 l -1.72,3.067 46.85,26.66" /><path
         id="path28"
         style="fill:#231f20;fill-opacity:1;fill-rule:nonzero;stroke:none"
         d="m 1858.69,106.688 c -1.4,33.175 -21.89,46.855 -41.4,46.855 -22.23,0 -42.08,-15.77 -48.94,-46.855 z m 24.93,-61.9146 c -2.06,-3.75 -4.79,-9.2265 -11.3,-17.0703 -17.76,-21.23044 -35.86,-27.371069 -56.42,-27.371069 -49.93,0 -74.86,39.316369 -74.86,81.355469 0,42.0895 26.66,85.5275 77.97,85.5275 38.28,0 67.68,-24.981 68.7,-74.5705 h -120.68 c -0.36,-8.1836 0,-13.6718 0.67,-17.4414 3.45,-32.1562 28.05,-53.0078 56.77,-53.0078 26.68,0 43.06,15.7422 53.68,26.3477 l 5.47,-3.7696" /><path
         id="path30"
         style="fill:#231f20;fill-opacity:1;fill-rule:nonzero;stroke:none"
         d="m 565.703,248.75 c -2.605,2.559 -9.617,1.836 -17.742,0.945 l -11.152,-0.859 -12.043,1.008 c -9.969,1.004 -20.262,2.129 -24.012,-0.969 l -1.543,-2.891 v -0.273 c 0,-3.641 3.125,-4.773 6.387,-5.977 4.39,-1.562 9.863,-3.554 11.48,-12.07 0.766,-3.836 0.883,-5.527 0.883,-6.25 0,-0.371 -0.039,-0.496 -0.039,-0.496 -0.234,-15.891 -26.723,-87.805 -53.293,-153.2344 -11.277,28.4102 -47.766,153.8084 -48.152,155.0974 -0.325,1.485 -1.211,8.028 -1.211,10.039 v 0.325 c 0.464,7.793 3.765,8.171 6.941,8.574 2.297,0.242 5.129,0.594 5.344,4.375 l -0.957,2.344 c -3.071,2.871 -12.602,2.156 -26.899,0.75 l -12.675,-0.997 -13.551,1.075 c -10.531,1.191 -20.547,2.265 -24.426,-0.946 l -1.73,-3.32 v -0.266 c 0,-3.613 3.07,-4.296 6.203,-5 4.636,-0.984 10.988,-2.382 16.964,-11.082 1.891,-3.254 4.665,-9.152 9.942,-21.242 0,0 10.984,-26.347 11.973,-28.691 C 392.043,177.898 350.691,73.3477 348.711,68.3672 342.527,84.0117 309.727,173.855 291.875,222.84 l -0.867,4.394 c -0.024,0.196 -0.024,0.86 -0.024,1.7 0,1.66 0.024,3.945 0.024,3.945 0.496,7.793 3.914,8.281 7.215,8.742 2.297,0.32 5.234,0.711 5.422,4.473 l -0.969,2.344 c -3.028,2.871 -12.61,2.156 -26.887,0.75 l -12.676,-0.997 -13.484,1.114 c -7.609,0.851 -14.902,1.718 -19.602,0.605 -1.441,-0.195 -2.886,-0.359 -4.468,-0.605 l -11.321,-1.114 -12.988,1.036 c -8.777,0.988 -16.348,1.855 -19.309,-0.789 l -1.265,-2.903 c 0,-4.824 5.269,-5.625 9.121,-6.191 0.254,-0.059 2.359,-0.281 2.359,-0.281 10.395,-1.153 23.324,-2.551 23.324,-68.938 V 89.3242 C 215.48,46.9219 189.109,22.1758 143.059,21.3555 118.191,20.8281 99.9023,26.6992 87.0977,39.2266 67.0234,58.8789 64.2578,91.3164 64.2578,123.574 v 100.008 c 0,12.754 6.5156,14.922 11.75,16.699 3.1016,1.028 6.2852,2.071 5.6719,5.742 l -2.0039,3.125 c -3.5899,2.442 -11.1485,0.957 -19.918,-0.761 -5.5664,-1.074 -11.289,-2.215 -16.1719,-2.313 -4.289,0 -10.1093,0.906 -16.3086,1.934 C 16.043,249.715 5.39844,251.414 1.52344,248.074 0.480469,247.188 0,246.063 0,244.609 0,240.223 3.80078,239.246 7.89844,238.23 15.9375,236.258 27.0234,233.457 27.0234,206.797 V 90.1953 c 0,-21.0469 7.9649,-39.8359 23.0469,-54.4414 C 69.9688,16.5117 101.355,6.16016 136.184,7.34375 213.313,10.0859 229.473,58.5039 229.473,98.6016 V 223.926 c 0,10.086 2.937,13.367 6.125,14.824 5.703,-1.789 12.672,-6.066 18.242,-20.488 0.496,-1.184 47.437,-118.4573 58.238,-149.6292 L 333.059,8.16406 c 0.132,-0.36328 1.121,-2.45312 3.125,-2.65625 2.097,-0.22656 3.523,2.16797 3.671,2.45313 8.258,28.53126 51.2,136.32406 58.731,154.67606 6.797,-18.242 48.277,-130.4807 53.582,-153.97684 0.059,-0.98438 0.945,-3.11328 3.508,-3.35938 2.566,-0.23437 3.867,1.79688 4.16,2.89063 -0.039,-0.02735 6.695,19.91409 6.695,19.91409 l 11.645,32.4023 c 0.054,0.293 10.679,27.832 10.679,28.6211 -0.054,-0.3516 47.524,127.3161 47.524,127.3161 9.949,23.817 18.941,24.266 24.351,24.539 2.856,0.137 5.762,0.286 6.028,4.836 0.051,1.16 -0.266,2.207 -1.055,2.93" /></g></g></svg>