<?xml version="1.0" encoding="utf-8"?>
<!-- Generator: Adobe Illustrator 19.1.0, SVG Export Plug-In . SVG Version: 6.00 Build 0)  -->
<svg version="1.1" id="Layer_1" xmlns="http://www.w3.org/2000/svg" xmlns:xlink="http://www.w3.org/1999/xlink" x="0px" y="0px"
	 width="96px" height="96px" viewBox="-257 349 96 96" style="enable-background:new -257 349 96 96;" xml:space="preserve">
<style type="text/css">
	.st0{fill:#F2F2F2;}
	.st1{fill:#939598;}
	.st2{fill:#414042;}
	.st3{fill:#58595B;}
	.st4{fill:#27AAE1;}
	.st5{opacity:0.38;fill:#414042;enable-background:new    ;}
	.st6{stroke:#F1F2F2;stroke-width:1.2168;stroke-miterlimit:10;}
	.st7{opacity:0.49;fill:#E6E7E8;enable-background:new    ;}
	.st8{fill:#ED1C24;}
</style>
<g id="Layer_3">
	<circle class="st0" cx="-209" cy="397" r="47.2"/>
</g>
<g id="Layer_4">
	<circle class="st1" cx="-209.1" cy="387.7" r="23.7"/>
	<path class="st2" d="M-193.4,427.3h-8.5c-0.1-0.1-0.3-0.2-0.8-0.3c-2.1-0.4-2.2-2-2.2-2l0,0c0-0.2,0-0.3,0-0.5
		c0-0.7-0.1-1.3-0.1-1.9v-2.4c0.6-10.8,6.8-11.2,6.8-11.2h-6.6v-0.3h-8.7v0.3h-6.5c0,0,7.7,0.5,6.8,15.5c0,0.2,0,0.3,0,0.5h-0.1
		c0,0-0.1,1.6-2.2,2c-0.5,0.1-0.7,0.2-0.8,0.3h-1.3h-7.1c-1.9,0-3.5,1.2-3.5,2.7h38.4C-189.9,428.5-191.5,427.3-193.4,427.3z"/>
	<circle class="st3" cx="-209.1" cy="388.9" r="23.7"/>
	<circle class="st4" cx="-209.2" cy="387.7" r="18.7"/>
	<path class="st5" d="M-209.2,364.1c-5.4-0.2-10.9,1.6-15.4,5.4c-9.8,8.4-11.1,23.3-3,33.4c4.7,5.8,11.5,8.7,18.4,8.5
		C-209.2,411.4-209.2,364.1-209.2,364.1z"/>
	<circle class="st6" cx="-209.2" cy="387.7" r="10.2"/>
	<circle class="st7" cx="-201.1" cy="381.2" r="6.6"/>
	<circle class="st8" cx="-209.1" cy="367" r="1"/>
	<path class="st2" d="M-194,406c-10.1,8.4-25,7-33.4-3.1c-3.5-4.3-5.3-9.4-5.5-14.5c-0.1,5.5,1.6,11.1,5.5,15.7
		c8.4,10.1,23.3,11.4,33.4,3.1c5.8-4.8,8.7-11.8,8.5-18.8C-185.6,394.9-188.5,401.4-194,406z"/>
</g>
</svg>
