<svg enable-background="new 0 0 512 512" viewBox="0 0 512 512" xmlns="http://www.w3.org/2000/svg" xmlns:xlink="http://www.w3.org/1999/xlink"><linearGradient id="a" gradientUnits="userSpaceOnUse" x1="256.4174" x2="256.4174" y1="508.6778" y2="8.5199"><stop offset="0" stop-color="#4c2e82"/><stop offset=".2609" stop-color="#513084"/><stop offset=".578" stop-color="#60358a"/><stop offset=".923" stop-color="#783d94"/><stop offset="1" stop-color="#7f3f97"/></linearGradient><linearGradient id="b" gradientUnits="userSpaceOnUse" x1="256.0244" x2="256.0244" y1="297.6208" y2="254.6132"><stop offset="0" stop-color="#eee2ae"/><stop offset="1" stop-color="#e0d284"/></linearGradient><linearGradient id="c" gradientUnits="userSpaceOnUse" x1="256.0377" x2="256.0377" y1="265.1907" y2="51.8553"><stop offset="0" stop-color="#eee2ae"/><stop offset=".3692" stop-color="#ede1ab"/><stop offset=".6292" stop-color="#eadda2"/><stop offset=".8549" stop-color="#e5d892"/><stop offset="1" stop-color="#e0d284"/></linearGradient><path d="m506.5 255.8c0 75.4-33.4 143.1-86.2 188.9-43.9 38.1-101.2 61.2-163.8 61.2h-.5c-62.9-.1-120.3-23.4-164.2-61.8-52.4-45.9-85.5-113.2-85.5-188.3 0-138.1 112-250.1 250.1-250.1 138.1 0 250.1 112 250.1 250.1z" fill="url(#a)"/><path d="m220 279.9c5.1 3.8 24.8 17.9 33.6 18.2h.4c9.9 0 32.7-14.1 38.1-17.5l-8.6 29.2-.4 1.3-26.9 91.5z" fill="#2da1c8"/><path d="m220.9 281.2c6.5 4.7 24.4 17.2 32.7 17.5h.4c9.5 0 30.3-12.6 37.2-16.9l-8.2 27.9-.4 1.3-26.5 89.8zm-1.8-2.6 36.7 124.4.3.8v.1l.1.3 27.4-93.1.4-1.3 9-30.5s-27.9 18.2-38.9 18.2c-.1 0-.2 0-.3 0-10-.2-34.7-18.9-34.7-18.9z" fill="#2999b6"/><path d="m264.2 420.6c0 4.1-3.3 7.4-7.4 7.4-.3 0-.5 0-.8 0-3.7-.4-6.6-3.5-6.6-7.4 0-3.8 2.9-7 6.6-7.4h.8c4.1.1 7.4 3.4 7.4 7.4z" fill="#3a3a3a"/><path d="m264.2 444.4c0 4.1-3.3 7.4-7.4 7.4-.3 0-.5 0-.8 0-3.7-.4-6.6-3.5-6.6-7.4 0-3.8 2.9-7 6.6-7.4h.8c4.1 0 7.4 3.3 7.4 7.4z" fill="#3a3a3a"/><path d="m292.9 279.4s-28.5 18.6-39.3 18.2c-9.8-.3-34.5-19-34.5-19l3.9-24c5.8 3.7 12.3 6.7 19.4 8.6 3.6 1.4 8.1 2.2 13.6 2h.1.1c5.5.2 9.9-.6 13.6-2 6.6-1.7 12.6-4.4 18.1-7.8z" fill="url(#b)"/><path d="m340.7 182.9c-1.7 7.2-5.5 12.9-9.4 14.8-1.7 4.7-14.9 40.1-43.5 57.6-5.5 3.4-11.5 6.1-18.1 7.8-3.6 1.4-8.1 2.2-13.6 2h-.1-.1c-5.5.2-9.9-.6-13.6-2-7.1-1.8-13.6-4.8-19.4-8.6-27.8-17.8-40.6-52.3-42.3-56.9-3.9-1.9-7.7-7.6-9.4-14.8-2.3-9.7-.1-18.5 5-19.8 1.4-.3 2.8-.1 4.2.7v-36.6h.1c0-1.9.1-3.8.2-5.6 2.9-39 35.4-69.8 75.2-69.8 40.6 0 73.7 32.1 75.3 72.3.1 1 .1 2 .1 3.1v36.6c1.4-.7 2.8-1 4.2-.7 5.3 1.4 7.5 10.2 5.2 19.9z" fill="url(#c)"/><path d="m197 412.3v2.9l-29.9 6.4-29.8-6.4v-2.9l29.8 6.4z" fill="#dbdbda"/><path d="m197 365.1v47.2l-29.9 6.4-29.8-6.4v-47.2z" fill="#e8e7e7"/><path d="m137.3 357.9h59.7v7.2h-59.7z" fill="#2da1c8"/><path d="m376.8 361.5v35.2h-59.7v-35.2h23.3v3.6h13.1v-3.6z" fill="#84d3ee"/><path d="m340.4 357.9h13.1v7.2h-13.1z" fill="#2da1c8"/><path d="m256 413.3v-11.1l-.3.8-36.7-123.7c-26.9 2.3-61.5 6.2-81.7 21.9-18.2 14.2-29.1 33.7-35.7 56.2-7.6 26.1-9.4 56.3-9.8 86.6 43.9 38.4 101.3 61.7 164.2 61.8v-39.1-15c-3.7-.4-6.6-3.5-6.6-7.4 0-3.8 2.9-7 6.6-7.4v-9c-3.7-.4-6.6-3.5-6.6-7.4 0-3.6 2.9-6.8 6.6-7.2zm-59 2-29.8 6.3-29.8-6.3v-57.4h59.6z" fill="#f9f9f9"/><path d="m418.7 406c-1.5-19.3-4.5-37.8-10.1-54.5-6.7-20-17.3-37.3-33.8-50.2-20.2-15.8-54.8-19.7-81.7-21.9l-9.1 30.6-.4 1.3-27.3 91.8-.3-.9v-.1 11.2h.8c4.1 0 7.4 3.3 7.4 7.4s-3.3 7.4-7.4 7.4c-.3 0-.5 0-.8 0v9h.8c4.1 0 7.4 3.3 7.4 7.4s-3.3 7.4-7.4 7.4c-.3 0-.5 0-.8 0v54.1h.4c62.7 0 120-23.1 163.8-61.2-.1-13.1-.5-26.1-1.5-38.8zm-41.9-9.3h-59.7v-35.2h23.3v-3.6h13.1v3.6h23.3z" fill="#e5e5e4"/><path d="m331.8 126.4c-.1-1.9-.2 21.2-.2 21.2s0 0 0 0v8.7s-25.5-44-32-52.4-8.4-8.1-16.2-1c-7.1 6.5-16.9 12.1-27.5 17-6.3 2.9-12.8 5.5-19.4 7.9-10.6 3.9-21.1 7.2-30 10.2-9.5 3.1-18.1 8.7-24.8 16.2l-1.9 2.1v-37h.1c0-.9 0-1.8.1-2.7 0-1 .1-2 .2-3 2.9-39.2 35.7-70.2 75.6-70.2 16.7 0 32.2 5.4 44.7 14.6 18.1 13.2 30.1 34.3 31 58.1v.2c0 .4.1 1.3.1 2.4.1 2.9.2 7.1.2 7.7z" fill="#c9a5c1"/></svg>