<?xml version="1.0" encoding="utf-8"?>
<svg version="1.1" id="Layer_1" xmlns="http://www.w3.org/2000/svg" xmlns:xlink="http://www.w3.org/1999/xlink" x="0px" y="0px"
	 viewBox="0 0 14 23" style="enable-background:new 0 0 14 23;" xml:space="preserve">
<style type="text/css">
	.st0{fill:#343638;}
</style>
<path id="Path_3630" class="st0" fill="#333" d="M0.7,12.9c-0.4,0-0.7-0.3-0.7-0.7c0-0.1,0-0.1,0-0.2L3.8,0.5C3.9,0.2,4.1,0,4.4,0H11
	c0.4,0,0.7,0.3,0.7,0.7c0,0.1,0,0.2-0.1,0.3L8.7,7.8h4.6c0.4,0,0.7,0.3,0.7,0.7c0,0.2-0.1,0.3-0.2,0.4L2.6,22.7
	c-0.2,0.3-0.7,0.3-1,0.1c-0.2-0.2-0.3-0.5-0.2-0.7l3-9.2H0.7z"/>
</svg>
