<?xml version="1.0" encoding="utf-8"?>
<!-- Generator: Adobe Illustrator 23.0.4, SVG Export Plug-In . SVG Version: 6.00 Build 0)  -->
<svg version="1.1" id="Layer_1" xmlns="http://www.w3.org/2000/svg" xmlns:xlink="http://www.w3.org/1999/xlink" x="0px" y="0px"
	 viewBox="0 0 9 15" style="enable-background:new 0 0 9 15;" xml:space="preserve">
<style type="text/css">
	.st0{fill:#343638;}
</style>
<path id="Path_3630" class="st0" d="M0.5,8.4C0.2,8.4,0,8.2,0,8c0,0,0-0.1,0-0.1l2.4-7.5C2.5,0.1,2.7,0,2.9,0h4.2
	c0.2,0,0.4,0.2,0.4,0.5c0,0.1,0,0.1,0,0.2L5.6,5.1h2.9C8.8,5.1,9,5.3,9,5.6c0,0.1,0,0.2-0.1,0.3l-7.2,9c-0.2,0.2-0.4,0.2-0.6,0.1
	c-0.1-0.1-0.2-0.3-0.1-0.5l1.9-6H0.5z"/>
</svg>
