<?xml version="1.0" standalone="no"?>
<!DOCTYPE svg PUBLIC "-//W3C//DTD SVG 1.1//EN" "http://www.w3.org/Graphics/SVG/1.1/DTD/svg11.dtd" >
<svg xmlns="http://www.w3.org/2000/svg">
<metadata></metadata>
<defs>
<font id="frutiger_black_cnregular" horiz-adv-x="1064" >
<font-face units-per-em="2048" ascent="1638" descent="-410" />
<missing-glyph horiz-adv-x="532" />
<glyph horiz-adv-x="2048" />
<glyph horiz-adv-x="2048" />
<glyph unicode="&#xd;" horiz-adv-x="532" />
<glyph unicode=" "  horiz-adv-x="532" />
<glyph unicode="&#x09;" horiz-adv-x="532" />
<glyph unicode="&#xa0;" horiz-adv-x="532" />
<glyph unicode="!" horiz-adv-x="794" d="M236 1430h323l-41 -975h-242zM250 0v307h295v-307h-295z" />
<glyph unicode="&#x22;" d="M180 1004v532h258v-532h-258zM627 1004v532h258v-532h-258z" />
<glyph unicode="#" d="M31 408v188h182l33 238h-156v188h182l58 408h188l-57 -408h203l57 408h188l-55 -408h180v-188h-207l-32 -238h180v-188h-207l-57 -408h-189l56 408h-203l-56 -408h-188l55 408h-155zM401 596h203l33 238h-203z" />
<glyph unicode="$" d="M66 1059q0 176 120 282q111 99 295 113v174h92v-174q195 -12 340 -59l-18 -254q-172 86 -322 86v-353q426 -92 426 -464q0 -195 -114.5 -305.5t-311.5 -129.5v-182h-92v182q-258 8 -383 58l23 272q172 -102 360 -102v397q-416 111 -415 459zM348 1069q0 -109 133 -170 v328q-133 -23 -133 -158zM573 203q143 33 144 190q-1 141 -144 182v-372z" />
<glyph unicode="%" horiz-adv-x="1744" d="M94 1038q0 416 307 416t308 -416q0 -416 -308 -415q-307 -1 -307 415zM307 1038q0 -113 8 -153q20 -98 86 -99q66 0 86 99q8 41 9 153q0 113 -9 154q-20 98 -86 98t-86 -98q-8 -41 -8 -154zM459 -68l647 1565h184l-647 -1565h-184zM1036 391q0 416 307 416t308 -416 q0 -416 -308 -416q-307 0 -307 416zM1249 391q0 -113 8 -153q20 -98 86 -99q66 0 87 99q8 41 8 153q0 113 -8 154q-20 98 -87 98q-66 0 -86 -98q-8 -41 -8 -154z" />
<glyph unicode="&#x26;" horiz-adv-x="1441" d="M109 410q0 270 253 397q-158 158 -157 311q0 115 78 205q113 131 354 131q170 0 281 -76q127 -86 126 -248q0 -208 -256 -374l193 -240q63 96 63 275h283q0 -283 -172 -492l227 -299h-352l-82 111q-113 -135 -344 -136q-211 0 -348 111q-147 119 -147 324zM424 412 q0 -78 60.5 -140.5t136.5 -62.5q117 0 180 78l-281 327q-45 -49 -63 -79q-33 -55 -33 -123zM487 1118q0 -78 129 -207q82 66 109 101q45 55 45 118q0 127 -137 127q-145 0 -146 -139z" />
<glyph unicode="'" horiz-adv-x="532" d="M137 1004v532h258v-532h-258z" />
<glyph unicode="(" horiz-adv-x="645" d="M92 631q0 274 88 520q56 157 193 397h248q-121 -197 -187.5 -440.5t-66.5 -476.5t66.5 -477t187.5 -441h-248q-137 240 -193 398q-88 246 -88 520z" />
<glyph unicode=")" horiz-adv-x="645" d="M25 -287q121 197 187.5 440.5t66.5 477.5q0 233 -66.5 476.5t-187.5 440.5h247q137 -240 193 -397q88 -246 88 -520t-88 -520q-55 -158 -193 -398h-247z" />
<glyph unicode="*" horiz-adv-x="1062" d="M145 1169l74 224l246 -131l-45 274h233l-43 -274l238 131l70 -224l-267 -47l197 -196l-197 -135l-116 245l-125 -245l-191 135l191 196z" />
<glyph unicode="+" horiz-adv-x="1228" d="M96 412v213h412v411h213v-411h412v-213h-412v-412h-213v412h-412z" />
<glyph unicode="," horiz-adv-x="532" d="M20 -225l99 532h307l-164 -532h-242z" />
<glyph unicode="-" horiz-adv-x="681" d="M86 463v250h510v-250h-510z" />
<glyph unicode="." horiz-adv-x="532" d="M119 0v307h295v-307h-295z" />
<glyph unicode="/" horiz-adv-x="606" d="M29 -25l336 1479h213l-336 -1479h-213z" />
<glyph unicode="0" d="M61 715q0 319 78 491q113 248 393 248q281 0 394 -248q78 -172 78 -491t-78 -492q-113 -248 -394 -248t-393 248q-78 173 -78 492zM377 715q0 -506 155 -506q156 0 156 506t-156 506q-155 0 -155 -506z" />
<glyph unicode="1" d="M102 1106l402 324h258v-1430h-324v1053l-184 -179z" />
<glyph unicode="2" d="M96 0v250l367 412q156 199 155 335q0 86 -53 138.5t-139 52.5q-131 0 -283 -113l-22 297q272 82 422 82q178 0 294.5 -113.5t116.5 -289.5q0 -324 -446 -752l-51 -49h512v-250h-873z" />
<glyph unicode="3" d="M80 37l14 262q207 -74 285 -74q102 0 170 45q78 53 78 150q0 117 -76 160q-57 35 -180 34h-99v234q147 0 222 22q129 39 129 152q0 86 -66 137q-57 45 -147 45q-66 0 -281 -69l-16 254q231 66 424 65q176 0 290 -102q119 -109 119 -283q0 -217 -284 -319v-5 q145 -18 223 -113t78 -243q0 -209 -183 -321q-154 -92 -377 -93q-61 0 -165 19q-111 20 -158 43z" />
<glyph unicode="4" d="M37 276v295l483 859h352v-920h156v-234h-156v-276h-307v276h-528zM258 510h320v584h-5z" />
<glyph unicode="5" d="M94 41l17 254q176 -70 266 -70q106 0 182 65.5t76 170.5q0 135 -105 201q-76 47 -180 47q-69 0 -225 -39v760h782v-242h-499v-266q82 8 122 8q219 0 330 -127t111 -348q0 -219 -158 -353q-147 -127 -371 -127q-178 0 -348 66z" />
<glyph unicode="6" d="M63 662q0 330 113 534q143 258 449 258q127 0 305 -57l-19 -248q-154 63 -237 63q-168 0 -240 -135q-53 -96 -63 -284h4q100 123 243 122q186 0 291 -153q92 -135 92 -330q0 -141 -73 -262q-119 -195 -377 -195q-487 0 -488 687zM387 422q0 -219 145 -219t146 246 q-1 225 -146 225t-145 -252z" />
<glyph unicode="7" d="M102 1180v250h861v-283l-420 -1147h-353l457 1180h-545z" />
<glyph unicode="8" d="M55 375q0 135 71 232.5t200 127.5v4q-109 31 -174 138q-60 98 -60 217q0 172 137 272q123 88 303 88q219 0 338 -135q92 -104 93 -232q0 -104 -70 -198t-168 -125v-4q94 -20 174 -103q111 -115 111 -282q0 -197 -148 -305q-131 -94 -336 -95q-242 0 -370 144 q-100 113 -101 256zM371 387q0 -76 46 -130t120 -54q68 0 112.5 56t44.5 126q0 104 -61 170q-35 39 -117 82q-145 -84 -145 -250zM387 1069q0 -162 160 -219q121 78 121 211q0 72 -39 119t-109 47q-61 0 -97 -47.5t-36 -110.5z" />
<glyph unicode="9" d="M63 997q0 141 74 263q119 195 377 194q487 0 487 -686q0 -330 -112 -535q-143 -258 -449 -258q-127 1 -305 58l19 248q154 -63 237 -64q168 0 240 135q53 96 63 285h-4q-100 -123 -244 -123q-186 0 -290 154q-92 135 -93 329zM387 981q0 -225 145 -225t146 252 q0 219 -146 219q-145 0 -145 -246z" />
<glyph unicode=":" horiz-adv-x="532" d="M119 0v307h295v-307h-295zM119 760v307h295v-307h-295z" />
<glyph unicode=";" horiz-adv-x="532" d="M20 -225l99 532h307l-164 -532h-242zM119 760v307h295v-307h-295z" />
<glyph unicode="&#x3c;" horiz-adv-x="1228" d="M96 430v176l1037 447v-205l-762 -330l762 -330v-204z" />
<glyph unicode="=" horiz-adv-x="1228" d="M96 188v213h1037v-213h-1037zM96 635v213h1037v-213h-1037z" />
<glyph unicode="&#x3e;" horiz-adv-x="1228" d="M96 -16v204l762 330l-762 330v205l1037 -447v-176z" />
<glyph unicode="?" horiz-adv-x="948" d="M102 1395q150 59 332 59q201 0 320 -80q137 -94 137 -287q0 -121 -72 -243q-10 -16 -133 -191q-72 -100 -72 -164v-32h-274v69q0 84 107.5 244t107.5 254q0 172 -199 172q-117 0 -241 -66zM328 0v307h295v-307h-295z" />
<glyph unicode="@" horiz-adv-x="1638" d="M80 715q0 322 233 534q225 205 551 205q276 0 471 -143q223 -166 224 -459q0 -274 -201 -416q-145 -102 -297 -102q-111 0 -139 100h-4q-72 -100 -201 -100q-133 0 -221 104q-84 98 -84 236q0 193 105.5 311.5t295.5 118.5q123 0 211 -103l14 82h195l-84 -432 q-14 -74 -14 -98q0 -55 55 -55q109 0 164 129q41 94 41 219q0 225 -160 336q-137 96 -371 96q-240 0 -405.5 -162t-165.5 -401q0 -242 143 -400q150 -164 387 -163q322 0 473 141h174q-215 -317 -647 -318q-293 0 -506 185q-238 207 -237 555zM596 692q0 -86 43 -137 q45 -57 129 -57q92 0 150 75q53 68 53 164q0 203 -178 203q-92 0 -148 -80q-49 -72 -49 -168z" />
<glyph unicode="A" horiz-adv-x="1327" d="M12 0l475 1430h369l459 -1430h-344l-88 319h-449l-98 -319h-324zM496 561h321l-147 594h-4z" />
<glyph unicode="B" horiz-adv-x="1175" d="M135 0v1430h533q174 0 280 -91q115 -96 115 -266q0 -152 -98 -246q-74 -72 -160 -82v-4q287 -57 287 -346q0 -231 -191 -334q-115 -61 -252 -61h-514zM459 242h94q215 0 215 184q0 188 -180 188h-129v-372zM459 848h82q198 0 198 174q0 82 -55 128t-137 46h-88v-348z" />
<glyph unicode="C" horiz-adv-x="1175" d="M94 721q0 360 213 563q180 170 430 170q207 0 377 -70l-16 -278q-145 82 -291 82q-186 0 -285 -148q-84 -127 -84 -323q0 -186 92 -318q103 -149 281 -149h2q111 0 197 33q14 6 96 43l12 -299q-160 -51 -358 -52q-311 0 -496 222q-170 205 -170 524z" />
<glyph unicode="D" horiz-adv-x="1366" d="M135 0v1430h508q315 0 483 -209q156 -193 156 -519q0 -324 -180 -513t-502 -189h-465zM471 250h107q184 0 276 139q76 119 76 313q0 477 -373 478h-86v-930z" />
<glyph unicode="E" horiz-adv-x="1062" d="M135 0v1430h826v-250h-502v-320h477v-250h-477v-360h526v-250h-850z" />
<glyph unicode="F" horiz-adv-x="985" d="M135 0v1430h793v-250h-469v-332h450v-250h-450v-598h-324z" />
<glyph unicode="G" horiz-adv-x="1366" d="M94 723q0 301 166 498q197 233 576 233q174 0 374 -57l-20 -281q-174 80 -328 80q-233 0 -344 -182q-80 -131 -80 -305q0 -201 86 -328q100 -147 293 -148q76 0 117 21v324h-189v241h504v-768q-166 -76 -473 -76q-262 0 -440 144q-242 195 -242 604z" />
<glyph unicode="H" horiz-adv-x="1290" d="M135 0v1430h336v-570h348v570h336v-1430h-336v594h-348v-594h-336z" />
<glyph unicode="I" horiz-adv-x="606" d="M135 0v1430h336v-1430h-336z" />
<glyph unicode="J" horiz-adv-x="796" d="M35 16l12 273q80 -27 117 -27q162 0 162 205v963h336v-963q0 -492 -402 -492q-123 0 -225 41z" />
<glyph unicode="K" horiz-adv-x="1251" d="M135 0v1430h336v-590h4l352 590h377l-442 -670l477 -760h-401l-363 655h-4v-655h-336z" />
<glyph unicode="L" horiz-adv-x="985" d="M135 0v1430h336v-1172h473v-258h-809z" />
<glyph unicode="M" horiz-adv-x="1744" d="M135 0v1430h506l231 -920h5l249 920h484v-1430h-307v1130h-5l-321 -1130h-221l-310 1130h-4v-1130h-307z" />
<glyph unicode="N" horiz-adv-x="1366" d="M129 0v1430h393l416 -992h4v992h295v-1430h-397l-412 1034h-4v-1034h-295z" />
<glyph unicode="O" horiz-adv-x="1402" d="M94 715q0 317 142 514q160 225 464 225q307 0 467 -223q141 -197 142 -516q0 -319 -142 -516q-160 -223 -467 -224q-305 0 -464 226q-142 197 -142 514zM438 715q0 -498 262 -498q264 0 265 498q0 497 -264 497h-1h-1q-261 0 -261 -497z" />
<glyph unicode="P" horiz-adv-x="1138" d="M135 0v1430h457q489 0 489 -455q0 -211 -118.5 -332t-329.5 -121h-162v-522h-336zM459 772h106q88 0 134 57.5t46 147.5q0 203 -198 203h-88v-408z" />
<glyph unicode="Q" horiz-adv-x="1402" d="M94 715q0 317 142 514q160 225 464 225q307 0 467 -223q141 -197 142 -516q0 -207 -66 -375q-78 -201 -233 -291l280 -330h-372l-183 256h-35q-305 0 -464 226q-141 197 -142 514zM438 715q0 -498 262 -498q264 0 265 498q0 497 -264 497h-1h-1q-261 0 -261 -497z" />
<glyph unicode="R" horiz-adv-x="1214" d="M135 0v1430h524q193 0 308 -87q129 -96 129 -282q0 -293 -285 -350v-4q86 -10 135 -84q29 -43 64 -156l147 -467h-352l-111 383q-39 135 -86 170q-35 25 -137 25v-578h-336zM459 819h104q88 0 142.5 50.5t54.5 138.5q0 180 -199 180h-102v-369z" />
<glyph unicode="S" horiz-adv-x="1099" d="M96 1047q0 117 68 219q125 188 428 188q109 0 336 -49l-15 -266q-141 73 -278 73h-4q-190 0 -191 -155q0 -102 146 -170q231 -109 272 -142q145 -117 146 -335q0 -207 -150 -326q-137 -109 -350 -109q-186 0 -385 60l18 278q49 -20 148 -59q78 -29 166 -29q86 0 143 41 q66 47 65 129q0 109 -145 178q-242 115 -272 140q-145 115 -146 334z" />
<glyph unicode="T" horiz-adv-x="1024" d="M33 1171v259h958v-259h-311v-1171h-336v1171h-311z" />
<glyph unicode="U" horiz-adv-x="1290" d="M121 518v912h336v-965q0 -231 188 -232q188 0 189 232v965h335v-912q0 -256 -135 -399.5t-389 -143.5t-389 143.5t-135 399.5z" />
<glyph unicode="V" horiz-adv-x="1251" d="M16 1430h361l252 -1043h4l258 1043h344l-432 -1430h-361z" />
<glyph unicode="W" horiz-adv-x="1744" d="M12 1430h324l172 -1016h4l170 1016h393l174 -1016h4l185 1016h295l-281 -1430h-393l-185 1110h-4l-178 -1110h-393z" />
<glyph unicode="X" horiz-adv-x="1251" d="M14 0l414 758l-367 672h377l195 -449l215 449h360l-374 -672l403 -758h-377l-227 512l-258 -512h-361z" />
<glyph unicode="Y" horiz-adv-x="1212" d="M4 1430h385l229 -553l213 553h377l-434 -889v-541h-336v547z" />
<glyph unicode="Z" horiz-adv-x="1062" d="M61 0v274l555 897h-540v259h917v-263l-555 -909h563v-258h-940z" />
<glyph unicode="[" horiz-adv-x="645" d="M147 -287v1835h437v-205h-187v-1425h187v-205h-437z" />
<glyph unicode="\" horiz-adv-x="606" d="M29 1454h213l336 -1479h-213z" />
<glyph unicode="]" horiz-adv-x="645" d="M61 -82h187v1425h-187v205h437v-1835h-437v205z" />
<glyph unicode="^" horiz-adv-x="1228" d="M135 641l381 789h197l381 -789h-213l-267 576l-266 -576h-213z" />
<glyph unicode="_" horiz-adv-x="1024" d="M0 -154h1024v-102h-1024v102z" />
<glyph unicode="`" horiz-adv-x="454" d="M-6 1487h282l111 -299h-188z" />
<glyph unicode="a" horiz-adv-x="1099" d="M70 307q0 358 528 359h98q0 204 -196 204h-2q-139 0 -297 -94l-15 240q210 67 340 67h4q233 0 340 -79q121 -92 121 -314v-389q0 -205 8 -301h-294l-9 147h-4q-16 -72 -121 -120q-90 -43 -172 -43q-147 0 -238 88t-91 235zM504 188q100 0 151 86q41 70 41 179v61 q-331 0 -331 -185q0 -140 139 -141z" />
<glyph unicode="b" horiz-adv-x="1175" d="M104 0q9 99 9 240v1296h323v-627h4q70 174 275 174q203 0 299 -170q76 -135 76 -354q0 -223 -76 -377q-98 -198 -297 -198h-2q-197 0 -291 186h-4q0 -88 -8 -170h-308zM436 532q0 -115 29 -196q41 -119 133 -119q156 0 156 315q0 143 -19 207q-33 123 -137 123 q-162 0 -162 -330z" />
<glyph unicode="c" horiz-adv-x="909" d="M70 522q0 254 137 404q140 157 388 157h3q88 0 258 -51l-16 -244q-119 45 -189 46q-129 0 -192 -97q-53 -82 -53 -215q0 -131 65 -211q70 -86 197 -86q63 0 188 47l10 -243q-172 -45 -293 -45q-272 0 -405 196q-98 145 -98 342z" />
<glyph unicode="d" horiz-adv-x="1175" d="M86 559q0 219 76 354q96 170 299 170q205 0 274 -174h4v627h324v-1296q0 -141 8 -240h-307q-8 82 -8 170h-4q-92 -186 -291 -186q-201 0 -299 198q-76 154 -76 377zM422 532q0 -315 156 -315q92 0 133 119q28 79 28 188v8q0 330 -161 330q-104 0 -138 -123 q-18 -64 -18 -207z" />
<glyph unicode="e" horiz-adv-x="1099" d="M86 537q0 225 121 378q131 168 352 168q463 0 463 -557v-77h-629q0 -115 76 -181q70 -63 188 -63q145 0 301 84l7 -244q-166 -61 -338 -61q-264 0 -402.5 143t-138.5 410zM393 625h334q0 262 -168 262q-166 0 -166 -262z" />
<glyph unicode="f" horiz-adv-x="757" d="M18 840v227h187v174q0 319 334 320q72 0 211 -25l-9 -225q-37 16 -84 16q-76 0 -102.5 -33.5t-26.5 -111.5v-115h195v-227h-195v-840h-323v840h-187z" />
<glyph unicode="g" horiz-adv-x="1175" d="M86 532q0 223 76 367q98 184 303 184t287 -186h4l8 170h307q-8 -99 -8 -240v-698q0 -584 -543 -584q-174 0 -385 64l10 264q182 -94 336 -94q174 0 230 121q37 80 37 288h-5q-27 -84 -107.5 -136t-172.5 -52q-201 0 -299 174q-78 141 -78 358zM422 535q0 -307 156 -308 q162 0 161 308q0 315 -159 315q-158 0 -158 -315z" />
<glyph unicode="h" horiz-adv-x="1138" d="M113 0v1536h323v-627h4q27 84 107 131q72 43 166 43q313 0 313 -385v-698h-324v657q0 168 -124 168q-141 0 -142 -227v-598h-323z" />
<glyph unicode="i" horiz-adv-x="569" d="M123 0v1067h323v-1067h-323zM123 1249v287h323v-287h-323z" />
<glyph unicode="j" horiz-adv-x="569" d="M-51 -424l8 213q20 -10 55 -10q111 0 111 151v1137h323v-1128q0 -393 -311 -394q-117 0 -186 31zM123 1249v287h323v-287h-323z" />
<glyph unicode="k" horiz-adv-x="1099" d="M123 0v1536h323v-901h5l270 432h336l-334 -489l356 -578h-360l-268 506h-5v-506h-323z" />
<glyph unicode="l" horiz-adv-x="569" d="M123 0v1536h323v-1536h-323z" />
<glyph unicode="m" horiz-adv-x="1708" d="M104 1067h295q8 -94 9 -178h4q82 194 299 194h2q201 0 276 -178q84 178 293 178q313 0 313 -385v-698h-323v657q0 168 -123 168q-133 0 -133 -149v-676h-324v657q0 168 -112 168q-143 0 -144 -227v-598h-323v844q0 150 -9 223z" />
<glyph unicode="n" horiz-adv-x="1138" d="M104 1067h295q8 -94 9 -178h4q82 194 299 194h2q313 0 313 -385v-698h-324v657q0 168 -124 168q-141 0 -142 -227v-598h-323v844q0 150 -9 223z" />
<glyph unicode="o" horiz-adv-x="1175" d="M86 537q0 246 127 391q132 155 372 155h3q244 0 377 -153q125 -147 125 -393q0 -248 -125 -396q-132 -157 -374 -157h-3q-242 0 -375 157q-127 150 -127 396zM422 537q0 -332 166 -332t166 332q0 325 -165 325h-1h-1q-165 0 -165 -325z" />
<glyph unicode="p" horiz-adv-x="1175" d="M104 1067h308q8 -82 8 -170h4q94 186 291 186q201 0 299 -198q76 -154 76 -377q0 -217 -78 -354q-96 -170 -297 -170q-205 0 -275 174h-4v-600h-323v1269q0 141 -9 240zM436 535q0 -330 162 -330q104 0 137 123q19 64 19 207q0 315 -156 315q-162 0 -162 -315z" />
<glyph unicode="q" horiz-adv-x="1175" d="M86 508q0 223 76 377q98 198 297 198h2q199 0 291 -186h4q0 88 8 170h307q-8 -99 -8 -240v-1269h-324v600h-4q-70 -174 -274 -174q-201 0 -297 170q-78 137 -78 354zM422 535q0 -143 18 -207q33 -123 138 -123q161 0 161 326q0 319 -161 319q-156 0 -156 -315z" />
<glyph unicode="r" horiz-adv-x="796" d="M104 1067h295q8 -123 9 -193h4q68 117 102 148q68 61 195 61h47v-299q-51 12 -109 13q-129 0 -178 -103q-33 -72 -33 -217v-477h-323v844q0 150 -9 223z" />
<glyph unicode="s" horiz-adv-x="872" d="M59 764q0 117 80 203q105 116 316 116h4q172 0 297 -43l-8 -241q-141 57 -261 57t-120 -77q0 -50 45 -79q35 -23 178 -75q223 -82 223 -312q0 -168 -117 -254q-101 -75 -271 -75h-5q-209 0 -350 51l8 250q121 -74 266 -74q162 0 162 100q0 33 -57.5 57.5t-165.5 67.5 q-223 92 -224 328z" />
<glyph unicode="t" horiz-adv-x="796" d="M29 840v227h184v219l315 100v-319h209v-227h-209v-490q0 -133 109 -133q55 0 106 23v-228q-73 -28 -215 -28h-10q-313 0 -313 315v541h-176z" />
<glyph unicode="u" horiz-adv-x="1138" d="M113 369v698h323v-657q0 -168 125 -168q141 0 141 227v598h324v-844q0 -150 8 -223h-295q-8 94 -8 178h-4q-82 -194 -299 -194h-2q-313 0 -313 385z" />
<glyph unicode="v" horiz-adv-x="1062" d="M8 1067h336l197 -760h4l194 760h316l-334 -1067h-381z" />
<glyph unicode="w" horiz-adv-x="1630" d="M10 1067h324l155 -760h5l151 760h369l145 -760h4l150 760h307l-285 -1067h-344l-174 780h-4l-164 -780h-352z" />
<glyph unicode="x" horiz-adv-x="1062" d="M10 0l334 569l-303 498h360l150 -319l145 319h336l-303 -498l324 -569h-361l-166 358l-180 -358h-336z" />
<glyph unicode="y" horiz-adv-x="1062" d="M10 1067h336l199 -723h4l188 723h316l-377 -1165q-115 -356 -373 -357q-104 0 -194 27l10 240q41 -25 102 -25q76 0 121 72q39 61 39 141z" />
<glyph unicode="z" horiz-adv-x="872" d="M55 0v266l408 559h-395v242h739v-264l-399 -561h409v-242h-762z" />
<glyph unicode="{" horiz-adv-x="681" d="M37 543v176q82 0 127 53t45 137v363q0 127 88 203q82 74 211 73h154v-164h-93q-66 0 -88 -47q-14 -29 -14 -102v-354q0 -227 -229 -248v-4q229 -20 229 -262v-340q0 -72 14 -103q23 -47 88 -47h93v-164h-154q-131 0 -215 74t-84 203v348q0 88 -43 146.5t-129 58.5z" />
<glyph unicode="|" horiz-adv-x="454" d="M121 -512v2048h213v-2048h-213z" />
<glyph unicode="}" horiz-adv-x="681" d="M20 -123h93q66 0 88 47q14 31 14 103v340q0 242 229 262v4q-229 20 -229 248v354q0 74 -14 102q-23 47 -88 47h-93v164h154q129 0 214 -74.5t85 -201.5v-363q0 -84 45 -137t127 -53v-176q-86 0 -129 -58.5t-43 -146.5v-348q0 -131 -83 -204t-216 -73h-154v164z" />
<glyph unicode="~" horiz-adv-x="1228" d="M141 516q94 180 248 180q92 0 240.5 -71.5t214.5 -71.5q72 0 170 145l73 -178q-106 -180 -235 -180q-88 0 -235.5 71.5t-225.5 71.5q-108 0 -176 -145z" />
<glyph unicode="&#xa1;" horiz-adv-x="794" d="M236 -362l40 974h242l41 -974h-323zM250 760v307h295v-307h-295z" />
<glyph unicode="&#xa2;" d="M135 518q0 252 139.5 408.5t389.5 156.5h28l35 234h111l-35 -250q23 -6 119 -37l-17 -246q-84 33 -137 41l-88 -600q25 -6 53 -6q66 0 187 47l10 -246q-156 -43 -287 -45l-37 -251h-110l39 260q-217 37 -322 221q-78 137 -78 313zM471 518q0 -170 102 -248l82 555 q-184 -41 -184 -307z" />
<glyph unicode="&#xa3;" d="M82 0v242h143v422h-143v184h143v129q0 477 488 477q133 0 264 -35l-12 -241q-117 43 -203 43q-229 0 -230 -265v-108h312v-184h-312v-422h451v-242h-901z" />
<glyph unicode="&#xa4;" d="M37 332l108 108q-86 129 -86 275q0 143 86 274l-108 109l113 112l108 -108q127 86 274 86q143 0 275 -86l108 108l113 -112l-108 -109q86 -127 86 -274q0 -141 -86 -275l108 -108l-113 -113l-108 109q-131 -86 -275 -86q-143 0 -274 86l-108 -109zM272 715 q0 -113 73.5 -195t186.5 -82t187 82t74 195t-74 194.5t-187 81.5t-186.5 -82t-73.5 -194z" />
<glyph unicode="&#xa5;" d="M20 1430h308l211 -599h4l194 599h307l-262 -639h189v-213h-277l-14 -37v-99h291v-213h-291v-229h-295v229h-291v213h291v105l-14 31h-277v213h191z" />
<glyph unicode="&#xa6;" horiz-adv-x="454" d="M121 -358v716h213v-716h-213zM121 666v716h213v-716h-213z" />
<glyph unicode="&#xa7;" horiz-adv-x="1062" d="M109 610q0 78 53 169t125 108q-145 104 -146 258q0 150 129 235q111 74 269 74q188 0 338 -57l-23 -236q-158 72 -264 72q-141 0 -141 -107q0 -53 61 -94q55 -29 108 -57q193 -104 248 -158q88 -84 88 -217q0 -96 -55 -176q-29 -41 -104 -107q125 -78 125 -237 q0 -170 -138 -266q-119 -82 -299 -82q-164 0 -360 75l24 242q205 -90 304 -90q59 0 106 32t47 89q0 78 -129 149l-141 78q-225 125 -225 303zM375 666q0 -129 256 -248q57 57 57 137q0 125 -252 246q-61 -61 -61 -135z" />
<glyph unicode="&#xa8;" horiz-adv-x="454" d="M-70 1239v258h242v-258h-242zM283 1239v258h241v-258h-241z" />
<glyph unicode="&#xa9;" horiz-adv-x="1638" d="M80 715q0 307 216 523t523 216t523.5 -216t216.5 -523t-216.5 -523.5t-523.5 -216.5t-523 216.5t-216 523.5zM293 715q0 -238 143 -398q147 -166 383 -165q233 0 383 165q143 162 144 398q0 236 -146 395q-150 168 -381 168q-233 0 -379.5 -163t-146.5 -400zM438 721 q0 188 107.5 312t294.5 124q143 0 237 -83t115 -224h-164q-27 143 -188 143q-111 0 -168 -82q-49 -72 -49 -188q0 -109 53 -186q59 -88 164 -88q172 0 188 147h164q-23 -139 -118 -225t-234 -86q-180 0 -293 129q-109 123 -109 307z" />
<glyph unicode="&#xaa;" horiz-adv-x="714" d="M51 995q0 209 344 209h66q0 115 -125 115q-92 0 -193 -57l-10 153q150 39 223 39q147 0 217 -45q84 -53 84 -190v-228q0 -137 7 -180h-197l-6 86h-4q-8 -41 -80 -70q-61 -25 -111 -24q-92 0 -153.5 51t-61.5 141zM248 1001q0 -76 90 -75q123 0 123 151v35 q-213 0 -213 -111z" />
<glyph unicode="&#xab;" d="M74 532l202 424h256l-184 -424l184 -423h-256zM494 532l202 424h256l-184 -424l184 -423h-256z" />
<glyph unicode="&#xac;" horiz-adv-x="1228" d="M96 635v213h1037v-627h-213v414h-824z" />
<glyph unicode="&#xad;" horiz-adv-x="681" d="M86 463v250h510v-250h-510z" />
<glyph unicode="&#xae;" horiz-adv-x="1638" d="M80 715q0 307 216 523t523 216t523.5 -216t216.5 -523t-216.5 -523.5t-523.5 -216.5t-523 216.5t-216 523.5zM293 715q0 -238 143 -398q147 -166 383 -165q233 0 383 165q143 162 144 398q0 236 -146 395q-150 168 -381 168q-233 0 -379.5 -162.5t-146.5 -400.5zM535 324 v792h284q303 0 303 -237q0 -193 -188 -211l201 -344h-189l-176 335h-72v-335h-163zM698 795h123q137 0 137 100q0 86 -155 86h-105v-186z" />
<glyph unicode="&#xaf;" horiz-adv-x="454" d="M-74 1251v176h602v-176h-602z" />
<glyph unicode="&#xb0;" horiz-adv-x="819" d="M78 1122q0 137 97 234.5t235 97.5q137 0 234 -97t97 -235q0 -137 -97 -234t-234 -97t-234.5 97t-97.5 234zM242 1122q0 -70 49 -119t119 -49t119 49.5t49 118.5q0 70 -49.5 119t-118.5 49q-70 0 -119 -49t-49 -119z" />
<glyph unicode="&#xb1;" horiz-adv-x="1228" d="M96 0v213h1037v-213h-1037zM96 553v213h412v270h213v-270h412v-213h-412v-270h-213v270h-412z" />
<glyph unicode="&#xb2;" horiz-adv-x="692" d="M57 578v153l238 246q100 119 100 194q0 51 -36.5 79t-88.5 28q-90 0 -182 -68l-16 195q182 49 274 49q117 0 200 -63.5t83 -178.5t-115 -262q-45 -57 -176 -188l-21 -21h318v-163h-578z" />
<glyph unicode="&#xb3;" horiz-adv-x="692" d="M53 606l10 172q127 -45 183 -45q59 0 104 25q55 31 56 84q0 102 -164 102h-66v152q229 0 230 90q0 51 -42 77.5t-98 26.5q-43 0 -182 -43l-10 168q150 39 286 39q111 0 189 -61.5t78 -169.5q0 -131 -185 -191v-4q197 -25 197 -213q0 -125 -125 -192q-102 -53 -240 -54 q-135 0 -221 37z" />
<glyph unicode="&#xb4;" horiz-adv-x="454" d="M68 1188l110 299h283l-205 -299h-188z" />
<glyph unicode="&#xb6;" horiz-adv-x="1269" d="M86 1057q0 221 143 307q111 66 349 66h518v-1684h-213v1520h-217v-1520h-213v952q-160 0 -263.5 100.5t-103.5 258.5z" />
<glyph unicode="&#xb7;" horiz-adv-x="532" d="M109 569q0 70 44 114t113 44q70 0 114 -44t44 -114t-44 -113.5t-114 -43.5t-113.5 44t-43.5 113z" />
<glyph unicode="&#xb8;" horiz-adv-x="454" d="M0 -412l39 95q78 -35 145 -35q104 0 105 86q0 68 -88 67q-43 0 -76 -16l-45 37l110 192h111l-78 -129q31 10 70 11q76 0 124 -45.5t48 -118.5q0 -88 -82 -142q-70 -45 -164 -45q-160 0 -219 43z" />
<glyph unicode="&#xb9;" horiz-adv-x="692" d="M35 1245l260 201h184v-868h-227v634l-117 -106z" />
<glyph unicode="&#xba;" horiz-adv-x="757" d="M51 1135q0 150 89 234.5t239 84.5q152 0 240 -85t88 -234q0 -154 -87.5 -243t-240.5 -89q-154 0 -241 89t-87 243zM272 1135q1 -197 107 -197t106 197q0 184 -106 184t-107 -184z" />
<glyph unicode="&#xbb;" d="M113 109l184 423l-184 424h256l202 -424l-202 -423h-256zM532 109l185 423l-185 424h256l203 -424l-203 -423h-256z" />
<glyph unicode="&#xbc;" horiz-adv-x="1593" d="M35 1245l260 201h184v-868h-227v634l-117 -106zM346 -68l645 1565h185l-646 -1565h-184zM862 156v186l314 526h249v-561h86v-151h-86v-156h-221v156h-342zM1026 307h186v340h-4z" />
<glyph unicode="&#xbd;" horiz-adv-x="1593" d="M35 1245l260 201h184v-868h-227v634l-117 -106zM309 -68l645 1565h185l-645 -1565h-185zM934 0v154l237 245q100 119 101 195q0 51 -37 78.5t-88 27.5q-90 0 -182 -67l-17 194q182 49 275 50q117 0 199.5 -63.5t82.5 -178.5t-114 -262q-45 -57 -177 -189l-20 -20h317 v-164h-577z" />
<glyph unicode="&#xbe;" horiz-adv-x="1593" d="M53 606l10 172q127 -45 183 -45q59 0 104 25q55 31 56 84q0 102 -164 102h-66v152q229 0 230 90q0 51 -42 77.5t-98 26.5q-43 0 -182 -43l-10 168q150 39 286 39q111 0 189 -61.5t78 -169.5q0 -131 -185 -191v-4q197 -25 197 -213q0 -125 -125 -192q-102 -53 -240 -54 q-135 0 -221 37zM383 -68l645 1565h184l-645 -1565h-184zM862 156v186l314 526h249v-561h86v-151h-86v-156h-221v156h-342zM1026 307h186v340h-4z" />
<glyph unicode="&#xbf;" horiz-adv-x="948" d="M57 -20q0 123 72 243q10 16 133 191q72 100 72 164v32h274v-69q0 -82 -107.5 -242t-107.5 -256q0 -172 199 -172q117 0 242 66l12 -265q-147 -59 -332 -59q-201 0 -319 80q-137 94 -138 287zM326 760v307h295v-307h-295z" />
<glyph unicode="&#xc0;" horiz-adv-x="1327" d="M12 0l475 1430h369l459 -1430h-344l-88 319h-449l-98 -319h-324zM430 1819h282l111 -299h-188zM496 561h321l-147 594h-4z" />
<glyph unicode="&#xc1;" horiz-adv-x="1327" d="M12 0l475 1430h369l459 -1430h-344l-88 319h-449l-98 -319h-324zM496 561h321l-147 594h-4zM504 1520l110 299h283l-205 -299h-188z" />
<glyph unicode="&#xc2;" horiz-adv-x="1327" d="M12 0l475 1430h369l459 -1430h-344l-88 319h-449l-98 -319h-324zM358 1520l158 299h295l157 -299h-204l-101 176l-100 -176h-205zM496 561h321l-147 594h-4z" />
<glyph unicode="&#xc3;" horiz-adv-x="1327" d="M12 0l475 1430h369l459 -1430h-344l-88 319h-449l-98 -319h-324zM342 1549q6 96 51 165q55 84 143 84q55 0 139.5 -36.5t102.5 -36.5q45 0 55 73h152q0 -61 -29 -131q-49 -119 -166 -118q-49 0 -135 36.5t-106 36.5q-56 1 -56 -73h-151zM496 561h321l-147 594h-4z" />
<glyph unicode="&#xc4;" horiz-adv-x="1327" d="M12 0l475 1430h369l459 -1430h-344l-88 319h-449l-98 -319h-324zM366 1556v258h242v-258h-242zM496 561h321l-147 594h-4zM719 1556v258h241v-258h-241z" />
<glyph unicode="&#xc5;" horiz-adv-x="1327" d="M12 0l475 1430h369l459 -1430h-344l-88 319h-449l-98 -319h-324zM436 1716q0 94 66.5 161t160.5 67t161 -66.5t67 -161.5q0 -94 -66.5 -160.5t-161.5 -66.5q-94 0 -160.5 66.5t-66.5 160.5zM496 561h321l-147 594h-4zM547 1716q0 -47 34.5 -81.5t81.5 -34.5t82 34.5 t35 81.5t-35 82t-82 35t-81.5 -35t-34.5 -82z" />
<glyph unicode="&#xc6;" horiz-adv-x="1781" d="M12 0l654 1430h1001v-250h-467v-320h438v-250h-438v-360h488v-250h-803v319h-387l-133 -319h-353zM598 561h287v647h-4z" />
<glyph unicode="&#xc7;" horiz-adv-x="1175" d="M94 721q0 360 213 563q180 170 430 170q207 0 377 -70l-16 -278q-145 82 -291 82q-186 0 -285 -148q-84 -127 -84 -323q0 -186 92 -318q104 -150 283 -149q111 0 197 33q14 6 96 43l12 -299q-160 -51 -358 -52h-27l-55 -90q31 10 70 11q76 0 124 -45.5t48 -118.5 q0 -88 -82 -142q-70 -45 -164 -45q-160 0 -219 43l39 95q78 -35 145 -35q104 0 104 86q0 68 -88 67q-43 0 -75 -16l-45 37l96 166q-262 47 -406 260q-131 197 -131 473z" />
<glyph unicode="&#xc8;" horiz-adv-x="1062" d="M135 0v1430h826v-250h-502v-320h477v-250h-477v-360h526v-250h-850zM299 1819h282l111 -299h-188z" />
<glyph unicode="&#xc9;" horiz-adv-x="1062" d="M135 0v1430h826v-250h-502v-320h477v-250h-477v-360h526v-250h-850zM373 1520l110 299h283l-205 -299h-188z" />
<glyph unicode="&#xca;" horiz-adv-x="1062" d="M135 0v1430h826v-250h-502v-320h477v-250h-477v-360h526v-250h-850zM227 1520l158 299h295l157 -299h-204l-101 176l-100 -176h-205z" />
<glyph unicode="&#xcb;" horiz-adv-x="1062" d="M135 0v1430h826v-250h-502v-320h477v-250h-477v-360h526v-250h-850zM235 1556v258h242v-258h-242zM588 1556v258h241v-258h-241z" />
<glyph unicode="&#xcc;" horiz-adv-x="606" d="M70 1819h282l111 -299h-188zM135 0v1430h336v-1430h-336z" />
<glyph unicode="&#xcd;" horiz-adv-x="606" d="M135 0v1430h336v-1430h-336zM144 1520l110 299h283l-205 -299h-188z" />
<glyph unicode="&#xce;" horiz-adv-x="606" d="M-2 1520l158 299h295l157 -299h-204l-101 176l-100 -176h-205zM135 0v1430h336v-1430h-336z" />
<glyph unicode="&#xcf;" horiz-adv-x="606" d="M6 1556v258h242v-258h-242zM135 0v1430h336v-1430h-336zM359 1556v258h241v-258h-241z" />
<glyph unicode="&#xd0;" horiz-adv-x="1366" d="M0 614v234h135v582h508q315 0 483 -209q156 -193 156 -519q0 -324 -180 -513t-502 -189h-465v614h-135zM471 250h107q184 0 276 139q76 119 76 313q0 477 -373 478h-86v-332h209v-234h-209v-364z" />
<glyph unicode="&#xd1;" horiz-adv-x="1366" d="M129 0v1430h393l416 -992h4v992h295v-1430h-397l-412 1034h-4v-1034h-295zM363 1549q6 96 51 165q55 84 143 84q55 0 139.5 -36.5t102.5 -36.5q45 0 55 73h152q0 -61 -29 -131q-49 -119 -166 -118q-49 0 -135 36.5t-106 36.5q-56 1 -56 -73h-151z" />
<glyph unicode="&#xd2;" horiz-adv-x="1402" d="M94 715q0 317 142 514q160 225 464 225q307 0 467 -223q141 -197 142 -516q0 -319 -142 -516q-160 -223 -467 -224q-305 0 -464 226q-142 197 -142 514zM438 715q0 -498 262 -498q264 0 265 498q0 498 -265 497q-262 1 -262 -497zM469 1819h282l111 -299h-188z" />
<glyph unicode="&#xd3;" horiz-adv-x="1402" d="M94 715q0 317 142 514q160 225 464 225q307 0 467 -223q141 -197 142 -516q0 -319 -142 -516q-160 -223 -467 -224q-305 0 -464 226q-142 197 -142 514zM438 715q0 -498 262 -498q264 0 265 498q0 498 -265 497q-262 1 -262 -497zM543 1520l110 299h283l-205 -299h-188z " />
<glyph unicode="&#xd4;" horiz-adv-x="1402" d="M94 715q0 317 142 514q160 225 464 225q307 0 467 -223q141 -197 142 -516q0 -319 -142 -516q-160 -223 -467 -224q-305 0 -464 226q-142 197 -142 514zM397 1520l158 299h295l157 -299h-204l-101 176l-100 -176h-205zM438 715q0 -498 262 -498q264 0 265 498 q0 498 -265 497q-262 1 -262 -497z" />
<glyph unicode="&#xd5;" horiz-adv-x="1402" d="M94 715q0 317 142 514q160 225 464 225q307 0 467 -223q141 -197 142 -516q0 -319 -142 -516q-160 -223 -467 -224q-305 0 -464 226q-142 197 -142 514zM381 1549q6 96 51 165q55 84 143 84q55 0 139.5 -36.5t102.5 -36.5q45 0 55 73h152q0 -61 -29 -131 q-49 -119 -166 -118q-49 0 -135 36.5t-106 36.5q-56 1 -56 -73h-151zM438 715q0 -498 262 -498q264 0 265 498q0 498 -265 497q-262 1 -262 -497z" />
<glyph unicode="&#xd6;" horiz-adv-x="1402" d="M94 715q0 317 142 514q160 225 464 225q307 0 467 -223q141 -197 142 -516q0 -319 -142 -516q-160 -223 -467 -224q-305 0 -464 226q-142 197 -142 514zM405 1556v258h242v-258h-242zM438 715q0 -498 262 -498q264 0 265 498q0 498 -265 497q-262 1 -262 -497zM758 1556 v258h241v-258h-241z" />
<glyph unicode="&#xd7;" horiz-adv-x="1228" d="M133 188l332 330l-332 330l152 151l329 -331l330 331l152 -151l-330 -330l330 -330l-152 -151l-330 330l-329 -330z" />
<glyph unicode="&#xd8;" horiz-adv-x="1402" d="M78 29l147 186q-131 193 -131 500q0 317 142 514q160 225 464 225q246 0 398 -145l133 166l94 -74l-147 -187q131 -193 131 -499q0 -319 -142 -516q-160 -223 -467 -224q-246 0 -395 146l-133 -166zM438 715q1 -113 17 -211l450 561q-63 147 -205 147q-262 0 -262 -497z M498 362q66 -145 202 -145q264 0 265 498q-1 117 -19 211z" />
<glyph unicode="&#xd9;" horiz-adv-x="1290" d="M121 518v912h336v-965q0 -231 188 -232q188 0 189 232v965h335v-912q0 -256 -135 -399.5t-389 -143.5t-389 143.5t-135 399.5zM412 1819h282l111 -299h-188z" />
<glyph unicode="&#xda;" horiz-adv-x="1290" d="M121 518v912h336v-965q0 -231 188 -232q188 0 189 232v965h335v-912q0 -256 -135 -399.5t-389 -143.5t-389 143.5t-135 399.5zM486 1520l110 299h283l-205 -299h-188z" />
<glyph unicode="&#xdb;" horiz-adv-x="1290" d="M121 518v912h336v-965q0 -231 188 -232q188 0 189 232v965h335v-912q0 -256 -135 -399.5t-389 -143.5t-389 143.5t-135 399.5zM340 1520l158 299h295l157 -299h-204l-101 176l-100 -176h-205z" />
<glyph unicode="&#xdc;" horiz-adv-x="1290" d="M121 518v912h336v-965q0 -231 188 -232q188 0 189 232v965h335v-912q0 -256 -135 -399.5t-389 -143.5t-389 143.5t-135 399.5zM348 1556v258h242v-258h-242zM701 1556v258h241v-258h-241z" />
<glyph unicode="&#xdd;" horiz-adv-x="1212" d="M4 1430h385l229 -553l213 553h377l-434 -889v-541h-336v547zM447 1520l110 299h283l-205 -299h-188z" />
<glyph unicode="&#xde;" horiz-adv-x="1138" d="M135 0v1430h336v-173h121q489 0 489 -454q0 -211 -118.5 -332t-329.5 -121h-162v-350h-336zM459 600h106q88 0 134 57.5t46 147.5q0 203 -198 203h-88v-408z" />
<glyph unicode="&#xdf;" horiz-adv-x="1175" d="M123 0v1104q0 215 129 336t346 121q260 0 373 -158q74 -102 73 -238q0 -131 -63 -229q-72 -113 -195 -123v-4q303 -43 304 -389q0 -195 -110 -315.5t-304 -120.5q-90 0 -144 16l13 233q20 -16 61 -16q160 0 160 232q0 127 -45 178t-168 55v233q190 0 190 218 q0 207 -145 206q-100 0 -133 -92q-18 -53 -19 -203v-1044h-323z" />
<glyph unicode="&#xe0;" horiz-adv-x="1099" d="M70 307q0 358 528 359h98q0 205 -198 204q-139 0 -297 -94l-15 240q213 68 344 67q233 0 340 -79q121 -92 121 -314v-389q0 -205 8 -301h-294l-9 147h-4q-16 -72 -121 -120q-90 -43 -172 -43q-147 0 -238 88t-91 235zM318 1487h282l111 -299h-188zM365 328 q0 -139 139 -140q100 0 151 86q41 70 41 179v61q-332 0 -331 -186z" />
<glyph unicode="&#xe1;" horiz-adv-x="1099" d="M70 307q0 358 528 359h98q0 205 -198 204q-139 0 -297 -94l-15 240q213 68 344 67q233 0 340 -79q121 -92 121 -314v-389q0 -205 8 -301h-294l-9 147h-4q-16 -72 -121 -120q-90 -43 -172 -43q-147 0 -238 88t-91 235zM365 328q0 -139 139 -140q100 0 151 86q41 70 41 179 v61q-332 0 -331 -186zM392 1188l110 299h283l-205 -299h-188z" />
<glyph unicode="&#xe2;" horiz-adv-x="1099" d="M70 307q0 358 528 359h98q0 205 -198 204q-139 0 -297 -94l-15 240q213 68 344 67q233 0 340 -79q121 -92 121 -314v-389q0 -205 8 -301h-294l-9 147h-4q-16 -72 -121 -120q-90 -43 -172 -43q-147 0 -238 88t-91 235zM246 1188l158 299h295l157 -299h-204l-101 176 l-100 -176h-205zM365 328q0 -139 139 -140q100 0 151 86q41 70 41 179v61q-332 0 -331 -186z" />
<glyph unicode="&#xe3;" horiz-adv-x="1099" d="M70 307q0 358 528 359h98q0 205 -198 204q-139 0 -297 -94l-15 240q213 68 344 67q233 0 340 -79q121 -92 121 -314v-389q0 -205 8 -301h-294l-9 147h-4q-16 -72 -121 -120q-90 -43 -172 -43q-147 0 -238 88t-91 235zM230 1217q6 96 51 165q55 84 143 84 q55 0 139.5 -36.5t102.5 -36.5q45 0 55 73h152q0 -61 -29 -131q-49 -119 -166 -118q-49 0 -135 36.5t-106 36.5q-56 1 -56 -73h-151zM365 328q0 -139 139 -140q100 0 151 86q41 70 41 179v61q-332 0 -331 -186z" />
<glyph unicode="&#xe4;" horiz-adv-x="1099" d="M70 307q0 358 528 359h98q0 205 -198 204q-139 0 -297 -94l-15 240q213 68 344 67q233 0 340 -79q121 -92 121 -314v-389q0 -205 8 -301h-294l-9 147h-4q-16 -72 -121 -120q-90 -43 -172 -43q-147 0 -238 88t-91 235zM254 1239v258h242v-258h-242zM365 328 q0 -139 139 -140q100 0 151 86q41 70 41 179v61q-332 0 -331 -186zM607 1239v258h241v-258h-241z" />
<glyph unicode="&#xe5;" horiz-adv-x="1099" d="M70 307q0 358 528 359h98q0 205 -198 204q-139 0 -297 -94l-15 240q213 68 344 67q233 0 340 -79q121 -92 121 -314v-389q0 -205 8 -301h-294l-9 147h-4q-16 -72 -121 -120q-90 -43 -172 -43q-147 0 -238 88t-91 235zM344 1384q0 94 66.5 161t160.5 67t161 -66.5 t67 -161.5q0 -94 -66.5 -160.5t-161.5 -66.5q-94 0 -160.5 66.5t-66.5 160.5zM365 328q0 -139 139 -140q100 0 151 86q41 70 41 179v61q-332 0 -331 -186zM455 1384q0 -47 34.5 -81.5t81.5 -34.5t82 34.5t35 81.5t-35 82t-82 35t-81.5 -35t-34.5 -82z" />
<glyph unicode="&#xe6;" horiz-adv-x="1669" d="M74 307q0 358 528 359h98q0 205 -198 204q-139 0 -297 -94l-15 240q213 68 345 67q211 0 305 -98q123 98 293 98q463 0 462 -557v-77h-628q0 -115 75 -181q70 -63 189 -63q145 0 301 84l6 -244q-166 -61 -338 -61q-303 0 -424 174q-96 -174 -354 -174q-158 0 -250 82 q-98 86 -98 241zM375 328q0 -59 34.5 -99.5t94.5 -40.5q104 0 155 97q41 75 41 188v41q-326 -6 -325 -186zM967 645h333q0 94 -32 162q-43 88 -127 88q-90 0 -137 -84q-37 -68 -37 -166z" />
<glyph unicode="&#xe7;" horiz-adv-x="909" d="M70 522q0 254 137 404q141 158 391 157q88 0 258 -51l-16 -244q-119 45 -189 46q-129 0 -192 -97q-53 -82 -53 -215q0 -131 65 -211q70 -86 197 -86q63 0 188 47l10 -243q-160 -43 -288 -45l-58 -99q31 10 70 11q76 0 124 -45.5t48 -118.5q0 -88 -82 -142 q-70 -45 -164 -45q-160 0 -219 43l39 95q78 -35 145 -35q104 0 105 86q0 68 -88 67q-43 0 -76 -16l-45 37l98 170q-219 33 -325 217q-80 137 -80 313z" />
<glyph unicode="&#xe8;" horiz-adv-x="1099" d="M86 537q0 225 121 378q131 168 352 168q463 0 463 -557v-77h-629q0 -115 76 -181q70 -63 188 -63q145 0 301 84l7 -244q-166 -61 -338 -61q-264 0 -402.5 143t-138.5 410zM318 1487h282l111 -299h-188zM393 625h334q0 262 -168 262q-166 0 -166 -262z" />
<glyph unicode="&#xe9;" horiz-adv-x="1099" d="M86 537q0 225 121 378q131 168 352 168q463 0 463 -557v-77h-629q0 -115 76 -181q70 -63 188 -63q145 0 301 84l7 -244q-166 -61 -338 -61q-264 0 -402.5 143t-138.5 410zM392 1188l110 299h283l-205 -299h-188zM393 625h334q0 262 -168 262q-166 0 -166 -262z" />
<glyph unicode="&#xea;" horiz-adv-x="1099" d="M86 537q0 225 121 378q131 168 352 168q463 0 463 -557v-77h-629q0 -115 76 -181q70 -63 188 -63q145 0 301 84l7 -244q-166 -61 -338 -61q-264 0 -402.5 143t-138.5 410zM246 1188l158 299h295l157 -299h-204l-101 176l-100 -176h-205zM393 625h334q0 262 -168 262 q-166 0 -166 -262z" />
<glyph unicode="&#xeb;" horiz-adv-x="1099" d="M86 537q0 225 121 378q131 168 352 168q463 0 463 -557v-77h-629q0 -115 76 -181q70 -63 188 -63q145 0 301 84l7 -244q-166 -61 -338 -61q-264 0 -402.5 143t-138.5 410zM254 1239v258h242v-258h-242zM393 625h334q0 262 -168 262q-166 0 -166 -262zM607 1239v258h241 v-258h-241z" />
<glyph unicode="&#xec;" horiz-adv-x="569" d="M51 1487h282l111 -299h-188zM123 0v1067h323v-1067h-323z" />
<glyph unicode="&#xed;" horiz-adv-x="569" d="M123 0v1067h323v-1067h-323zM125 1188l110 299h283l-205 -299h-188z" />
<glyph unicode="&#xee;" horiz-adv-x="569" d="M-21 1188l158 299h295l157 -299h-204l-101 176l-100 -176h-205zM123 0v1067h323v-1067h-323z" />
<glyph unicode="&#xef;" horiz-adv-x="569" d="M-13 1239v258h242v-258h-242zM123 0v1067h323v-1067h-323zM340 1239v258h241v-258h-241z" />
<glyph unicode="&#xf0;" horiz-adv-x="1175" d="M86 537q0 215 98 368q115 178 318 178q55 0 116.5 -30.5t81.5 -77.5h5q-43 160 -162 278l-224 -106l-112 110l209 99q-80 51 -172 82l241 123q100 -27 187 -84l176 84l110 -111l-159 -76q291 -285 291 -796q0 -266 -115 -420q-131 -174 -387 -174q-242 0 -375 157 q-127 150 -127 396zM422 537q0 -332 166 -332t166 332q0 326 -166 325q-166 1 -166 -325z" />
<glyph unicode="&#xf1;" horiz-adv-x="1138" d="M104 1067h295q8 -94 9 -178h4q82 195 301 194q313 0 313 -385v-698h-324v657q0 168 -124 168q-141 0 -142 -227v-598h-323v844q0 150 -9 223zM248 1217q6 96 51 165q55 84 143 84q55 0 139.5 -36.5t102.5 -36.5q45 0 55 73h152q0 -61 -29 -131q-49 -119 -166 -118 q-49 0 -135 36.5t-106 36.5q-56 1 -56 -73h-151z" />
<glyph unicode="&#xf2;" horiz-adv-x="1175" d="M86 537q0 246 127 391q133 156 375 155q244 0 377 -153q125 -147 125 -393q0 -248 -125 -396q-133 -158 -377 -157q-242 0 -375 157q-127 150 -127 396zM354 1487h282l111 -299h-188zM422 537q0 -332 166 -332t166 332q0 326 -166 325q-166 1 -166 -325z" />
<glyph unicode="&#xf3;" horiz-adv-x="1175" d="M86 537q0 246 127 391q133 156 375 155q244 0 377 -153q125 -147 125 -393q0 -248 -125 -396q-133 -158 -377 -157q-242 0 -375 157q-127 150 -127 396zM422 537q0 -332 166 -332t166 332q0 326 -166 325q-166 1 -166 -325zM428 1188l110 299h283l-205 -299h-188z" />
<glyph unicode="&#xf4;" horiz-adv-x="1175" d="M86 537q0 246 127 391q133 156 375 155q244 0 377 -153q125 -147 125 -393q0 -248 -125 -396q-133 -158 -377 -157q-242 0 -375 157q-127 150 -127 396zM282 1188l158 299h295l157 -299h-204l-101 176l-100 -176h-205zM422 537q0 -332 166 -332t166 332q0 326 -166 325 q-166 1 -166 -325z" />
<glyph unicode="&#xf5;" horiz-adv-x="1175" d="M86 537q0 246 127 391q133 156 375 155q244 0 377 -153q125 -147 125 -393q0 -248 -125 -396q-133 -158 -377 -157q-242 0 -375 157q-127 150 -127 396zM266 1217q6 96 51 165q55 84 143 84q55 0 139.5 -36.5t102.5 -36.5q45 0 55 73h152q0 -61 -29 -131 q-49 -119 -166 -118q-49 0 -135 36.5t-106 36.5q-56 1 -56 -73h-151zM422 537q0 -332 166 -332t166 332q0 326 -166 325q-166 1 -166 -325z" />
<glyph unicode="&#xf6;" horiz-adv-x="1175" d="M86 537q0 246 127 391q133 156 375 155q244 0 377 -153q125 -147 125 -393q0 -248 -125 -396q-133 -158 -377 -157q-242 0 -375 157q-127 150 -127 396zM290 1239v258h242v-258h-242zM422 537q0 -332 166 -332t166 332q0 326 -166 325q-166 1 -166 -325zM643 1239v258 h241v-258h-241z" />
<glyph unicode="&#xf7;" horiz-adv-x="1228" d="M96 412v213h1037v-213h-1037zM457 111q0 70 44 113.5t113 43.5q70 0 114 -44t44 -113q0 -70 -44 -114t-114 -44t-113.5 44t-43.5 114zM457 926q0 70 43.5 113.5t113.5 43.5t114 -44t44 -113q0 -70 -44 -114t-114 -44t-113.5 44t-43.5 114z" />
<glyph unicode="&#xf8;" horiz-adv-x="1175" d="M86 537q0 246 127 391q133 156 375 155q182 0 307 -92l90 115l82 -62l-98 -122q121 -145 121 -385q0 -248 -125 -396q-133 -158 -377 -157q-174 0 -295 84l-103 -129l-81 61l108 137q-131 150 -131 400zM422 537q0 -80 10 -129l285 358q-41 96 -129 96q-166 0 -166 -325z M467 287q41 -82 121 -82q166 0 166 332q-1 65 -9 104z" />
<glyph unicode="&#xf9;" horiz-adv-x="1138" d="M113 369v698h323v-657q0 -168 125 -168q141 0 141 227v598h324v-844q0 -150 8 -223h-295q-8 94 -8 178h-4q-82 -195 -301 -194q-313 0 -313 385zM336 1487h282l111 -299h-188z" />
<glyph unicode="&#xfa;" horiz-adv-x="1138" d="M113 369v698h323v-657q0 -168 125 -168q141 0 141 227v598h324v-844q0 -150 8 -223h-295q-8 94 -8 178h-4q-82 -195 -301 -194q-313 0 -313 385zM410 1188l110 299h283l-205 -299h-188z" />
<glyph unicode="&#xfb;" horiz-adv-x="1138" d="M113 369v698h323v-657q0 -168 125 -168q141 0 141 227v598h324v-844q0 -150 8 -223h-295q-8 94 -8 178h-4q-82 -195 -301 -194q-313 0 -313 385zM264 1188l158 299h295l157 -299h-204l-101 176l-100 -176h-205z" />
<glyph unicode="&#xfc;" horiz-adv-x="1138" d="M113 369v698h323v-657q0 -168 125 -168q141 0 141 227v598h324v-844q0 -150 8 -223h-295q-8 94 -8 178h-4q-82 -195 -301 -194q-313 0 -313 385zM272 1239v258h242v-258h-242zM625 1239v258h241v-258h-241z" />
<glyph unicode="&#xfd;" horiz-adv-x="1062" d="M10 1067h336l199 -723h4l188 723h316l-377 -1165q-115 -356 -373 -357q-104 0 -194 27l10 240q41 -25 102 -25q76 0 121 72q39 61 39 141zM373 1188l110 299h283l-205 -299h-188z" />
<glyph unicode="&#xfe;" horiz-adv-x="1175" d="M113 -442v1978h323v-612h4q18 47 72 92q82 68 203 67q201 0 299 -198q76 -154 76 -377q0 -217 -78 -354q-96 -170 -297 -170q-205 0 -275 174h-4v-600h-323zM436 535q0 -330 162 -330q104 0 137 123q19 64 19 207q0 315 -156 315q-162 0 -162 -315z" />
<glyph unicode="&#xff;" horiz-adv-x="1062" d="M10 1067h336l199 -723h4l188 723h316l-377 -1165q-115 -356 -373 -357q-104 0 -194 27l10 240q41 -25 102 -25q76 0 121 72q39 61 39 141zM235 1239v258h242v-258h-242zM588 1239v258h241v-258h-241z" />
<glyph unicode="&#x152;" horiz-adv-x="1781" d="M74 715q0 332 155 522q168 209 494 209q61 0 181 -8t181 -8h605v-250h-480v-320h453v-250h-453v-360h506v-250h-663q-66 0 -196 -8t-195 -8q-303 0 -457 223q-131 190 -131 508zM418 715q0 -473 289 -473q104 0 167 18v909q-63 18 -167 19q-289 0 -289 -473z" />
<glyph unicode="&#x153;" horiz-adv-x="1781" d="M86 537q0 246 127 391q133 156 375 155q211 0 338 -116q127 117 307 116q463 0 463 -557v-77h-629q0 -115 76 -181q70 -63 188 -63q145 0 301 84l6 -244q-166 -61 -338 -61q-240 0 -374 118q-125 -119 -338 -118q-242 0 -375 157q-127 150 -127 396zM422 537 q0 -332 166 -332t166 332q0 326 -166 325q-166 1 -166 -325zM1061 625h340q0 262 -172 262q-168 0 -168 -262z" />
<glyph unicode="&#x178;" horiz-adv-x="1212" d="M4 1430h385l229 -553l213 553h377l-434 -889v-541h-336v547zM309 1556v258h242v-258h-242zM662 1556v258h241v-258h-241z" />
<glyph unicode="&#x2c6;" horiz-adv-x="454" d="M-78 1188l158 299h295l157 -299h-204l-101 176l-100 -176h-205z" />
<glyph unicode="&#x2dc;" horiz-adv-x="454" d="M-94 1217q6 96 51 165q55 84 143 84q55 0 139.5 -36.5t102.5 -36.5q45 0 55 73h152q0 -61 -29 -131q-49 -119 -166 -118q-49 0 -135 36.5t-106 36.5q-56 1 -56 -73h-151z" />
<glyph unicode="&#x2000;" horiz-adv-x="972" />
<glyph unicode="&#x2001;" horiz-adv-x="1944" />
<glyph unicode="&#x2002;" horiz-adv-x="972" />
<glyph unicode="&#x2003;" horiz-adv-x="1944" />
<glyph unicode="&#x2004;" horiz-adv-x="648" />
<glyph unicode="&#x2005;" horiz-adv-x="486" />
<glyph unicode="&#x2006;" horiz-adv-x="324" />
<glyph unicode="&#x2007;" horiz-adv-x="324" />
<glyph unicode="&#x2008;" horiz-adv-x="243" />
<glyph unicode="&#x2009;" horiz-adv-x="388" />
<glyph unicode="&#x200a;" horiz-adv-x="108" />
<glyph unicode="&#x2010;" horiz-adv-x="681" d="M86 463v250h510v-250h-510z" />
<glyph unicode="&#x2011;" horiz-adv-x="681" d="M86 463v250h510v-250h-510z" />
<glyph unicode="&#x2012;" horiz-adv-x="681" d="M86 463v250h510v-250h-510z" />
<glyph unicode="&#x2013;" horiz-adv-x="1024" d="M0 479v221h1024v-221h-1024z" />
<glyph unicode="&#x2014;" horiz-adv-x="2048" d="M0 479v221h2048v-221h-2048z" />
<glyph unicode="&#x2018;" horiz-adv-x="532" d="M63 1004l164 532h242l-98 -532h-308z" />
<glyph unicode="&#x2019;" horiz-adv-x="532" d="M63 1004l99 532h307l-164 -532h-242z" />
<glyph unicode="&#x201a;" horiz-adv-x="532" d="M63 -225l99 532h307l-164 -532h-242z" />
<glyph unicode="&#x201c;" d="M131 1004l164 532h242l-99 -532h-307zM528 1004l164 532h242l-98 -532h-308z" />
<glyph unicode="&#x201d;" d="M131 1004l98 532h308l-164 -532h-242zM528 1004l99 532h307l-164 -532h-242z" />
<glyph unicode="&#x201e;" d="M131 -225l98 532h308l-164 -532h-242zM528 -225l99 532h307l-164 -532h-242z" />
<glyph unicode="&#x2022;" horiz-adv-x="1024" d="M156 715q0 147 104.5 251.5t251.5 104.5q150 0 254 -104.5t104 -251.5t-105.5 -253t-252.5 -106t-251.5 104.5t-104.5 254.5z" />
<glyph unicode="&#x2026;" horiz-adv-x="2048" d="M195 0v307h294v-307h-294zM877 0v307h294v-307h-294zM1559 0v307h294v-307h-294z" />
<glyph unicode="&#x202f;" horiz-adv-x="388" />
<glyph unicode="&#x2039;" horiz-adv-x="645" d="M74 532l202 424h256l-184 -424l184 -423h-256z" />
<glyph unicode="&#x203a;" horiz-adv-x="645" d="M113 109l184 423l-184 424h256l202 -424l-202 -423h-256z" />
<glyph unicode="&#x205f;" horiz-adv-x="486" />
<glyph unicode="&#x2122;" horiz-adv-x="2048" d="M98 1266v164h693v-164h-240v-688h-213v688h-240zM954 578v852h295l203 -533l203 533h295v-852h-197v602h-4l-221 -602h-152l-221 602h-4v-602h-197z" />
<glyph unicode="&#xe000;" d="M0 0v1065h1065v-1065h-1065z" />
</font>
</defs>
</svg>
