<?xml version="1.0" encoding="utf-8"?>
<!-- Generator: Adobe Illustrator 19.1.0, SVG Export Plug-In . SVG Version: 6.00 Build 0)  -->
<svg version="1.1" id="Layer_1" xmlns="http://www.w3.org/2000/svg" xmlns:xlink="http://www.w3.org/1999/xlink" x="0px" y="0px"
	 width="114.5px" height="130px" viewBox="0 0 114.5 130" style="enable-background:new 0 0 114.5 130;" xml:space="preserve">
<style type="text/css">
	.st0{fill:#A7A9AC;}
	.st1{fill:#898F4A;stroke:#FFFFFF;stroke-width:2;stroke-miterlimit:10;}
	.st2{fill:#FFFFFF;}
	.st3{fill:#9EA256;stroke:#FFFFFF;stroke-width:2;stroke-miterlimit:10;}
</style>
<path class="st0" d="M100.5,46.3c0,6.3-1.1,10.4-3.2,14.6l-29.8,61.6c0,1-2.1,3.1-3.2,4.2c-2.1,1-3.2,1-5.3,1c-2.1,0-4.3,0-5.3-1
	c-2.1-1-3.2-3.1-4.3-4.2L19.7,60.9c-1.1-4.2-2.1-8.4-2.1-14.6c0-10.4,4.3-19.8,11.7-28.2C37.8,9.8,47.3,6.6,59,6.6
	c10.6,0,21.3,3.1,28.7,11.5C96.2,26.5,100.5,35.8,100.5,46.3"/>
<path class="st1" d="M99.7,43.3c0,6.3-1,10.4-3.1,14.6l-29.2,61.6c0,1-2.1,3.1-3.1,4.2c-2.1,1-3.1,1-5.2,1c-2.1,0-4.2,0-5.2-1
	c-2.1-1-3.1-3.1-4.2-4.2L20.4,57.9c-1-4.2-2.1-8.4-2.1-14.6c0-10.4,4.2-19.8,11.5-28.2C38.1,6.8,47.5,3.7,59,3.7
	c10.4,0,20.9,3.1,28.2,11.5C95.6,23.5,99.7,32.9,99.7,43.3"/>
<circle class="st2" cx="58.5" cy="45.3" r="28.7"/>
<circle class="st3" cx="58.5" cy="45.3" r="21.1"/>
</svg>
