<?xml version="1.0" encoding="utf-8"?>
<!-- Generator: Adobe Illustrator 19.1.0, SVG Export Plug-In . SVG Version: 6.00 Build 0)  -->
<svg version="1.1" id="Layer_1" xmlns="http://www.w3.org/2000/svg" xmlns:xlink="http://www.w3.org/1999/xlink" x="0px" y="0px"
	 width="114.5px" height="130px" viewBox="0 0 114.5 130" style="enable-background:new 0 0 114.5 130;" xml:space="preserve">
<style type="text/css">
	.st0{fill:#BCBEC0;}
	.st1{fill:#898F4A;}
	.st2{fill:#FFFFFF;}
	.st3{fill:#9EA256;}
</style>
<path class="st0" d="M94,39.7c-10.3,0-18.7,8.6-18.7,19.2c0,9.2,6.4,16.9,14.8,18.7v22.8c0,4.9-2.9,9.8-6.7,13.7
	c-4.8,3.9-10.5,5.9-16.2,5.9c-6.7,0-12.4-2-17.1-5.9c-3.8-3.9-6.7-8.8-6.7-13.7v-6.6h0V85v-0.7v-2h0v-1.4c8.6-1,14.3-3.9,20-9.8
	c5.7-4.9,7.6-10.7,7.6-18.5V18.4v-3.9V7.9h0V7.3c0-2-1.6-3.6-3.5-3.6H54.1c-1.9,0-3.5,1.6-3.5,3.6v2.2c0,2,1.6,3.6,3.5,3.6h8.4v10.3
	v6.4v22.9c0,5.9-2.9,9.8-6.7,13.7c-4.8,3.9-10.5,5.9-17.1,5.9c-5.7,0-11.4-2-16.2-5.9c-4.8-3.9-6.7-7.8-6.7-13.7V29.7h0v-8.1V13h7.4
	c1.9,0,3.5-1.6,3.5-3.6V7.3c0-2-1.6-3.6-3.5-3.6H9.8c-1.9,0-3.5,1.6-3.5,3.6v0.7v1.5v12.2c0,0.1,0,0.1,0,0.2v30.8
	c0,7.8,2.9,13.7,8.6,18.5c4.8,5.9,11.4,8.8,20,9.8v1.4v0.1v1.9V85v8v0.8v6.6c0,7.8,2.9,14.6,8.6,20.5c6.7,4.9,14.3,7.8,23.8,7.8
	c8.6,0,16.2-2.9,22.8-7.8c5.7-5.9,9.5-12.7,9.5-20.5V77.1c7.5-2.5,13-9.7,13-18.2C112.6,48.3,104.3,39.7,94,39.7z M94,70.3
	c-5.7,0-10.3-4.7-10.3-10.6S88.2,49.1,94,49.1c5.7,0,10.3,4.7,10.3,10.6S99.7,70.3,94,70.3z"/>
<g>
	<g>
		<path class="st1" d="M30.4,83.8v-4.2c-8.8-1.1-15.3-4.3-19.9-9.8c-6.1-5.1-8.9-11.1-8.9-19V20.5c0,0,0-0.1,0-0.2V6.2
			c0-2.5,2-4.5,4.5-4.5h13.6c2.5,0,4.5,2,4.5,4.5v2.2c0,2.5-2,4.5-4.5,4.5h-6.5v14.4l0,1v22.5c0,5.5,1.8,9,6.4,12.7
			C24,67,29.6,69,35.3,69c6.4,0,12-1.9,16.6-5.5c3.9-4,6.4-7.5,6.4-12.7V12.9h-7.5c-2.5,0-4.5-2-4.5-4.5V6.2c0-2.5,2-4.5,4.5-4.5
			h13.6c2.4,0,4.4,1.9,4.5,4.2h0l0,1v43.9c0,8.6-2.4,14.3-8,19c-5.8,5.8-11.6,8.7-19.8,9.7l0,4.2H30.4z"/>
		<path class="st2" d="M64.4,2.6c1.9,0,3.5,1.6,3.5,3.5v0.7h0v6.5v3.8v33.7c0,7.7-1.9,13.5-7.7,18.3c-5.8,5.8-11.5,8.7-20.2,9.6V80
			h0v2.7h-8.7v-2.6V80v-1.4c-8.6-1-15.4-3.8-20.2-9.6c-5.8-4.8-8.6-10.6-8.6-18.3V20.5c0-0.1,0-0.1,0-0.2v-12V6.8V6.2
			c0-1.9,1.6-3.5,3.5-3.5h13.6c1.9,0,3.5,1.6,3.5,3.5v2.2c0,1.9-1.6,3.5-3.5,3.5h-7.5v8.5v7.9h0v22.5c0,5.8,1.9,9.6,6.7,13.5
			c4.8,3.8,10.6,5.8,16.3,5.8c6.7,0,12.5-1.9,17.3-5.8c3.8-3.8,6.7-7.7,6.7-13.5V28.3v-6.3V11.9h-8.5c-1.9,0-3.5-1.6-3.5-3.5V6.2
			c0-1.9,1.6-3.5,3.5-3.5H64.4 M64.4,0.6H50.8c-3.1,0-5.5,2.5-5.5,5.5v2.2c0,3.1,2.5,5.5,5.5,5.5h6.5v8.1v6.3v22.5
			c0,4.9-2.3,8.2-6.1,12c-4.4,3.5-9.8,5.3-16,5.3c-5.4,0-10.8-1.9-15.1-5.3c-4.4-3.5-6-6.7-6-11.9V28.3v-2h0v-5.9v-6.5h5.5
			c3.1,0,5.5-2.5,5.5-5.5V6.2c0-3.1-2.5-5.5-5.5-5.5H6.1C3,0.6,0.6,3.1,0.6,6.2v0.7v1.5v12c0,0.1,0,0.2,0,0.3v30.2
			c0,8,3,14.4,9.2,19.7c4.6,5.4,11,8.7,19.6,10v2.3v2h2h8.7h2v-2v-2.3c8-1.2,13.7-4.1,19.5-9.9c5.8-4.8,8.3-10.9,8.3-19.7V17.1v-3.8
			V6.8v-2h-0.2C69.1,2.4,66.9,0.6,64.4,0.6L64.4,0.6z"/>
	</g>
	<g>
		<path class="st3" d="M64.1,126.8c-9.1,0-17.2-2.6-24.6-7.9l-0.1,0l-0.1-0.1c-5.9-5.9-8.9-13-8.9-20.9V81h10.7v11.3h0v5.5
			c0,4.1,2.3,8.6,6.4,12.7c4.6,3.7,10.2,5.5,16.6,5.5c5.6,0,11.2-2,15.7-5.5c4.1-4.1,6.4-8.6,6.4-12.7V76.3
			c-8.7-2.2-15-10.2-15-19.3c0-11,8.9-19.9,19.9-19.9s19.9,8.9,19.9,19.9c0,8.4-5.2,15.9-13.1,18.7v22.2c0,7.3-3.3,14.3-9.9,20.9
			l-0.1,0.1l-0.1,0C80.4,124.1,72.5,126.8,64.1,126.8z M91,48.4c-5.2,0-9.4,4.2-9.4,9.4s4.2,9.4,9.4,9.4s9.4-4.2,9.4-9.4
			S96.2,48.4,91,48.4z"/>
		<path class="st2" d="M91,38.2c10.4,0,18.9,8.4,18.9,18.9c0,8.4-5.5,15.5-13.1,18v22.9c0,7.7-3.8,14.4-9.6,20.2
			c-6.7,4.8-14.4,7.7-23.1,7.7c-9.6,0-17.3-2.9-24-7.7c-5.8-5.8-8.6-12.5-8.6-20.2v-6.5v-0.8V82h8.7v9.3h0v6.5
			c0,4.8,2.9,9.6,6.7,13.5c4.8,3.8,10.6,5.8,17.3,5.8c5.8,0,11.5-1.9,16.3-5.8c3.8-3.8,6.7-8.7,6.7-13.5V75.5
			c-8.6-1.8-15-9.4-15-18.5C72.2,46.6,80.6,38.2,91,38.2 M91,68.2c5.8,0,10.4-4.7,10.4-10.4S96.8,47.4,91,47.4s-10.4,4.7-10.4,10.4
			S85.3,68.2,91,68.2 M91,36.2c-11.5,0-20.9,9.4-20.9,20.9c0,9.3,6.2,17.4,15,20v20.9c0,3.8-2.2,8-6.1,12c-4.3,3.4-9.6,5.3-15,5.3
			c-6.2,0-11.6-1.8-16-5.3c-3.9-3.9-6.1-8.2-6.1-12v-4.5l0-2V82v-2h-2h-8.7h-2v2v8.6v0.8v6.5c0,8.2,3.1,15.5,9.2,21.6l0.1,0.1
			l0.1,0.1c7.6,5.4,15.8,8.1,25.2,8.1c8.6,0,16.7-2.7,24.2-8.1l0.1-0.1l0.1-0.1c6.8-6.8,10.2-14,10.2-21.6V76.4
			c7.9-3.1,13.1-10.8,13.1-19.4C111.9,45.5,102.5,36.2,91,36.2L91,36.2z M91,66.2c-4.7,0-8.4-3.8-8.4-8.4c0-4.7,3.8-8.4,8.4-8.4
			c4.7,0,8.4,3.8,8.4,8.4C99.5,62.5,95.7,66.2,91,66.2L91,66.2z"/>
	</g>
	<rect x="31.4" y="78.2" class="st1" width="8.7" height="5.4"/>
</g>
</svg>
