<?xml version="1.0" encoding="utf-8"?>
<!-- Generator: Adobe Illustrator 19.1.0, SVG Export Plug-In . SVG Version: 6.00 Build 0)  -->
<svg version="1.1" id="Layer_1" xmlns="http://www.w3.org/2000/svg" xmlns:xlink="http://www.w3.org/1999/xlink" x="0px" y="0px"
	 width="218px" height="312px" viewBox="-196 241 218 312" style="enable-background:new -196 241 218 312;" xml:space="preserve">
<style type="text/css">
	.st0{display:none;}
	.st1{display:inline;}
	.st2{fill:#1C75BC;}
	.st3{fill:#17669B;}
	.st4{fill:#60AEE1;}
	.st5{fill:#A7A9AC;}
	.st6{fill:#F1F2F2;}
	.st7{fill:#0F4968;}
	.st8{fill:#939598;}
	.st9{fill:#58595B;}
	.st10{fill:#3DB0D7;}
	.st11{fill:#14597F;}
	.st12{fill:#2499C1;}
	.st13{fill:#124960;}
	.st14{fill:#FFFFFF;}
	.st15{fill:#FFEEDD;}
	.st16{fill:#F2F2F2;}
	.st17{fill:#F3E3FF;}
	.st18{fill:#F8F8D3;}
	.st19{fill:none;stroke:#262262;stroke-width:2.381;stroke-miterlimit:10;}
	.st20{fill:none;stroke:#262262;stroke-width:2;stroke-miterlimit:10;}
	.st21{fill:#FFD40B;}
	.st22{fill:#DAE79C;}
	.st23{fill:#B77DD8;}
	.st24{fill:#D1D3D4;}
	.st25{fill:#C2D34A;}
	.st26{fill:#FFFFFF;stroke:#262262;stroke-width:2;stroke-miterlimit:10;}
	.st27{fill:#C2D34A;stroke:#DAE79C;stroke-width:2.3919;stroke-miterlimit:10;}
	.st28{fill:#FFFFFF;stroke:#262262;stroke-width:1.5925;stroke-miterlimit:10;}
	.st29{display:inline;fill:#F8F8D3;}
	.st30{display:inline;fill:#F2F2F2;}
	.st31{display:inline;fill:#E2F4FD;}
	.st32{display:inline;fill:#FFEEDD;}
	.st33{display:inline;fill:#DAE79C;}
	.st34{display:inline;fill:#D1D3D4;}
	.st35{display:inline;fill:#FFFFFF;}
	.st36{display:inline;fill:#B0E2F6;}
	.st37{display:inline;fill:#FFFFFF;stroke:#262262;stroke-width:2;stroke-miterlimit:10;}
	.st38{display:inline;fill:#FBBA63;}
	.st39{display:inline;fill:none;stroke:#262262;stroke-width:2;stroke-miterlimit:10;}
	.st40{display:inline;fill:#262262;}
</style>
<g id="Layer_3" class="st0">
	<g class="st1">
		<g>
			<path class="st2" d="M-403.5,257.6c-13.7,1.4-23.7,13.7-22.3,27.4l1,10l6.6,64l14.1-1.5l-6.6-64h-0.1l-0.7-6.9
				c-0.8-7.9,5-15,12.8-15.8l9.3-1l-1.4-13.6L-403.5,257.6z"/>
			<path class="st3" d="M-398.9,270.4l9-0.9l-0.7-7.2l-9.9,1c-10.5,1.1-18.2,10.6-17.1,21.1l0.8,7.7l5.1,49.2l0,0l2.3,21.6l5.8-0.6
				l-2.3-22.1l0,0l-4.9-47.2h-0.1l-0.7-6.9C-412.6,278.4-406.8,271.3-398.9,270.4z"/>
			<path class="st4" d="M-422,295l-1-10c-1.4-13.7,8.6-26,22.3-27.4l10.1-1v-0.3l-12.9,1.3c-13.7,1.4-23.7,13.7-22.3,27.4l1,10
				l6.6,64l2.8-0.3L-422,295z"/>
			<path class="st5" d="M-381.6,274h-4.9c-6.2,0-11.3-5.1-11.3-11.3l0,0c0-6.2,5.1-11.3,11.3-11.3h4.9c6.2,0,11.3,5.1,11.3,11.3l0,0
				C-370.2,268.9-375.3,274-381.6,274z"/>
			<path class="st5" d="M-381.6,274h-4.9c-6.2,0-11.3-5.1-11.3-11.3l0,0c0-6.2,5.1-11.3,11.3-11.3h4.9c6.2,0,11.3,5.1,11.3,11.3l0,0
				C-370.2,268.9-375.3,274-381.6,274z"/>
			<path class="st6" d="M-386.5,253.4h4.9c5.9,0,10.7,4.5,11.3,10.3c0-0.3,0.1-0.7,0.1-1.1c0-6.2-5.1-11.3-11.3-11.3h-4.9
				c-6.2,0-11.3,5.1-11.3,11.3c0,0.4,0,0.7,0.1,1.1C-397.2,258-392.4,253.4-386.5,253.4z"/>
			<path class="st7" d="M-395.5,262.8l-3.2,0.3c0.1,2.7,1,5.1,2.6,7l5.3-0.5l-0.4-4C-392.9,265-394.3,264.1-395.5,262.8z"/>
			<path class="st8" d="M-381.6,266.2h-4.9c-4.8,0-9-3.1-10.6-7.4c-0.5,1.2-0.7,2.6-0.7,4c0,6.2,5.1,11.3,11.3,11.3h4.9
				c6.2,0,11.3-5.1,11.3-11.3c0-1.4-0.3-2.7-0.7-4C-372.6,263.1-376.7,266.2-381.6,266.2z"/>
			<path class="st5" d="M-397.8,262.2c0,0.3,0,0.6,0.1,1h27.5c0-0.3,0.1-0.6,0.1-1c0-1.9-0.5-3.6-1.5-5.1h-24.6
				C-397.3,258.6-397.8,260.4-397.8,262.2z"/>
			<ellipse class="st9" cx="-377" cy="262.6" rx="2.6" ry="4.6"/>
			<ellipse cx="-376.8" cy="262.6" rx="1.5" ry="2.8"/>
			<path class="st8" d="M-379.6,262.6c0-2.1,0.8-3.9,1.9-4.4c-0.2-0.1-0.4-0.2-0.7-0.2c-1.4,0-2.6,2.1-2.6,4.6s1.1,4.6,2.6,4.6
				c0.2,0,0.5-0.1,0.7-0.2C-378.8,266.5-379.6,264.7-379.6,262.6z"/>
		</g>
		<g>
			<path class="st2" d="M-295.9,257.6c13.7,1.4,23.7,13.7,22.3,27.4l-1,10l-6.6,64l-14.1-1.5l6.6-64h0.1l0.7-6.9
				c0.8-7.9-5-15-12.8-15.8l-9.3-1l1.4-13.6L-295.9,257.6z"/>
			<path class="st3" d="M-300.5,270.4l-9-0.9l0.7-7.2l9.9,1c10.5,1.1,18.2,10.6,17.1,21.1l-0.8,7.7l-5.1,49.2l0,0l-2.3,21.6
				l-5.8-0.6l2.3-22.1l0,0l4.9-47.2h0.1l0.7-6.9C-286.9,278.4-292.6,271.3-300.5,270.4z"/>
			<path class="st4" d="M-277.5,295l1-10c1.4-13.7-8.6-26-22.3-27.4l-10.1-1v-0.3l12.9,1.3c13.7,1.4,23.7,13.7,22.3,27.4l-1,10
				l-6.6,64l-2.8-0.3L-277.5,295z"/>
			<path class="st5" d="M-317.8,274h4.9c6.2,0,11.3-5.1,11.3-11.3l0,0c0-6.2-5.1-11.3-11.3-11.3h-4.9c-6.2,0-11.3,5.1-11.3,11.3l0,0
				C-329.2,268.9-324.1,274-317.8,274z"/>
			<path class="st5" d="M-317.8,274h4.9c6.2,0,11.3-5.1,11.3-11.3l0,0c0-6.2-5.1-11.3-11.3-11.3h-4.9c-6.2,0-11.3,5.1-11.3,11.3l0,0
				C-329.2,268.9-324.1,274-317.8,274z"/>
			<path class="st6" d="M-312.9,253.4h-4.9c-5.9,0-10.7,4.5-11.3,10.3c0-0.3-0.1-0.7-0.1-1.1c0-6.2,5.1-11.3,11.3-11.3h4.9
				c6.2,0,11.3,5.1,11.3,11.3c0,0.4,0,0.7-0.1,1.1C-302.2,258-307,253.4-312.9,253.4z"/>
			<path class="st7" d="M-303.9,262.8l3.2,0.3c-0.1,2.7-1,5.1-2.6,7l-5.3-0.5l0.4-4C-306.5,265-305.1,264.1-303.9,262.8z"/>
			<path class="st8" d="M-317.8,266.2h4.9c4.8,0,9-3.1,10.6-7.4c0.5,1.2,0.7,2.6,0.7,4c0,6.2-5.1,11.3-11.3,11.3h-4.9
				c-6.2,0-11.3-5.1-11.3-11.3c0-1.4,0.3-2.7,0.7-4C-326.8,263.1-322.7,266.2-317.8,266.2z"/>
			<path class="st5" d="M-301.6,262.2c0,0.3,0,0.6-0.1,1h-27.5c0-0.3-0.1-0.6-0.1-1c0-1.9,0.5-3.6,1.5-5.1h24.6
				C-302.1,258.6-301.6,260.4-301.6,262.2z"/>
			<ellipse class="st9" cx="-322.4" cy="262.6" rx="2.6" ry="4.6"/>
			<ellipse cx="-322.6" cy="262.6" rx="1.5" ry="2.8"/>
			<path class="st8" d="M-319.8,262.6c0-2.1-0.8-3.9-1.9-4.4c0.2-0.1,0.4-0.2,0.7-0.2c1.4,0,2.6,2.1,2.6,4.6s-1.1,4.6-2.6,4.6
				c-0.2,0-0.5-0.1-0.7-0.2C-320.6,266.5-319.8,264.7-319.8,262.6z"/>
		</g>
		<path class="st10" d="M-297.9,433.6L-297.9,433.6h-0.3c-1.3-0.1-2.5-0.1-3.8-0.1c-0.8,0-1.6,0-2.4,0.1h-1.2
			c-0.3,0-0.5-0.1-0.8-0.1H-388c-3.7,0-6.8,3.1-6.8,6.8c0,3.7,3.1,6.8,6.8,6.8h81.5c0.2,0,0.3,0,0.5,0l8.4-0.1
			c20.7,2.2,36.8,19.8,36.8,41.1c0,22.8-18.5,41.3-41.3,41.3c-21.3,0-38.8-16.1-41.1-36.7c-0.6,3.1-3.4,5.5-6.7,5.5
			c-3.3,0-6-2.3-6.7-5.4c2.4,28,25.8,49.9,54.4,49.9c30.2,0,54.6-24.5,54.6-54.6C-247.4,459.3-269.6,435.7-297.9,433.6z"/>
		<rect x="-382.8" y="442.6" class="st11" width="83.6" height="4.5"/>
		<path class="st11" d="M-257.4,487.6c0-24.9-20.2-45-45-45c-7.1,0-13.8,1.6-19.7,4.5h15.7c0.2,0,0.3,0,0.5,0l8.4-0.1
			c20.7,2.2,36.8,19.8,36.8,41.1c0,22.8-18.5,41.3-41.3,41.3c-21.3,0-38.8-16.1-41.1-36.7c0,0.1-0.1,0.2-0.1,0.3
			c0.1-0.5,0.2-1.1,0.2-1.6v-23.5c-2.9,6-4.6,12.7-4.6,19.8c0,24.9,20.2,45,45,45C-277.6,532.6-257.4,512.5-257.4,487.6z
			 M-346.2,497.1c0.1-0.1,0.2-0.1,0.3-0.2C-346,497-346.1,497-346.2,497.1z M-345.5,496.6c0.1-0.1,0.3-0.2,0.4-0.3
			C-345.2,496.4-345.4,496.5-345.5,496.6z M-344.9,496.1c0.2-0.2,0.3-0.4,0.5-0.6C-344.5,495.7-344.7,495.9-344.9,496.1z
			 M-343.1,493c-0.1,0.3-0.2,0.7-0.3,1C-343.3,493.6-343.2,493.3-343.1,493z M-343.5,494c-0.1,0.3-0.3,0.6-0.5,0.9
			C-343.8,494.6-343.6,494.3-343.5,494z M-344,494.9c-0.1,0.1-0.2,0.3-0.3,0.4C-344.2,495.2-344.1,495.1-344,494.9z"/>
		<rect x="-383.5" y="433.6" class="st12" width="86.1" height="5"/>
		<path class="st12" d="M-349.7,498.1L-349.7,498.1c-3.7,0-6.8-3.1-6.8-6.8v-81.5c0-3.7,3.1-6.8,6.8-6.8l0,0c3.7,0,6.8,3.1,6.8,6.8
			v81.5C-342.9,495.1-346,498.1-349.7,498.1z"/>
		<rect x="-346.2" y="406.3" class="st11" width="3.2" height="90.9"/>
		<path class="st10" d="M-346.2,498.1v-91.9h-4.7L-351,498v-1.1c0,0,0.3,3.1,0.7,3.9c0.3,0.8,3.2-1.7,3.2-1.7l1.2,0.3L-346.2,498.1z
			"/>
		<path class="st11" d="M-295,353.2c-2.8,26.7-28.7,45-54.7,43.8c-25.1,1-52-17.2-54.7-43.8l-13.9,3.9c3.6,34.5,34.7,54.9,68.6,54.5
			c35.1,0.1,65-20,68.6-54.5L-295,353.2z"/>
		<path class="st11" d="M-295,353.2c-2.8,26.7-28.7,45-54.7,43.8c-25.1,1-52-17.2-54.7-43.8l-13.9,3.9c3.6,34.5,34.7,54.9,68.6,54.5
			c35.1,0.1,65-20,68.6-54.5L-295,353.2z"/>
		<path class="st12" d="M-284,356.3c-4.7,31.5-32.9,51.4-65.7,51.4c-31.7,0.3-61-19.8-65.7-51.4l-2.9,0.8
			c3.6,34.5,34.7,54.9,68.6,54.5c35.1,0.1,65-20,68.6-54.5L-284,356.3z"/>
		<path class="st13" d="M-295,353.2c-2.8,26.7-28.7,45-54.7,43.8c-25.1,1-52-17.2-54.7-43.8l-5.8,1.6c3,29.3,32.6,49.2,60.1,48.1
			c28.6,1.2,57.6-18.9,60.7-48.2"/>
		<circle class="st11" cx="-413.8" cy="440.8" r="31.3"/>
		<circle class="st12" cx="-413.8" cy="441" r="26.4"/>
		<circle class="st14" cx="-413.8" cy="441.4" r="18.2"/>
		<path class="st12" d="M-298.1,433.6L-298.1,433.6h-0.3c-0.1,0-0.2,0-0.2,0v4.8c25.3,2.1,45.2,23.3,45.2,49.2
			c0,27.3-22.1,49.4-49.4,49.4c-23.7,0-43.4-16.7-48.2-38.9c-2.8-0.5-5-2.6-5.6-5.3c2.4,28,25.8,49.9,54.4,49.9
			c30.2,0,54.6-24.5,54.6-54.6C-247.5,459.3-269.8,435.7-298.1,433.6z"/>
		<polygon class="st12" points="-356.6,491.8 -356.5,493.5 -354.5,498 -350.9,498.1 -353.1,493.5 		"/>
		<path class="st10" d="M-351,496.5c0,0,0,1.1,0,1.7s1.1,0.6,1.1,0.6l0.4-1.5L-351,496.5z"/>
		<path class="st10" d="M-351,498.2c0,0,0.3,1.9,0.8,1.7c0.5-0.1-0.2-2.3-0.2-2.3L-351,498.2z"/>
	</g>
</g>
<g id="icon1">
	<g id="Layer_5">
	</g>
</g>
<g id="icons2">
	<g id="Layer_6">
		<path class="st15" d="M-172.1,547.3c-8.4,0-15.3-6.9-15.3-15.3s6.9-15.3,15.3-15.3h9v-38.2c0-4.6,3.3-11.7,12.6-12.3
			c0.1,0,0.3,0,0.4,0h2.1c0.1,0,0.3,0,0.4,0h0.2c0.1,0,0.3,0,0.4,0h8.5c0.1-0.9,0.3-1.7,0.5-2.6l-46.2-34.8c-4-3-4.8-8.7-1.8-12.7
			c1.7-2.3,4.4-3.6,7.3-3.6c2,0,3.9,0.6,5.5,1.8l43.4,32.7c7.2-8.5,17.9-13.6,29.2-13.6c14.4,0,27.5,8.1,34,20.7
			c17-3.7,30.2-17.2,33.4-34.7c4.1-22.5-9.8-44.2-31.5-50l-41.3,50.4c-3.4,4.2-8.6,6.6-14.1,6.6c-1,0-2.1-0.1-3.1-0.3
			c-1.8,0.7-3.8,1.1-5.9,1.1c-5.7,0-12.2-2.7-17.7-7.5c-7.8-6.8-11.5-15.6-9.7-22.5c-1.4-5.5-0.1-11.5,3.5-15.9l99.6-121.8
			c3.5-4.2,8.6-6.6,14.1-6.6c1.4,0,2.7,0.2,4,0.5l3.4-4.1c2.3-2.8,5.7-4.4,9.3-4.4c2.8,0,5.5,1,7.7,2.7l10.8,8.9
			c5.1,4.2,5.9,11.9,1.7,17l-2.7,3.3c4,6.4,3.8,15-1.3,21.2l-36.7,44.9c13.5,6.6,24.8,17.1,32.4,30.2c9.1,15.7,12.3,34.2,9,52.1
			c-5.9,32.1-31.9,56.9-63.9,61.6c-5.1,11.8-15.8,20.2-28.4,22.4v5.2l0,0l0,0c0,0.8,0.3,1.8,1.2,2.3h92.3c8.4,0,15.3,6.9,15.3,15.3
			s-6.9,15.3-15.3,15.3H-172.1z"/>
		<path class="st16" d="M-70.5,487.8c-1.8,0-3.6-0.9-4.7-2.3c-1.2-1.6-1.6-3.7-0.9-5.7c1-2.7,1.4-5.6,1.4-8.4c0-2.8-0.5-5.6-1.4-8.2
			c-0.6-1.7-0.4-3.6,0.6-5.1s2.6-2.5,4.4-2.7c18.9-2.1,34.4-16.6,37.9-35.3c2.1-11.4-0.4-23-6.9-32.5c-6.6-9.6-16.5-16-27.9-18.1
			c-1.6-0.3-3-1.2-3.9-2.5s-1.2-2.9-1-4.5l3.7-20.3c0.3-1.6,1.2-3,2.5-3.9c1-0.7,2.2-1,3.4-1c0.4,0,0.8,0,1.1,0.1
			c40.8,7.9,67.9,47.6,60.4,88.5c-6.2,33.6-34.3,59.1-68.3,62C-70.2,487.8-70.3,487.8-70.5,487.8z"/>
		<path class="st17" d="M-118.8,424c-4.3,0-8.6-1.5-11.9-4.2l-18.3-15c-3.9-3.2-6.3-7.7-6.8-12.7s1-9.9,4.1-13.8L-55,260.1
			c3.6-4.4,8.9-6.9,14.6-6.9c4.3,0,8.6,1.5,11.9,4.2l18.3,15c3.9,3.2,6.3,7.7,6.8,12.7s-1,9.9-4.1,13.8l-96.8,118.3
			C-107.8,421.5-113.2,424-118.8,424z"/>
		<path class="st16" d="M-119.5,475c-2,0-3.9-0.6-5.5-1.8l-59.3-44.6c-1.9-1.5-3.2-3.6-3.5-6s0.3-4.8,1.7-6.7
			c1.7-2.3,4.4-3.6,7.3-3.6c2,0,3.9,0.6,5.5,1.8l59.3,44.6c1.9,1.5,3.2,3.6,3.5,6s-0.3,4.8-1.7,6.7C-114,473.7-116.7,475-119.5,475
			L-119.5,475z"/>
		<path class="st18" d="M-100.6,510.5c-21.5,0-39-17.5-39-38.9c0-21.5,17.5-38.9,39-38.9s39,17.5,39,38.9
			C-61.6,493.1-79.1,510.5-100.6,510.5z"/>
		<path class="st18" d="M-64.3,374.7c-13.8,0-25.1-11.2-25.1-25c0-13.8,11.2-25,25.1-25c13.8,0,25.1,11.2,25.1,25
			C-39.3,363.5-50.5,374.7-64.3,374.7z"/>
	</g>
	<circle class="st19" cx="-100.8" cy="471.4" r="31.5"/>
	<circle class="st20" cx="-63" cy="352.8" r="14.2"/>
	<path class="st21" d="M-0.5,522.7h-93.3c-6.3-1.7-6.1-8.3-6.1-8.3v-10.6c14.1-0.3,26-9.6,30.1-22.4c30.5-2.9,56.5-25.6,62.4-57.2
		c6.3-34.3-13.4-67.4-45.2-78.9l41.6-51.1c4.2-5.2,3.5-12.9-1.7-17.1l-0.6-0.5c0.7-0.4,1.4-0.9,1.9-1.5l4.4-5.4
		c2.1-2.6,1.7-6.4-0.8-8.6l-10.8-8.9c-2.6-2.1-6.4-1.7-8.6,0.8l-4.4,5.4c-0.6,0.7-1,1.5-1.2,2.3c-5.1-3.2-12-2.2-15.9,2.6
		l-99.5,121.9c-2.9,3.5-3.5,8.3-1.8,12.3c-2.3,4.5,0.7,12,7.3,17.8c6.7,5.8,14.8,7.7,18.8,4.5c4.7,1.6,10,0.2,13.3-3.8l43.5-53.2
		c26.9,5,44.7,30.8,39.7,57.7c-4,21.9-21.9,37.8-43,40.3c-4.5-12.4-16.4-21.4-30.3-21.4c-11.9,0-22.3,6.5-27.9,16.1l-48.3-36.4
		c-1.4-1-3.3-0.7-4.3,0.6c-1,1.4-0.7,3.3,0.6,4.3l49.4,37.2c-1.1,3.3-1.7,6.7-1.7,10.4c0,0.2,0,0.4,0,0.6H-147c-0.3,0-0.7,0-1.1,0
		h-2.1c-7,0.5-7,6.4-7,6.4v44.2h-15c-5.1,0-9.3,4.2-9.3,9.3s4.2,9.3,9.3,9.3H-0.6c5.1,0,9.3-4.2,9.3-9.3S4.6,522.7-0.5,522.7z"/>
	<polygon class="st22" points="-148.7,390.8 -150.8,390.8 -150.8,396.1 -150.8,398.3 -150.9,401.4 -150.9,404.2 -149.8,408 
		-147.2,410.5 -144.1,414.1 -141.4,416.4 -137.8,418.7 -133.4,420.6 -128.6,421.3 -125.8,420.7 -123.9,419.8 -122.4,420.2 
		-119.9,420.4 -115.1,419.4 -113.1,418.7 -112.1,416.8 	"/>
	<path class="st14" d="M-127.3,416.5l-18.3-15c-5.5-4.5-6.3-12.6-1.8-18l96.7-118.2c4.5-5.5,12.6-6.3,18-1.8l18.3,15
		c5.5,4.5,6.3,12.6,1.8,18l-96.6,118.2C-113.7,420.2-121.8,421-127.3,416.5z"/>
	<path class="st23" d="M-126.9,414.7l-18.3-15c-5.5-4.5-6.3-12.6-1.8-18l96.7-118.2c4.5-5.5,12.6-6.3,18-1.8l18.3,15
		c5.5,4.5,6.3,12.6,1.8,18l-96.7,118.2C-113.4,418.4-121.5,419.2-126.9,414.7z"/>
	
		<rect x="-35.6" y="268.6" transform="matrix(-0.775 -0.632 0.632 -0.775 -209.058 464.7406)" class="st14" width="27.6" height="2"/>
	<g>
		<path class="st24" d="M-63.2,343.2l-3.7,20.3c26.8,5,44.6,30.7,39.6,57.6c-4,21.9-22,37.8-43.1,40.2c1.1,3.2,1.7,6.6,1.7,10.2
			c0,3.7-0.6,7.2-1.8,10.4c30.7-2.6,57.1-25.4,62.9-57.1C-0.6,386.8-25.5,350.5-63.2,343.2z"/>
	</g>
	<path class="st24" d="M-180.6,428l50.7,38.2c3,2.2,7.2,1.6,9.5-1.3l0,0c2.2-3,1.6-7.2-1.3-9.5l-50.7-38.2c-3-2.2-7.2-1.6-9.5,1.3
		l0,0C-184.1,421.5-183.5,425.7-180.6,428z"/>
	<ellipse class="st14" cx="-102.1" cy="473.2" rx="31.8" ry="31.4"/>
	<g>
		<path class="st25" d="M-100.6,501.7c-16.7,0-30.2-13.5-30.2-30.1s13.5-30.1,30.2-30.1c16.7,0,30.2,13.5,30.2,30.1
			S-83.9,501.7-100.6,501.7z"/>
		<path class="st22" d="M-100.6,442.7c16,0,29,13,29,28.9s-13,28.9-29,28.9s-29-13-29-28.9S-116.6,442.7-100.6,442.7 M-100.6,440.3
			c-17.3,0-31.4,14-31.4,31.3c0,17.3,14.1,31.3,31.4,31.3s31.4-14,31.4-31.3C-69.2,454.3-83.3,440.3-100.6,440.3L-100.6,440.3z"/>
	</g>
	<path class="st14" d="M-69.7,460.9c-0.5,0.1-0.9,0.1-1.4,0.2c1.1,3.2,1.7,6.6,1.7,10.2c0,3.7-0.6,7.2-1.8,10.4
		c0.6-0.1,1.2-0.1,1.8-0.2c1-3.1,1.5-6.4,1.5-9.8C-67.9,467.9-68.5,464.2-69.7,460.9z"/>
	<path class="st14" d="M-133.4,469.4c0.4,0.1,0.9,0.2,1.3,0.4c0.3-3.4,1.1-6.7,2.5-10c1.4-3.4,3.4-6.3,5.7-8.9
		c-0.6-0.2-1.1-0.4-1.7-0.5c-2.1,2.5-3.9,5.3-5.2,8.4C-132.3,462.3-133.1,465.9-133.4,469.4z"/>
	<path class="st20" d="M-0.5,522.7h-93.3c-6.3-1.7-6.1-8.3-6.1-8.3v-10.6c14.1-0.3,26-9.6,30.1-22.4c30.5-2.9,56.5-25.6,62.4-57.2
		c5.7-31.1-9.9-61.2-36.6-75.1c0-0.2,0-0.4-0.1-0.6c-0.5-3.4-1.9-6.4-3.9-8.9l37-45.4c4.2-5.2,3.5-12.9-1.7-17.1l-0.6-0.5
		c0.7-0.4,1.4-0.9,1.9-1.5l4.4-5.4c2.1-2.6,1.7-6.4-0.8-8.6l-10.8-8.9c-2.6-2.1-6.4-1.7-8.6,0.8l-4.4,5.4c-0.6,0.7-1,1.5-1.2,2.3
		c-5.1-3.2-12-2.2-15.9,2.6l-99.5,121.9c-2.9,3.5-3.5,8.3-1.8,12.3c-2.3,4.5,0.7,12,7.3,17.8c6.7,5.8,14.8,7.7,18.8,4.5
		c4.7,1.6,10,0.2,13.3-3.8l39.2-47.9c3.4,1.8,7.4,2.5,11.5,1.9c2.4-0.4,4.7-1.2,6.7-2.4c18.8,9.8,29.9,31,25.9,53
		c-4,21.9-21.9,37.8-43,40.3c-4.5-12.4-16.4-21.4-30.3-21.4c-10.4,0-19.7,4.9-25.6,12.6l-46.3-34.9c-1.3-1-2.8-1.5-4.4-1.5
		c-2.3,0-4.5,1.1-5.8,2.9c-1.2,1.6-1.7,3.5-1.4,5.4s1.3,3.6,2.8,4.8l48.5,36.4c0.5,0.4,0,0,0.5,0.2c-0.4,2-0.6,4.1-0.6,6.2
		c0,0.2,0,0.4,0,0.6H-147c-0.3,0-0.7,0-1.1,0h-2.1c-7,0.5-7,6.4-7,6.4v44.2h-15c-5.1,0-9.3,4.2-9.3,9.3s4.2,9.3,9.3,9.3H-0.6
		c5.1,0,9.3-4.2,9.3-9.3S4.6,522.7-0.5,522.7z"/>
	<path class="st14" d="M-72.9,368l24.8-30.1c-3.6-4.1-8.9-6.8-14.8-6.8c-10.9,0-19.8,8.8-19.8,19.8C-82.7,358.2-78.8,364.5-72.9,368
		z"/>
	<g>
		<path class="st14" d="M-48.1,347.9l-6,17.5l2.7,1.9c5-3.6,8.4-9.4,8.4-16.1c0-1-0.1-1.9-0.2-2.8L-48.1,347.9z"/>
	</g>
	<circle class="st26" cx="-101" cy="471.6" r="21.4"/>
	<circle class="st27" cx="-63" cy="350.9" r="17"/>
	
		<ellipse transform="matrix(0.7572 0.6531 -0.6531 0.7572 232.9626 187.8878)" class="st14" cx="-136.3" cy="407.3" rx="14.5" ry="5.3"/>
	
		<ellipse transform="matrix(0.7572 0.6531 -0.6531 0.7572 233.1052 188.6659)" class="st28" cx="-137.2" cy="407.9" rx="12.5" ry="4.6"/>
	<circle class="st26" cx="-63" cy="350.9" r="12.8"/>
</g>
<g id="Layer_7" class="st0">
	<path class="st29" d="M143.5,813.6c-5.3,0-9.6-4.3-9.6-9.6v-45.4c-3.8-4.8-6.4-10.4-7.7-16.4c-0.4-2-0.7-4.1-0.8-6.2
		c-0.2-0.9-0.2-1.8-0.2-2.7v-82.4c0-6.8,5.5-12.3,12.3-12.3h3c0.8,0,1.6,0.1,2.3,0.2v-2.5c0-6.8,5.5-12.3,12.3-12.3h6.9
		c0.8,0,1.6,0.1,2.3,0.2v-2.8c0-6.8,5.5-12.3,12.3-12.3h6.9c6.8,0,12.3,5.5,12.3,12.3v1.2c0.8-0.1,1.5-0.2,2.3-0.2h6.9
		c6.8,0,12.3,5.5,12.3,12.3v49c1.6-0.8,3.5-1.2,5.4-1.2c0.7,0,1.3,0.1,2,0.2l6.3,1c3.2,0.5,6.1,2.3,8,5s2.7,5.9,2.2,9.2v0.2
		l-11.2,43c-0.3,1.7-1.9,6-21,18.1c-1.4,1.2-2.8,2.4-4.3,3.4V804c0,5.3-4.3,9.6-9.6,9.6H143.5z"/>
	<rect x="115.4" y="779.8" class="st30" width="99.7" height="132.6"/>
	<path class="st31" d="M111.9,903.9c-5,0-9-4-9-9v-36c-1.2-0.9-2.4-1.8-3.5-2.8c-16.9-10.7-18.3-14.5-18.6-16.2L71,802.2V802
		c-0.5-3,0.2-6,2-8.5s4.4-4.1,7.4-4.6l5.5-0.9c0.6-0.1,1.2-0.1,1.8-0.1c1.5,0,2.8,0.3,4.1,0.8v-42c0-6.3,5.1-11.4,11.4-11.4h6
		c0.5,0,1,0,1.4,0.1v-0.3c0-6.3,5.1-11.4,11.4-11.4h6c6.3,0,11.4,5.1,11.4,11.4v1.7c0.5-0.1,0.9-0.1,1.4-0.1h6
		c6.3,0,11.4,5.1,11.4,11.4v1.4c0.5-0.1,0.9-0.1,1.4-0.1h2.6c6.3,0,11.4,5.1,11.4,11.4V833c0,0.8-0.1,1.6-0.2,2.4
		c-0.1,1.9-0.3,3.7-0.7,5.5c-1.1,5.3-3.4,10.3-6.7,14.5V895c0,5-4,9-9,9h-45.1V903.9z"/>
	<rect x="93.9" y="869.7" class="st29" width="88.6" height="42.7"/>
	<path class="st32" d="M219.6,905c-4.4,0-8-3.6-8-8v-26.6c-0.7-0.6-1.5-1.2-2.2-1.8c-13.2-8.3-14.2-11.4-14.5-13l-7.4-28.4V827
		c-0.4-2.6,0.2-5.2,1.7-7.3s3.8-3.5,6.4-4l4.2-0.7c0.5-0.1,1.1-0.1,1.6-0.1c0.6,0,1.3,0.1,1.9,0.2V785c0-5.4,4.4-9.8,9.8-9.8h4.4
		c0.5-4.9,4.7-8.8,9.8-8.8h4.5c5.4,0,9.8,4.4,9.8,9.8l0,0h4.4c5.4,0,9.7,4.3,9.8,9.6h1.8c5.4,0,9.8,4.4,9.8,9.8v54.6
		c0,0.6-0.1,1.3-0.2,2c-0.1,1.4-0.3,2.7-0.5,4.1v0.2c-0.9,4-2.6,7.8-5.1,11.1v29.5c0,4.4-3.6,8-8,8L219.6,905L219.6,905z"/>
	<rect x="202.6" y="877.7" class="st31" width="69.7" height="34.7"/>
	<path class="st33" d="M137.5,643.6h3c4,0,7.3,3.3,7.3,7.3v-14.6c0-4,3.3-7.3,7.3-7.3h6.9c4,0,7.3,3.3,7.3,7.3v-14.9
		c0-4,3.3-7.3,7.3-7.3h6.9c4,0,7.3,3.3,7.3,7.3v13.3c0-4,3.3-7.3,7.3-7.3h6.9c4,0,7.3,3.3,7.3,7.3v66.6c0,0.4,0.3,0.7,0.2,1
		c0.3,0.3-0.1,2.2,0.2,2.5l2.8-11.2c0.6-4,4.4-6.7,8.4-6l6.3,1c4,0.6,6.7,4.4,6,8.4l-11.1,43c-0.4,2.3-10,9.4-19.1,15.1
		c-2,1.8-4.2,3.4-6.3,4.9v44c0,2.5-2.1,4.6-4.6,4.6h-51.6c-2.5,0-4.6-2.1-4.6-4.6v-47.2c-3.8-4.3-6.5-9.6-7.8-15.7l0,0
		c-0.4-1.9-0.6-3.8-0.7-5.7c-0.1-0.7-0.2-1.4-0.2-2.1v-27.8v-21.6v-33C130.2,646.9,133.5,643.6,137.5,643.6z"/>
	<rect x="120.4" y="784.8" class="st34" width="89.7" height="122.6"/>
	<path class="st35" d="M112.3,899.4c-3,0-5.5-2.5-5.5-5.5v-37.5c-1.7-1.2-3.3-2.5-4.9-3.8c-3-1.9-16.3-10.5-17.2-14L75,801.2v-0.1
		c-0.3-2.1,0.2-4.1,1.4-5.9c1.2-1.7,3-2.8,5.1-3.2l5.5-0.9c0.4-0.1,0.8-0.1,1.3-0.1c3.5,0,6.6,2.4,7.6,5.7v-50.2
		c0-4.3,3.5-7.9,7.9-7.9h6c1.8,0,3.5,0.6,4.9,1.7V735c0-4.3,3.5-7.9,7.9-7.9h6c4.3,0,7.9,3.5,7.9,7.9v6.8c1.3-1.1,3-1.7,4.9-1.7h6
		c4.3,0,7.9,3.5,7.9,7.9v6.5c1.3-1.1,3-1.7,4.9-1.7h2.6c4.3,0,7.9,3.5,7.9,7.9v71.7c0,0.6-0.1,1.3-0.2,2c-0.1,1.7-0.3,3.5-0.6,5.1
		c-1.1,5.1-3.4,9.9-6.8,13.9V894c0,3-2.5,5.5-5.5,5.5L112.3,899.4L112.3,899.4z"/>
	<path class="st35" d="M162.4,754.3h-2.6c-3.5,0-6.4,2.9-6.4,6.4v-12.8c0-3.5-2.9-6.4-6.4-6.4h-6c-3.5,0-6.4,2.9-6.4,6.4v-13.1
		c0-3.5-2.9-6.4-6.4-6.4h-6c-3.5,0-6.4,2.9-6.4,6.4v11.6c0-3.5-2.9-6.4-6.4-6.4h-6c-3.5,0-6.4,2.9-6.4,6.4v58.3
		c0,0.3-0.2,0.6-0.2,0.9c-0.2,0.3,0.1,1.9-0.2,2.2l-2.5-9.9c-0.6-3.5-3.9-5.9-7.4-5.3l-5.5,0.9c-3.5,0.6-5.9,3.9-5.3,7.4l9.8,37.6
		c0.3,2,8.8,8.3,16.7,13.3c1.8,1.6,3.6,3,5.6,4.3v38.6c0,2.2,1.8,4,4,4h45.2c2.2,0,4-1.8,4-4v-41.4c3.3-3.8,5.7-8.4,6.8-13.7l0,0
		c0.4-1.7,0.6-3.4,0.6-5c0.1-0.6,0.2-1.2,0.2-1.8v-24.4v-19v-28.9C168.8,757.2,165.9,754.3,162.4,754.3z"/>
	<path class="st36" d="M162.4,754.3h-2.6c-3.5,0-6.4,2.9-6.4,6.4v-12.8c0-3.5-2.9-6.4-6.4-6.4h-6c-3.5,0-6.4,2.9-6.4,6.4v-13.1
		c0-3.5-2.9-6.4-6.4-6.4h-6c-3.5,0-6.4,2.9-6.4,6.4v11.6c0-3.5-2.9-6.4-6.4-6.4h-6c-3.5,0-6.4,2.9-6.4,6.4v58.3
		c0,0.3-0.2,0.6-0.2,0.9c-0.2,0.3,0.1,1.9-0.2,2.2l-2.5-9.9c-0.6-3.5-3.9-5.9-7.4-5.3l-5.5,0.9c-3.5,0.6-5.9,3.9-5.3,7.4l9.8,37.6
		c0.3,2,8.8,8.3,16.7,13.3c1.8,1.6,3.6,3,5.6,4.3v38.6c0,2.2,1.8,4,4,4h45.2c2.2,0,4-1.8,4-4v-41.4c3.3-3.8,5.7-8.4,6.8-13.7l0,0
		c0.4-1.7,0.6-3.4,0.6-5c0.1-0.6,0.2-1.2,0.2-1.8v-24.4v-19v-28.9C168.8,757.2,165.9,754.3,162.4,754.3z"/>
	<rect x="98.9" y="874.7" class="st33" width="78.6" height="32.7"/>
	<path class="st35" d="M219.5,901.7c-2.3,0-4.2-1.9-4.2-4.2v-28.8c-1.3-0.9-2.6-1.9-3.8-2.9c-2.3-1.4-12.6-8.1-13.2-10.8l-7.5-28.8
		v-0.1c-0.3-1.6,0.1-3.2,1.1-4.5c0.9-1.3,2.3-2.2,3.9-2.4l5.3-1.1c0.3-0.1-0.3,0,0,0c2.7,0,5,2.1,5.7,4.7l4.5-31.8
		c0-3.3,7.5,4.4,10.8,4.4l2.5-4.9c1.4,0,1.7-4.9,2.8-4.1l-0.8-3.8c0-3.3,1.3,0.5,4.6,0.5l0.8-5c3.3,0,2-1.7,2,1.6l3.2,8.7
		c1-0.8,3.8-0.4,5.3-0.4l3,2.8c3.3,0,0.8-3.5,0.8-0.2l3.2,5.4c1-0.8,2.6,1.2,4,1.2l3.6,2.8c3.3,0-1.3-1.5-1.3,1.8l-1,48.7
		c0,0.5,1.1,2.4,1,2.9c-0.1,1.3,4.4,1.1,4.1,2.3c-0.8,3.9-2.3,7.3-4.9,10.3l3.2,31.4c0,2.3-1.9,4.2-4.2,4.2L219.5,901.7L219.5,901.7
		z"/>
	<polygon class="st35" points="209.6,864.5 209.6,883 217,883 217,868.3 	"/>
	<circle class="st37" cx="207.5" cy="803.4" r="10.1"/>
	<path class="st38" d="M257.7,790.7h-2c-2.7,0-4.8,2.2-4.8,4.8V786c0-2.7-2.2-4.8-4.8-4.8h-4.5c-2.7,0-4.8,2.2-4.8,4.8v-9.9
		c0-2.7-2.2-4.8-4.8-4.8h-4.5c-2.7,0-4.8,2.2-4.8,4.8v8.8c0-2.7-2.2-4.8-4.8-4.8h-4.5c-2.7,0-4.8,2.2-4.8,4.8V829
		c0,0.3-0.2,0.4-0.1,0.7c-0.2,0.2,0.1,1.5-0.1,1.7l-1.9-7.4c-0.4-2.6-2.8-4.6-5.5-4.2l-4.3,0.9c-2.6,0.4-4.4,2.9-4,5.6l7.4,28.4
		c0.2,1.5,6.6,6.2,12.6,10c1.3,1.2,2.8,2.3,4.2,3.2v29.2c0,1.7,1.4,3,3,3h34.2c1.7,0,3-1.4,3-3v-31.3c2.5-2.9,4.3-6.4,5.2-10.4l0,0
		c0.3-1.3,0.4-2.5,0.5-3.8c0.1-0.4,0.1-0.9,0.1-1.4v-18.4v-14.3v-21.8C262.6,792.9,260.4,790.7,257.7,790.7z"/>
	<rect x="207.6" y="882.7" class="st36" width="59.7" height="24.7"/>
	<path class="st39" d="M256.8,882.7v-16c2.5-2.9,4.3-6.4,5.2-10.4l0,0c0.3-1.3,0.4-2.5,0.5-3.8c0.1-0.4,0.1-0.9,0.1-1.4v-18.4v-14.3
		v-21.8c0-2.7-2.2-4.8-4.8-4.8h-2c-1.9,0-3.6,1.1-4.4,2.8h-0.5V787c0-2.7-2.2-4.8-4.8-4.8h-4.5c-2.3,0-4.2,1.6-4.7,3.7h-0.2v-8.7
		c0-2.7-2.2-4.8-4.8-4.8h-4.5c-2.7,0-4.8,2.2-4.8,4.8v8.7l0,0c-0.1-2.6-2.2-4.7-4.8-4.7h-4.5c-2.3,0-4.2,1.6-4.7,3.7h-8.7V760
		c2.2-1.5,4.3-3.1,6.3-4.9c9-5.7,18.7-12.9,19.1-15.1l11.2-42.9c0.6-4-2.1-7.8-6-8.4l-6.3-1c-4-0.6-7.8,2.1-8.4,6l-2.3,9.1v-1.2
		h-0.9c0-0.1,0-0.1,0-0.2v-66.6c0-4-3.3-7.3-7.3-7.3h-6.9c-4,0-7.2,3.2-7.3,7.2l0,0v-13.1c0-4-3.3-7.3-7.3-7.3h-6.9
		c-4,0-7.3,3.3-7.3,7.3v13.1h-0.2c-0.8-3.2-3.7-5.6-7.1-5.6h-6.9c-4,0-7.3,3.3-7.3,7.3v11.4h-0.7c-1.2-2.5-3.7-4.2-6.6-4.2h-3
		c-4,0-7.3,3.3-7.3,7.3v33v21.6v23.3c-0.7-0.2-1.4-0.4-2.1-0.4h-6c-3.5,0-6.4,2.9-6.4,6.4v11.5l0,0c-0.1-3.5-2.9-6.3-6.4-6.3h-6
		c-3.5,0-6.4,2.9-6.4,6.4v58.3c0,0.1,0,0.1,0,0.2h-0.8v1l-2-8c-0.6-3.5-3.9-5.9-7.4-5.3l-5.5,0.9c-3.5,0.6-5.9,3.9-5.3,7.4l9.8,37.6
		c0.3,2,8.8,8.3,16.7,13.3c1.8,1.6,3.6,3,5.6,4.3v18.4h-9.1v32.7h21.5h57.1H208h2.4h57.2v-24.7h-10.8V882.7z M210,864.1
		c0.8,0.5,1.6,1,2.3,1.5c1.3,1.2,2.8,2.3,4.2,3.2v13.9H210V864.1z"/>
	<rect x="169.4" y="783.8" class="st35" width="29.2" height="2"/>
	<rect x="108.8" y="873.8" class="st35" width="69.5" height="1.9"/>
	<rect x="217.6" y="882" class="st35" width="38.2" height="1.7"/>
	<rect x="206.2" y="882" class="st35" width="2.8" height="1.4"/>
	<rect x="177.7" y="873.8" class="st35" width="1.9" height="32.4"/>
	<rect x="114.7" y="747.5" class="st35" width="1.9" height="38.3"/>
	<rect x="134.6" y="742.3" class="st35" width="1.9" height="43.5"/>
	<rect x="153.4" y="755" class="st35" width="1.9" height="30.8"/>
	<rect x="189.8" y="635.6" class="st35" width="2" height="47.8"/>
	<rect x="168.4" y="635.6" class="st35" width="1.9" height="47.8"/>
	<rect x="146.4" y="648.1" class="st35" width="2.3" height="35.3"/>
	<rect x="206.2" y="882.7" class="st35" width="1.4" height="23.5"/>
	<rect x="221.5" y="786.8" class="st35" width="1.9" height="30"/>
	<rect x="207.3" y="785.8" class="st35" width="1.9" height="45.5"/>
	<rect x="235.8" y="786.8" class="st35" width="1.9" height="30"/>
	<rect x="250" y="794.6" class="st35" width="1.9" height="22.3"/>
	<circle class="st37" cx="164.4" cy="891.1" r="7.8"/>
	<circle class="st37" cx="255.8" cy="895" r="4.8"/>
	<polygon class="st40" points="97.8,814.3 97.1,814.3 96.9,803.5 97.8,803.5 	"/>
	<polygon class="st40" points="211.3,710.9 212.2,710.9 212.4,700.1 211.3,700.1 	"/>
	<polygon class="st35" points="208.2,831.3 207.9,831.3 207.8,820.6 208.2,820.6 	"/>
	<path class="st34" d="M207.3,814.5v10.9c0,0-0.3-4.6-1.7-5.8C204.2,818.4,207.3,814.5,207.3,814.5z"/>
	<polygon class="st38" points="207.1,827.8 208.2,832.5 205.2,832.5 206.2,828.3 	"/>
</g>
<g id="Layer_10">
	<g id="Layer_11">
	</g>
</g>
<g id="Layer_8">
	<g id="Layer_9">
	</g>
</g>
<g id="guide">
</g>
</svg>
