<?xml version="1.0" encoding="utf-8"?>
<!-- Generator: Adobe Illustrator 19.1.0, SVG Export Plug-In . SVG Version: 6.00 Build 0)  -->
<svg version="1.1" id="Layer_1" xmlns="http://www.w3.org/2000/svg" xmlns:xlink="http://www.w3.org/1999/xlink" x="0px" y="0px"
	 width="96px" height="96px" viewBox="-257 349 96 96" style="enable-background:new -257 349 96 96;" xml:space="preserve">
<style type="text/css">
	.st0{fill:#F2F2F2;}
	.st1{fill:#EF6923;}
	.st2{fill:#C4C4C4;}
	.st3{fill:#516F7E;}
	.st4{fill:#EAEAEA;}
	.st5{opacity:0.46;}
	.st6{clip-path:url(#SVGID_2_);fill:#FFFFFF;}
	.st7{opacity:0.5;}
	.st8{clip-path:url(#SVGID_4_);fill:#FFFFFF;}
	.st9{clip-path:url(#SVGID_6_);fill:#FFFFFF;}
	.st10{fill:#658796;}
</style>
<circle class="st0" cx="-209" cy="397" r="47.2"/>
<g>
	<path class="st1" d="M-190.8,407.6v10.1c0,2.1-1.2,4.5-3.3,6.6c-2.3,1.8-5.2,2.9-8.1,2.9c-3.3,0-6.2-0.9-8.6-2.9
		c-2.1-2.1-3.3-4.5-3.3-6.6v-2.9v-3.4v-2.2c4.3-0.5,7.3-2,10.3-5c2.9-2.4,4.1-5.4,4.1-9.9V392h-5.5v2.3c0,2.7-1.3,4.5-3.3,6.6
		c-2.4,1.9-5.3,2.9-8.6,2.9c-3,0-5.9-1-8.1-2.9c-2.4-1.9-3.3-3.7-3.3-6.6V392h-6v2.3c0,4.1,1.5,7.2,4.6,9.9
		c2.4,2.9,5.8,4.5,10.3,5.1v2.1v0.1v6.3c0,4.1,1.6,7.8,4.6,10.8l0.1,0.1h-0.1c3.8,2.7,8,4.1,12.8,4.1c4.4,0,8.5-1.4,12.3-4.1h0.1
		l0.1-0.1c3.4-3.4,5.1-7.1,5.1-10.8v-10.2H-190.8z"/>
	<path class="st2" d="M-199.7,392v-20.5V371c-0.1-1.2-1.1-2.2-2.3-2.2h-7.1c-1.3,0-2.3,1-2.3,2.3v1.1c0,1.3,1,2.3,2.3,2.3h3.9V392
		H-199.7z"/>
	<path class="st2" d="M-225.3,368.9h-7.1c-1.3,0-2.3,1-2.3,2.3v7.3v0.1V392h6v-9.4v-0.5v-7.5h3.4c1.3,0,2.3-1,2.3-2.3v-1.1
		C-222.9,369.9-224,368.9-225.3,368.9"/>
	<path class="st3" d="M-222,369.8l-2.5-2c-1.7-1.4-4.3-0.1-4.3,2.1v4c0,2.2,2.5,3.4,4.3,2.1l2.5-2
		C-220.6,372.9-220.6,370.8-222,369.8"/>
	<path class="st2" d="M-174.8,403.1c0,7-5.7,12.7-12.7,12.7s-12.7-5.7-12.7-12.7s5.7-12.7,12.7-12.7S-174.8,396.1-174.8,403.1"/>
	<path class="st3" d="M-177.4,403.1c0,5.6-4.5,10.1-10.1,10.1s-10.1-4.5-10.1-10.1s4.4-10.1,10-10.1
		C-182,393-177.4,397.5-177.4,403.1"/>
	<path class="st4" d="M-179.1,403.1c0,4.7-3.8,8.5-8.5,8.5c-4.7,0-8.5-3.8-8.5-8.5c0-4.7,3.8-8.5,8.5-8.5
		C-182.9,394.6-179.1,398.4-179.1,403.1"/>
	<path class="st3" d="M-183.8,403.1c0,2.1-1.7,3.8-3.8,3.8s-3.8-1.7-3.8-3.8s1.7-3.8,3.8-3.8S-183.8,401-183.8,403.1"/>
	<g class="st5">
		<g>
			<g>
				<defs>
					<rect id="SVGID_1_" x="-200.3" y="390.4" width="22.2" height="21.2"/>
				</defs>
				<clipPath id="SVGID_2_">
					<use xlink:href="#SVGID_1_"  style="overflow:visible;"/>
				</clipPath>
				<path class="st6" d="M-178,394.7c-4.7-5.3-12.7-5.7-18-1.1s-5.7,12.7-1.1,18L-178,394.7z"/>
			</g>
		</g>
	</g>
	<g class="st7">
		<g>
			<g>
				<defs>
					<rect id="SVGID_3_" x="-234.6" y="392.1" width="6" height="1.5"/>
				</defs>
				<clipPath id="SVGID_4_">
					<use xlink:href="#SVGID_3_"  style="overflow:visible;"/>
				</clipPath>
				<rect x="-234.6" y="392.1" class="st8" width="6" height="1.5"/>
			</g>
		</g>
	</g>
	<g class="st7">
		<g>
			<g>
				<defs>
					<rect id="SVGID_5_" x="-205.3" y="392.1" width="5.5" height="1.5"/>
				</defs>
				<clipPath id="SVGID_6_">
					<use xlink:href="#SVGID_5_"  style="overflow:visible;"/>
				</clipPath>
				<rect x="-205.3" y="392.1" class="st9" width="5.5" height="1.5"/>
			</g>
		</g>
	</g>
	<path class="st10" d="M-221,371.6c0-0.8-0.3-1.6-1-2.1l-2.5-2c-1.7-1.4-4.3-0.1-4.3,2.1v2H-221z"/>
	<path class="st3" d="M-211.9,369.8l2.5-2c1.7-1.4,4.3-0.1,4.3,2.1v4c0,2.2-2.5,3.4-4.3,2.1l-2.5-2
		C-213.2,372.9-213.2,370.8-211.9,369.8"/>
	<path class="st10" d="M-212.9,371.6c0-0.8,0.3-1.6,1-2.1l2.5-2c1.7-1.4,4.3-0.1,4.3,2.1v2H-212.9z"/>
</g>
</svg>
