<?xml version="1.0" encoding="utf-8"?>
<!-- Generator: Adobe Illustrator 19.1.0, SVG Export Plug-In . SVG Version: 6.00 Build 0)  -->
<svg version="1.1" id="Layer_1" xmlns="http://www.w3.org/2000/svg" xmlns:xlink="http://www.w3.org/1999/xlink" x="0px" y="0px"
	 width="33.7px" height="156px" viewBox="-288 319 33.7 156" style="enable-background:new -288 319 33.7 156;"
	 xml:space="preserve">
<style type="text/css">
	.st0{fill:#723F98;}
	.st1{fill:#FFFFFF;}
</style>
<polygon class="st0" points="-254.3,475 -288,458.7 -288,319 -254.3,319 "/>
<g>
	<path class="st1" d="M-276.4,331.7L-276.4,331.7l-0.1,6.6h-3v-10.6h2.8l4.4,4.6c0.9,0.9,1.6,1.6,2.2,2s1.2,0.6,1.9,0.6
		c1.5,0,2.2-0.8,2.2-2.4c0-1.4-0.6-2.7-1.7-4h3.1c0.9,1.4,1.4,3,1.4,4.8c0,1.7-0.4,2.9-1.2,3.9c-0.8,0.9-2,1.4-3.4,1.4
		c-1.9,0-3.8-1.1-5.8-3.4L-276.4,331.7z"/>
	<path class="st1" d="M-279.7,346.2c0-3.8,2.7-5.8,8.1-5.8c2.8,0,4.9,0.5,6.4,1.6c1.5,1,2.2,2.5,2.2,4.5c0,3.8-2.7,5.6-8.2,5.6
		c-2.7,0-4.8-0.5-6.3-1.5C-279,349.6-279.7,348.1-279.7,346.2z M-265.7,346.4c0-1.5-1.9-2.3-5.8-2.3c-3.6,0-5.5,0.8-5.5,2.3
		s1.9,2.2,5.6,2.2C-267.6,348.5-265.7,347.8-265.7,346.4z"/>
	<path class="st1" d="M-279.4,365v-10.2h2.8v3.3h10.1l-0.7-3.4h2.9l1.4,7h-13.6v3.3L-279.4,365L-279.4,365z"/>
	<g>
		<path class="st1" d="M-279,368.4h3.1c-0.7,1.1-1,2.3-1,3.6c0,1,0.2,1.7,0.7,2.2c0.5,0.5,1.1,0.8,1.8,0.8c1.6,0,2.4-1.1,2.4-3.4
			c0-0.7-0.1-1.7-0.2-2.7h9.2v9.1h-3v-6h-3.3c0,0.5,0.1,0.9,0.1,1.4c0,1.7-0.4,3-1.3,4c-0.9,1-2.1,1.4-3.6,1.4c-1.7,0-3-0.6-4.1-1.7
			c-1-1.1-1.6-2.7-1.6-4.6C-279.7,370.8-279.5,369.5-279,368.4z"/>
	</g>
</g>
</svg>
