<?xml version="1.0" encoding="utf-8"?>
<!-- Generator: Adobe Illustrator 19.1.0, SVG Export Plug-In . SVG Version: 6.00 Build 0)  -->
<svg version="1.1" id="Layer_1" xmlns="http://www.w3.org/2000/svg" xmlns:xlink="http://www.w3.org/1999/xlink" x="0px" y="0px"
	 width="33.7px" height="156px" viewBox="-288 319 33.7 156" style="enable-background:new -288 319 33.7 156;"
	 xml:space="preserve">
<style type="text/css">
	.st0{fill:#4B2E82;}
	.st1{fill:#FFFFFF;}
</style>
<polygon class="st0" points="-254.3,475 -288,458.7 -288,319 -254.3,319 "/>
<g>
	<path class="st1" d="M-279.1,338.5v-10h2.8v3.3h9.9l-0.7-3.4h2.8l1.4,6.9h-13.4v3.3H-279.1z"/>
	<path class="st1" d="M-278.8,341.4h2.9c-0.5,0.8-0.8,1.8-0.8,3c0,1.2,0.4,2.2,1.2,2.8c0.8,0.7,2,1,3.5,1l0-0.1
		c-1-0.7-1.6-1.8-1.6-3.2c0-1.3,0.5-2.4,1.4-3.2c0.9-0.9,2.1-1.3,3.5-1.3c1.7,0,3,0.5,4.1,1.6s1.5,2.4,1.5,4c0,1.7-0.6,3-1.9,4.1
		s-3.1,1.5-5.5,1.5c-2.8,0-5-0.6-6.6-1.8s-2.4-2.9-2.4-5.1C-279.4,343.4-279.2,342.3-278.8,341.4z M-265.7,346
		c0-0.6-0.2-1.1-0.7-1.5c-0.5-0.4-1.1-0.6-1.9-0.6c-0.8,0-1.4,0.2-1.9,0.6c-0.5,0.4-0.7,0.9-0.7,1.6c0,0.6,0.2,1.1,0.7,1.5
		c0.4,0.4,1,0.6,1.7,0.6c0.8,0,1.5-0.2,2.1-0.6C-266,347.1-265.7,346.6-265.7,346z"/>
	<path class="st1" d="M-270.9,356.8L-270.9,356.8c0.8-1.8,2-2.7,3.7-2.7c1.2,0,2.2,0.5,3,1.5c0.8,1,1.2,2.2,1.2,3.8
		c0,1.6-0.4,2.8-1.1,3.8c-0.7,0.9-1.7,1.4-2.9,1.4c-1.7,0-3-1-3.8-3h0c-0.3,1.1-0.8,1.9-1.6,2.5s-1.5,0.9-2.5,0.9
		c-1.4,0-2.5-0.5-3.3-1.6c-0.8-1-1.2-2.5-1.2-4.3c0-1.6,0.4-2.9,1.2-3.9s1.8-1.5,3.1-1.5C-273.2,353.6-271.8,354.6-270.9,356.8z
		 M-272.2,359.1c-0.6-1.5-1.5-2.2-2.7-2.2c-0.6,0-1.1,0.2-1.4,0.7c-0.4,0.5-0.6,1-0.6,1.7c0,0.7,0.2,1.3,0.6,1.7
		c0.4,0.4,0.9,0.6,1.5,0.6C-273.7,361.5-272.8,360.7-272.2,359.1z M-267.3,361.1c0.5,0,1-0.2,1.3-0.5c0.3-0.3,0.5-0.8,0.5-1.4
		c0-0.6-0.2-1-0.5-1.4s-0.8-0.5-1.3-0.5c-1,0-1.7,0.6-2.2,1.9C-269,360.5-268.3,361.1-267.3,361.1z"/>
	<path class="st1" d="M-278.7,367.5h3c-0.7,1.1-1,2.2-1,3.5c0,0.9,0.2,1.6,0.7,2.2s1,0.8,1.8,0.8c1.6,0,2.4-1.1,2.4-3.3
		c0-0.7-0.1-1.6-0.2-2.6h8.9v8.8h-2.9v-5.8h-3.2c0,0.5,0.1,0.9,0.1,1.3c0,1.6-0.4,2.9-1.3,3.8c-0.9,0.9-2,1.4-3.5,1.4
		c-1.6,0-2.9-0.5-3.9-1.6s-1.5-2.6-1.5-4.5C-279.4,369.8-279.2,368.5-278.7,367.5z"/>
</g>
</svg>
