<?xml version="1.0" encoding="utf-8"?>
<!-- Generator: Adobe Illustrator 19.1.0, SVG Export Plug-In . SVG Version: 6.00 Build 0)  -->
<svg version="1.1" id="Layer_1" xmlns="http://www.w3.org/2000/svg" xmlns:xlink="http://www.w3.org/1999/xlink" x="0px" y="0px"
	 width="33.7px" height="156px" viewBox="-288 319 33.7 156" style="enable-background:new -288 319 33.7 156;"
	 xml:space="preserve">
<style type="text/css">
	.st0{fill:#723F98;}
	.st1{fill:#FFFFFF;}
</style>
<polygon class="st0" points="-254.3,475 -288,458.7 -288,319 -254.3,319 "/>
<g>
	<path class="st1" d="M-279.1,338.5v-10h2.8v3.3h9.9l-0.7-3.4h2.8l1.4,6.9h-13.4v3.3H-279.1z"/>
	<path class="st1" d="M-278.8,341.4h2.9c-0.5,0.8-0.8,1.8-0.8,3c0,1.2,0.4,2.2,1.2,2.8c0.8,0.7,2,1,3.5,1l0-0.1
		c-1-0.7-1.6-1.8-1.6-3.2c0-1.3,0.5-2.4,1.4-3.2c0.9-0.9,2.1-1.3,3.5-1.3c1.7,0,3,0.5,4.1,1.6s1.5,2.4,1.5,4c0,1.7-0.6,3-1.9,4.1
		s-3.1,1.5-5.5,1.5c-2.8,0-5-0.6-6.6-1.8s-2.4-2.9-2.4-5.1C-279.4,343.4-279.2,342.3-278.8,341.4z M-265.7,346
		c0-0.6-0.2-1.1-0.7-1.5c-0.5-0.4-1.1-0.6-1.9-0.6c-0.8,0-1.4,0.2-1.9,0.6c-0.5,0.4-0.7,0.9-0.7,1.6c0,0.6,0.2,1.1,0.7,1.5
		c0.4,0.4,1,0.6,1.7,0.6c0.8,0,1.5-0.2,2.1-0.6C-266,347.1-265.7,346.6-265.7,346z"/>
	<path class="st1" d="M-263.4,363.8h-2.9c0.5-0.8,0.7-1.7,0.7-2.6c0-1.2-0.4-2.1-1.3-2.8c-0.9-0.7-2.1-1.1-3.6-1.1v0.1
		c1.1,0.8,1.7,1.9,1.7,3.3c0,1.3-0.5,2.4-1.4,3.2s-2.1,1.2-3.6,1.2c-1.6,0-2.9-0.5-4-1.5c-1.1-1-1.6-2.3-1.6-3.9
		c0-1.8,0.6-3.2,1.9-4.2c1.3-1,3.1-1.5,5.4-1.5c2.7,0,4.9,0.6,6.6,1.9c1.6,1.3,2.5,3,2.5,5.3C-263,362.2-263.2,363.1-263.4,363.8z
		 M-271.5,359.4c0-0.6-0.2-1.2-0.7-1.5c-0.4-0.4-1-0.6-1.7-0.6c-0.8,0-1.4,0.2-2,0.6s-0.8,0.9-0.8,1.5c0,0.6,0.2,1.1,0.7,1.5
		c0.5,0.4,1.1,0.6,1.9,0.6C-272.4,361.5-271.5,360.8-271.5,359.4z"/>
	<path class="st1" d="M-278.8,367.5h2.9c-0.5,0.8-0.8,1.8-0.8,3c0,1.2,0.4,2.2,1.2,2.8c0.8,0.7,2,1,3.5,1l0-0.1
		c-1-0.7-1.6-1.8-1.6-3.2c0-1.3,0.5-2.4,1.4-3.2c0.9-0.9,2.1-1.3,3.5-1.3c1.7,0,3,0.5,4.1,1.6s1.5,2.4,1.5,4c0,1.7-0.6,3-1.9,4.1
		s-3.1,1.5-5.5,1.5c-2.8,0-5-0.6-6.6-1.8s-2.4-2.9-2.4-5.1C-279.4,369.5-279.2,368.4-278.8,367.5z M-265.7,372
		c0-0.6-0.2-1.1-0.7-1.5c-0.5-0.4-1.1-0.6-1.9-0.6c-0.8,0-1.4,0.2-1.9,0.6c-0.5,0.4-0.7,0.9-0.7,1.6c0,0.6,0.2,1.1,0.7,1.5
		c0.4,0.4,1,0.6,1.7,0.6c0.8,0,1.5-0.2,2.1-0.6C-266,373.2-265.7,372.7-265.7,372z"/>
</g>
</svg>
