<?xml version="1.0" encoding="utf-8"?>
<!-- Generator: Adobe Illustrator 19.1.0, SVG Export Plug-In . SVG Version: 6.00 Build 0)  -->
<svg version="1.1" id="Layer_1" xmlns="http://www.w3.org/2000/svg" xmlns:xlink="http://www.w3.org/1999/xlink" x="0px" y="0px"
	 width="33.7px" height="156px" viewBox="-288 319 33.7 156" style="enable-background:new -288 319 33.7 156;"
	 xml:space="preserve">
<style type="text/css">
	.st0{fill:#723F98;}
	.st1{fill:#FFFFFF;}
</style>
<polygon class="st0" points="-254.3,475 -288,458.7 -288,319 -254.3,319 "/>
<g>
	<path class="st1" d="M-279.1,338.5v-10h2.8v3.3h9.9l-0.7-3.4h2.8l1.4,6.9h-13.4v3.3H-279.1z"/>
	<path class="st1" d="M-278.8,341.4h2.9c-0.5,0.8-0.8,1.8-0.8,3c0,1.2,0.4,2.2,1.2,2.8c0.8,0.7,2,1,3.5,1l0-0.1
		c-1-0.7-1.6-1.8-1.6-3.2c0-1.3,0.5-2.4,1.4-3.2c0.9-0.9,2.1-1.3,3.5-1.3c1.7,0,3,0.5,4.1,1.6s1.5,2.4,1.5,4c0,1.7-0.6,3-1.9,4.1
		s-3.1,1.5-5.5,1.5c-2.8,0-5-0.6-6.6-1.8s-2.4-2.9-2.4-5.1C-279.4,343.4-279.2,342.3-278.8,341.4z M-265.7,346
		c0-0.6-0.2-1.1-0.7-1.5c-0.5-0.4-1.1-0.6-1.9-0.6c-0.8,0-1.4,0.2-1.9,0.6c-0.5,0.4-0.7,0.9-0.7,1.6c0,0.6,0.2,1.1,0.7,1.5
		c0.4,0.4,1,0.6,1.7,0.6c0.8,0,1.5-0.2,2.1-0.6C-266,347.1-265.7,346.6-265.7,346z"/>
	<path class="st1" d="M-278.8,354.4h2.9c-0.5,0.8-0.8,1.8-0.8,3c0,1.2,0.4,2.2,1.2,2.8c0.8,0.7,2,1,3.5,1l0-0.1
		c-1-0.7-1.6-1.8-1.6-3.2c0-1.3,0.5-2.4,1.4-3.2c0.9-0.9,2.1-1.3,3.5-1.3c1.7,0,3,0.5,4.1,1.6s1.5,2.4,1.5,4c0,1.7-0.6,3-1.9,4.1
		s-3.1,1.5-5.5,1.5c-2.8,0-5-0.6-6.6-1.8s-2.4-2.9-2.4-5.1C-279.4,356.5-279.2,355.4-278.8,354.4z M-265.7,359
		c0-0.6-0.2-1.1-0.7-1.5c-0.5-0.4-1.1-0.6-1.9-0.6c-0.8,0-1.4,0.2-1.9,0.6c-0.5,0.4-0.7,0.9-0.7,1.6c0,0.6,0.2,1.1,0.7,1.5
		c0.4,0.4,1,0.6,1.7,0.6c0.8,0,1.5-0.2,2.1-0.6C-266,360.1-265.7,359.6-265.7,359z"/>
	<path class="st1" d="M-275.8,378.1v-1.9h-3.4V373h3.4v-6.9h2.2l10.3,6.7v3.4h-10v1.9H-275.8z M-266.8,373.1L-266.8,373.1
		c-0.3-0.2-0.7-0.4-1.2-0.7l-5.3-3.4v4h5C-267.9,373-267.3,373-266.8,373.1z"/>
</g>
</svg>
