<?xml version="1.0" encoding="utf-8"?>
<!-- Generator: Adobe Illustrator 19.1.0, SVG Export Plug-In . SVG Version: 6.00 Build 0)  -->
<svg version="1.1" id="Layer_1" xmlns="http://www.w3.org/2000/svg" xmlns:xlink="http://www.w3.org/1999/xlink" x="0px" y="0px"
	 width="33.7px" height="156px" viewBox="0 0 33.7 156" style="enable-background:new 0 0 33.7 156;" xml:space="preserve">
<style type="text/css">
	.st0{fill:#723F98;}
	.st1{fill:#FFFFFF;}
</style>
<polygon class="st0" points="33.7,156 0,139.7 0,0 33.7,0 "/>
<g>
	<path class="st1" d="M8.9,19.3V9.4h2.7v3.3h9.8l-0.7-3.3h2.8l1.4,6.8H11.6v3.2H8.9z"/>
	<path class="st1" d="M9.4,22.2h2.8c-0.5,0.8-0.8,1.8-0.8,3c0,1.2,0.4,2.1,1.2,2.8c0.8,0.7,2,1,3.5,1l0-0.1c-1-0.7-1.5-1.7-1.5-3.2
		c0-1.3,0.4-2.4,1.3-3.2c0.9-0.8,2.1-1.3,3.5-1.3c1.7,0,3,0.5,4,1.5c1,1,1.5,2.4,1.5,4c0,1.7-0.6,3-1.9,4c-1.3,1-3.1,1.5-5.5,1.5
		c-2.8,0-5-0.6-6.5-1.8c-1.6-1.2-2.3-2.9-2.3-5C8.7,24.2,9,23.1,9.4,22.2z M22.4,26.8c0-0.6-0.2-1.1-0.7-1.5
		c-0.5-0.4-1.1-0.6-1.9-0.6c-0.8,0-1.4,0.2-1.9,0.6c-0.5,0.4-0.7,0.9-0.7,1.6c0,0.6,0.2,1.1,0.7,1.5c0.4,0.4,1,0.6,1.6,0.6
		c0.8,0,1.5-0.2,2.1-0.6C22.1,27.9,22.4,27.4,22.4,26.8z"/>
	<path class="st1" d="M9.6,35.2h3c-0.7,1.1-1,2.2-1,3.4c0,0.9,0.2,1.6,0.7,2.1c0.4,0.5,1,0.8,1.8,0.8c1.6,0,2.3-1.1,2.3-3.3
		c0-0.7-0.1-1.6-0.2-2.6h8.8v8.7H22v-5.7h-3.1c0,0.5,0.1,0.9,0.1,1.3c0,1.6-0.4,2.9-1.3,3.8c-0.8,0.9-2,1.4-3.4,1.4
		c-1.6,0-2.9-0.5-3.9-1.6S8.9,40.8,8.9,39C8.9,37.5,9.1,36.2,9.6,35.2z"/>
	<path class="st1" d="M24.6,57.3h-2.9c0.5-0.8,0.7-1.7,0.7-2.6c0-1.2-0.4-2.1-1.3-2.8c-0.9-0.7-2.1-1.1-3.6-1.1v0.1
		c1.1,0.8,1.7,1.9,1.7,3.3c0,1.3-0.4,2.4-1.3,3.1c-0.9,0.8-2.1,1.2-3.5,1.2c-1.6,0-2.9-0.5-3.9-1.5c-1-1-1.6-2.3-1.6-3.9
		c0-1.8,0.6-3.1,1.9-4.1c1.3-1,3.1-1.5,5.4-1.5c2.7,0,4.9,0.6,6.5,1.9c1.6,1.3,2.4,3,2.4,5.2C25,55.7,24.9,56.6,24.6,57.3z M16.6,53
		c0-0.6-0.2-1.1-0.7-1.5c-0.4-0.4-1-0.6-1.7-0.6c-0.8,0-1.4,0.2-2,0.6s-0.8,0.9-0.8,1.5c0,0.6,0.2,1.1,0.7,1.5
		c0.5,0.4,1.1,0.6,1.9,0.6C15.7,55,16.6,54.3,16.6,53z"/>
</g>
</svg>
