<?xml version="1.0" encoding="utf-8"?>
<!-- Generator: Adobe Illustrator 19.1.0, SVG Export Plug-In . SVG Version: 6.00 Build 0)  -->
<svg version="1.1" id="Layer_1" xmlns="http://www.w3.org/2000/svg" xmlns:xlink="http://www.w3.org/1999/xlink" x="0px" y="0px"
	 width="218px" height="312px" viewBox="-196 241 218 312" style="enable-background:new -196 241 218 312;" xml:space="preserve">
<style type="text/css">
	.st0{display:none;}
	.st1{display:inline;}
	.st2{fill:#1C75BC;}
	.st3{fill:#17669B;}
	.st4{fill:#60AEE1;}
	.st5{fill:#A7A9AC;}
	.st6{fill:#F1F2F2;}
	.st7{fill:#0F4968;}
	.st8{fill:#939598;}
	.st9{fill:#58595B;}
	.st10{fill:#3DB0D7;}
	.st11{fill:#14597F;}
	.st12{fill:#2499C1;}
	.st13{fill:#124960;}
	.st14{fill:#FFFFFF;}
	.st15{fill:#FFEEDD;}
	.st16{fill:#FBBA63;}
	.st17{fill:#F3E3FF;}
	.st18{fill:#B0E2F6;}
	.st19{fill:#E2E2E2;}
	.st20{fill:#D1D3D4;}
	.st21{fill:#FEF8BC;}
	.st22{fill:#F8F8D3;}
	.st23{fill:#FEF9E2;}
	.st24{fill:#F2F2F2;}
	.st25{fill:#D1D3D4;stroke:#262262;stroke-width:2;stroke-miterlimit:10;}
	.st26{fill:#C2D34A;}
	.st27{fill:#FFD40B;}
	.st28{fill:#B77DD8;}
	.st29{fill:none;stroke:#262262;stroke-width:2;stroke-miterlimit:10;}
	.st30{fill:#262262;}
	.st31{fill:#FFFFFF;stroke:#262262;stroke-width:2;stroke-miterlimit:10;}
	.st32{display:none;fill:#D1D3D4;stroke:#262262;stroke-width:2;stroke-miterlimit:10;}
	.st33{display:none;fill:#FFFFFF;stroke:#262262;stroke-width:1.2901;stroke-miterlimit:10;}
	.st34{fill:#FFFFFF;stroke:#2B3990;stroke-width:2;stroke-miterlimit:10;}
	.st35{fill:#2B3990;}
	.st36{fill:#FFFFFF;stroke:#2B3990;stroke-width:2.3109;stroke-miterlimit:10;}
	.st37{fill:#FFFFFF;stroke:#2B3990;stroke-width:2.0051;stroke-miterlimit:10;}
</style>
<g id="Layer_3" class="st0">
	<g class="st1">
		<g>
			<path class="st2" d="M-144.6,257.6c-13.7,1.4-23.7,13.7-22.3,27.3l1,10l6.6,64l14.1-1.5l-6.6-64h-0.1l-0.7-6.9
				c-0.8-7.9,5-15,12.8-15.8l9.3-1l-1.4-13.6L-144.6,257.6z"/>
			<path class="st3" d="M-140,270.4l9-0.9l-0.7-7.2l-9.9,1c-10.5,1.1-18.2,10.6-17.1,21.1l0.8,7.7l5.1,49.2l0,0l2.3,21.6l5.8-0.6
				l-2.3-22.1l0,0l-4.9-47.2h-0.1l-0.7-6.9C-153.7,278.4-147.9,271.3-140,270.4z"/>
			<path class="st4" d="M-163.1,295l-1-10c-1.4-13.7,8.6-26,22.3-27.4l10.1-1v-0.3l-12.9,1.3c-13.7,1.4-23.7,13.7-22.3,27.3l1,10
				l6.6,64l2.8-0.3L-163.1,295z"/>
			<path class="st5" d="M-122.7,274h-4.9c-6.2,0-11.3-5.1-11.3-11.3l0,0c0-6.2,5.1-11.3,11.3-11.3h4.9c6.2,0,11.3,5.1,11.3,11.3l0,0
				C-111.4,268.9-116.5,274-122.7,274z"/>
			<path class="st5" d="M-122.7,274h-4.9c-6.2,0-11.3-5.1-11.3-11.3l0,0c0-6.2,5.1-11.3,11.3-11.3h4.9c6.2,0,11.3,5.1,11.3,11.3l0,0
				C-111.4,268.9-116.5,274-122.7,274z"/>
			<path class="st6" d="M-127.6,253.4h4.9c5.9,0,10.7,4.5,11.3,10.3c0-0.3,0.1-0.7,0.1-1.1c0-6.2-5.1-11.3-11.3-11.3h-4.9
				c-6.2,0-11.3,5.1-11.3,11.3c0,0.4,0,0.7,0.1,1.1C-138.4,258-133.5,253.4-127.6,253.4z"/>
			<path class="st7" d="M-136.6,262.8l-3.2,0.3c0.1,2.7,1,5.1,2.6,7l5.3-0.5l-0.4-4C-134,265-135.5,264.1-136.6,262.8z"/>
			<path class="st8" d="M-122.7,266.2h-4.9c-4.8,0-9-3.1-10.6-7.4c-0.5,1.2-0.7,2.6-0.7,4c0,6.2,5.1,11.3,11.3,11.3h4.9
				c6.2,0,11.3-5.1,11.3-11.3c0-1.4-0.3-2.7-0.7-4C-113.7,263.1-117.8,266.2-122.7,266.2z"/>
			<path class="st5" d="M-138.9,262.2c0,0.3,0,0.6,0.1,1h27.5c0-0.3,0.1-0.6,0.1-1c0-1.9-0.5-3.6-1.5-5.1h-24.8
				C-138.4,258.6-138.9,260.4-138.9,262.2z"/>
			<ellipse class="st9" cx="-118.2" cy="262.6" rx="2.6" ry="4.6"/>
			<ellipse cx="-117.9" cy="262.6" rx="1.5" ry="2.8"/>
			<path class="st8" d="M-120.7,262.6c0-2.1,0.8-3.9,1.9-4.4c-0.2-0.1-0.4-0.2-0.7-0.2c-1.4,0-2.6,2.1-2.6,4.6s1.1,4.6,2.6,4.6
				c0.2,0,0.5-0.1,0.7-0.2C-119.9,266.5-120.7,264.7-120.7,262.6z"/>
		</g>
		<g>
			<path class="st2" d="M-37,257.6c13.7,1.4,23.7,13.7,22.3,27.4l-1,10l-6.6,64l-14.1-1.5l6.6-64h0.1l0.7-6.9
				c0.8-7.9-5-15-12.8-15.8l-9.3-1l1.4-13.6L-37,257.6z"/>
			<path class="st3" d="M-41.6,270.4l-9-0.9l0.7-7.2l9.9,1c10.5,1.1,18.2,10.6,17.1,21.1l-0.8,7.7l-5.1,49.2l0,0L-31,363l-5.8-0.6
				l2.3-22.1l0,0l4.9-47.2h0.1l0.7-6.9C-28,278.4-33.7,271.3-41.6,270.4z"/>
			<path class="st4" d="M-18.6,295l1-10c1.4-13.7-8.6-26-22.3-27.4l-10.1-1v-0.3l12.9,1.3c13.7,1.4,23.7,13.7,22.3,27.4l-1,10
				l-6.6,64l-2.8-0.3L-18.6,295z"/>
			<path class="st5" d="M-59,274h4.9c6.2,0,11.3-5.1,11.3-11.3l0,0c0-6.2-5.1-11.3-11.3-11.3H-59c-6.2,0-11.3,5.1-11.3,11.3l0,0
				C-70.3,268.9-65.2,274-59,274z"/>
			<path class="st5" d="M-59,274h4.9c6.2,0,11.3-5.1,11.3-11.3l0,0c0-6.2-5.1-11.3-11.3-11.3H-59c-6.2,0-11.3,5.1-11.3,11.3l0,0
				C-70.3,268.9-65.2,274-59,274z"/>
			<path class="st6" d="M-54,253.4h-5c-5.9,0-10.7,4.5-11.3,10.3c0-0.3-0.1-0.7-0.1-1.1c0-6.2,5.1-11.3,11.3-11.3h4.9
				c6.2,0,11.3,5.1,11.3,11.3c0,0.4,0,0.7-0.1,1.1C-43.3,258-48.1,253.4-54,253.4z"/>
			<path class="st7" d="M-45,262.8l3.2,0.3c-0.1,2.7-1,5.1-2.6,7l-5.3-0.5l0.4-4C-47.6,265-46.2,264.1-45,262.8z"/>
			<path class="st8" d="M-59,266.2h4.9c4.8,0,9-3.1,10.6-7.4c0.5,1.2,0.7,2.6,0.7,4c0,6.2-5.1,11.3-11.3,11.3H-59
				c-6.2,0-11.3-5.1-11.3-11.3c0-1.4,0.3-2.7,0.7-4C-67.9,263.1-63.8,266.2-59,266.2z"/>
			<path class="st5" d="M-42.7,262.2c0,0.3,0,0.6-0.1,1h-27.5c0-0.3-0.1-0.6-0.1-1c0-1.9,0.5-3.6,1.5-5.1h24.6
				C-43.2,258.6-42.7,260.4-42.7,262.2z"/>
			<ellipse class="st9" cx="-63.5" cy="262.6" rx="2.6" ry="4.6"/>
			<ellipse cx="-63.7" cy="262.6" rx="1.5" ry="2.8"/>
			<path class="st8" d="M-60.9,262.6c0-2.1-0.8-3.9-1.9-4.4c0.2-0.1,0.4-0.2,0.7-0.2c1.4,0,2.6,2.1,2.6,4.6s-1.1,4.6-2.6,4.6
				c-0.2,0-0.5-0.1-0.7-0.2C-61.7,266.5-60.9,264.7-60.9,262.6z"/>
		</g>
		<path class="st10" d="M-39,433.6L-39,433.6h-0.3c-1.3-0.1-2.5-0.1-3.8-0.1c-0.8,0-1.6,0-2.4,0.1h-1.2c-0.3,0-0.5-0.1-0.8-0.1
			h-81.6c-3.7,0-6.8,3.1-6.8,6.8c0,3.7,3.1,6.8,6.8,6.8h81.5c0.2,0,0.3,0,0.5,0l8.4-0.1c20.7,2.2,36.8,19.8,36.8,41.1
			c0,22.8-18.5,41.3-41.3,41.3c-21.3,0-38.8-16.1-41.1-36.7c-0.6,3.1-3.4,5.5-6.7,5.5c-3.3,0-6-2.3-6.7-5.4
			c2.4,28,25.8,49.9,54.4,49.9c30.2,0,54.6-24.5,54.6-54.6C11.5,459.3-10.7,435.7-39,433.6z"/>
		<rect x="-124" y="442.6" class="st11" width="83.6" height="4.5"/>
		<path class="st11" d="M1.5,487.6c0-24.9-20.2-45-45-45c-7.1,0-13.8,1.6-19.7,4.5h15.7c0.2,0,0.3,0,0.5,0l8.4-0.1
			c20.7,2.2,36.8,19.8,36.8,41.1c0,22.8-18.5,41.3-41.3,41.3c-21.3,0-38.8-16.1-41.1-36.7c0,0.1-0.1,0.2-0.1,0.3
			c0.1-0.5,0.2-1.1,0.2-1.6v-23.5c-2.9,6-4.6,12.7-4.6,19.8c0,24.9,20.2,45,45,45C-18.7,532.6,1.5,512.5,1.5,487.6z M-87.3,497.1
			c0.1-0.1,0.2-0.1,0.3-0.2C-87.1,497-87.2,497-87.3,497.1z M-86.6,496.6c0.1-0.1,0.3-0.2,0.4-0.3
			C-86.3,496.4-86.5,496.5-86.6,496.6z M-86,496.1c0.2-0.2,0.3-0.4,0.5-0.6C-85.6,495.7-85.8,495.9-86,496.1z M-84.2,493
			c-0.1,0.3-0.2,0.7-0.3,1C-84.4,493.6-84.3,493.3-84.2,493z M-84.6,494c-0.1,0.3-0.3,0.6-0.5,0.9C-84.9,494.6-84.7,494.3-84.6,494z
			 M-85.1,494.9c-0.1,0.1-0.2,0.3-0.3,0.4C-85.3,495.2-85.2,495.1-85.1,494.9z"/>
		<rect x="-124.6" y="433.6" class="st12" width="86.1" height="5"/>
		<path class="st12" d="M-90.9,498.1L-90.9,498.1c-3.7,0-6.8-3.1-6.8-6.8v-81.5c0-3.7,3.1-6.8,6.8-6.8l0,0c3.7,0,6.8,3.1,6.8,6.8
			v81.5C-84,495.1-87.1,498.1-90.9,498.1z"/>
		<rect x="-87.3" y="406.3" class="st11" width="3.2" height="90.9"/>
		<path class="st10" d="M-87.3,498.1v-91.9H-92l-0.1,91.8v-1.1c0,0,0.3,3.1,0.7,3.9c0.3,0.8,3.2-1.7,3.2-1.7l1.2,0.3L-87.3,498.1z"
			/>
		<path class="st11" d="M-36.1,353.2c-2.8,26.7-28.7,45-54.7,43.8c-25.1,1-52-17.2-54.7-43.8l-13.9,3.9
			c3.6,34.5,34.7,54.9,68.6,54.5c35.1,0.1,65-20,68.6-54.5L-36.1,353.2z"/>
		<path class="st11" d="M-36.1,353.2c-2.8,26.7-28.7,45-54.7,43.8c-25.1,1-52-17.2-54.7-43.8l-13.9,3.9
			c3.6,34.5,34.7,54.9,68.6,54.5c35.1,0.1,65-20,68.6-54.5L-36.1,353.2z"/>
		<path class="st12" d="M-25.1,356.3c-4.7,31.5-32.9,51.4-65.7,51.4c-31.7,0.3-61-19.8-65.7-51.4l-2.9,0.8
			c3.6,34.5,34.7,54.9,68.6,54.5c35.1,0.1,65-20,68.6-54.5L-25.1,356.3z"/>
		<path class="st13" d="M-36.1,353.2c-2.8,26.7-28.7,45-54.7,43.8c-25.1,1-52-17.2-54.7-43.8l-5.8,1.6c3,29.3,32.6,49.2,60.1,48.1
			c28.6,1.2,57.6-18.9,60.7-48.2"/>
		<circle class="st11" cx="-154.9" cy="440.8" r="31.3"/>
		<circle class="st12" cx="-154.9" cy="441" r="26.4"/>
		<circle class="st14" cx="-154.9" cy="441.4" r="18.2"/>
		<path class="st12" d="M-39.2,433.6L-39.2,433.6h-0.3c-0.1,0-0.2,0-0.2,0v4.8c25.3,2.1,45.2,23.3,45.2,49.2
			c0,27.3-22.1,49.4-49.4,49.4c-23.7,0-43.4-16.7-48.2-38.9c-2.8-0.5-5-2.6-5.6-5.3c2.4,28,25.8,49.9,54.4,49.9
			c30.2,0,54.6-24.5,54.6-54.6C11.3,459.3-10.9,435.7-39.2,433.6z"/>
		<polygon class="st12" points="-97.7,491.8 -97.6,493.5 -95.6,498 -92,498.1 -94.2,493.5 		"/>
		<path class="st10" d="M-92.1,496.5c0,0,0,1.1,0,1.7s1.1,0.6,1.1,0.6l0.4-1.5L-92.1,496.5z"/>
		<path class="st10" d="M-92.1,498.2c0,0,0.3,1.9,0.8,1.7s-0.2-2.3-0.2-2.3L-92.1,498.2z"/>
	</g>
</g>
<g id="icon1">
	<g id="Layer_5">
		<path class="st15" d="M-91.8,417.3c-18.2,0-35.5-5.6-48.8-15.7c-14.5-11-23.1-26.3-24.9-44.2c-0.3-2.9,1.5-5.6,4.3-6.4l13.9-3.9
			c0.5-0.2,1.1-0.2,1.6-0.2c1.2,0,2.4,0.4,3.4,1c1.5,1,2.4,2.6,2.6,4.3c2.5,23.8,26.2,38.5,46.8,38.5c0.6,0,1.1,0,1.7,0
			c0.1,0,0.2,0,0.2,0c0.1,0,0.2,0,0.3,0c0.7,0,1.4,0,2,0l0,0c20.9,0,44-14.4,46.5-38.5c0.2-1.8,1.1-3.4,2.6-4.3c1-0.7,2.2-1,3.4-1
			c0.5,0,1.1,0.1,1.6,0.2l13.9,3.9c2.8,0.8,4.6,3.5,4.3,6.4c-1.9,18.1-10.4,33.4-24.8,44.3c-13.2,10-30.9,15.6-49.6,15.6
			C-90.8,417.3-91.8,417.3-91.8,417.3z"/>
		<path class="st16" d="M-36.2,352.9c-2.8,26.7-28.7,45-54.7,43.8c-25.1,1-52-17.2-54.7-43.8l-13.9,3.9
			c3.6,34.5,34.7,54.9,68.6,54.5c35.1,0.1,65-20,68.6-54.5L-36.2,352.9z"/>
		<g>
			<path class="st17" d="M-22.8,361.1c-0.5,0-1.1-0.1-1.6-0.2l-13.1-3.6c-2.8-0.8-4.7-3.5-4.4-6.4l6-58.4c0-0.3,0.1-0.6,0.1-0.8
				l0.6-6.1c0.2-2.2-0.4-4.4-1.8-6.1c-1.4-1.7-3.4-2.8-5.6-3.1l-9.3-1c-3.3-0.3-5.7-3.3-5.4-6.6l1.4-13.6c0.2-1.6,0.9-3,2.2-4
				c1.1-0.9,2.4-1.3,3.8-1.3c0.2,0,0.4,0,0.6,0l12.9,1.3c8.2,0.8,15.6,4.8,20.8,11.3c5.2,6.4,7.6,14.5,6.8,22.7l-1,10l-7.1,60.6
				c-0.2,1.7-1.2,3.3-2.6,4.3C-20.4,360.8-21.6,361.1-22.8,361.1z"/>
			<path class="st18" d="M-36.9,257.2c13.6,1.4,23.6,13.7,22.2,27.3l-1,10l-7.1,60.5l-13.1-3.6l6-58.4h0.1l0.7-6.9
				c0.8-7.9-5-15-12.8-15.8l-9.3-1l1.4-13.6L-36.9,257.2z"/>
			<g>
				<path class="st14" d="M-59.3,279.7c-9.2,0-16.8-7.5-16.8-16.8v-1.1c0-9.2,7.5-16.8,16.8-16.8h6c9.2,0,16.8,7.5,16.8,16.8v1.1
					c0,9.2-7.5,16.8-16.8,16.8H-59.3z"/>
			</g>
			<g>
				<path class="st14" d="M-59.3,273.7h6c5.9,0,10.8-4.8,10.8-10.8v-1.1c0-5.9-4.8-10.8-10.8-10.8h-6c-5.9,0-10.8,4.8-10.8,10.8v1.1
					C-70.1,268.8-65.3,273.7-59.3,273.7z"/>
			</g>
			<path class="st19" d="M-59.3,279.7c-9.2,0-16.8-7.5-16.8-16.8v-1.1c0-9.2,7.5-16.8,16.8-16.8h5c9.2,0,16.8,7.5,16.8,16.8v1.1
				c0,9.2-7.5,16.8-16.8,16.8H-59.3z"/>
			<path class="st20" d="M-59.3,273.7h5c5.9,0,10.8-4.8,10.8-10.8v-1.1c0-5.9-4.8-10.8-10.8-10.8h-5c-5.9,0-10.8,4.8-10.8,10.8v1.1
				C-70.1,268.8-65.3,273.7-59.3,273.7z"/>
			<ellipse class="st14" cx="-63.7" cy="262.3" rx="2.6" ry="4.6"/>
		</g>
		<g>
			<path class="st17" d="M-158.9,361.1c-1.2,0-2.3-0.3-3.3-1c-1.5-1-2.4-2.5-2.6-4.3l-7.1-60.5l-1-10.1c-0.9-8.2,1.5-16.2,6.7-22.7
				c5.2-6.4,12.6-10.4,20.8-11.3l12.9-1.3c0.2,0,0.4,0,0.6,0c1.4,0,2.7,0.5,3.8,1.3c1.2,1,2,2.5,2.2,4l1.4,13.6
				c0.3,3.3-2.1,6.2-5.4,6.6l-9.3,1c-2.2,0.2-4.2,1.3-5.6,3.1c-1.4,1.7-2.1,3.9-1.8,6.1l0.6,6.1c0.1,0.3,0.1,0.5,0.1,0.8l6,58.4
				c0.3,2.9-1.5,5.6-4.4,6.4l-13.1,3.6C-157.8,361-158.4,361.1-158.9,361.1z"/>
			<path class="st18" d="M-144.8,257.2c-13.6,1.5-23.6,13.8-22.2,27.4l1,10l7.1,60.5l13.1-3.6l-6-58.4h-0.1l-0.7-6.9
				c-0.8-7.9,5-15,12.8-15.8l9.3-1l-1.4-13.6L-144.8,257.2z"/>
			<g>
				<path class="st14" d="M-128.3,279.7c-9.2,0-16.8-7.5-16.8-16.8v-1.1c0-9.2,7.5-16.8,16.8-16.8h6c9.2,0,16.8,7.5,16.8,16.8v1.1
					c0,9.2-7.5,16.8-16.8,16.8C-122.3,279.7-128.3,279.7-128.3,279.7z"/>
			</g>
			<g>
				<path class="st14" d="M-122.3,273.7h-6c-5.9,0-10.8-4.8-10.8-10.8v-1.1c0-5.9,4.8-10.8,10.8-10.8h6c5.9,0,10.8,4.8,10.8,10.8
					v1.1C-111.6,268.8-116.4,273.7-122.3,273.7z"/>
			</g>
			<path class="st19" d="M-127.4,279.7c-9.2,0-16.8-7.5-16.8-16.8v-1.1c0.1-9.2,7.6-16.8,16.8-16.8h5c9.2,0,16.8,7.5,16.8,16.8v1.1
				c0,9.2-7.5,16.8-16.8,16.8C-122.4,279.7-127.4,279.7-127.4,279.7z"/>
			<path class="st20" d="M-122.3,273.7h-5c-5.9,0-10.8-4.8-10.8-10.8v-1.1c0-5.9,4.8-10.8,10.8-10.8h5c5.9,0,10.8,4.8,10.8,10.8v1.1
				C-111.6,268.8-116.4,273.7-122.3,273.7z"/>
			<ellipse class="st14" cx="-117.9" cy="262.3" rx="2.6" ry="4.6"/>
		</g>
	</g>
	<g>
		<path class="st21" d="M-38.3,433.7L-38.3,433.7h-0.3c-1.3-0.1-2.5-0.1-3.8-0.1c-0.8,0-1.6,0-2.4,0.1H-46c-0.3,0-0.5-0.1-0.8-0.1
			h-36.5V420l-0.7,0.1v-12.4h-13.6V484h0.6c0,0.1,0,0.3,0,0.4v1.2c0,0.8-0.1,1.6-0.1,2.4c0,1.3,0.1,2.6,0.1,3.8v0.3l0,0
			c0.8,11.2,5,21.4,11.6,29.7h-0.1c10,12.7,25.5,20.8,42.9,20.8c30.2,0,54.6-24.5,54.6-54.6C12.2,459.4-10.1,435.8-38.3,433.7z
			 M-42.4,529.5c-8.8,0-17-2.8-23.7-7.5h0.1c-9.5-6.7-16.1-17.2-17.4-29.4l0.1-8.4c0-0.2,0-0.3,0-0.5V462v-0.2v-14.6h36.5
			c0.2,0,0.3,0,0.5,0c0,0,6.4-0.3,8.4-0.1c21.6,2.9,36.8,19.8,36.8,41.1C-1.1,511-19.6,529.5-42.4,529.5z"/>
		<path class="st22" d="M-42,548.8c-18.7,0-36-8.4-47.6-23.1c-0.2-0.2-0.4-0.5-0.5-0.8c-7.1-9.2-11.3-20.2-12.3-31.8
			c0-0.3-0.1-0.6-0.1-0.8v-0.1c-0.1-1.5-0.2-2.8-0.2-4.1c0-0.5,0-0.9,0-1.4c-0.4-0.8-0.7-1.7-0.7-2.7v-76.4c0-3.3,2.7-6,6-6h13.6
			c3.3,0,6,2.7,6,6v9.6c0.4,0.8,0.7,1.8,0.7,2.7v7.6h30.5c0.4,0,0.8,0,1.1,0.1h0.8c0.8,0,1.7-0.1,2.5-0.1c1.3,0,2.5,0,4.1,0.2h0.1
			c0.3,0,0.6,0,0.8,0.1c31.2,2.6,55.6,29,55.6,60.4C18.6,521.6-8.6,548.8-42,548.8z M-61.5,517.6c5.8,3.9,12.5,5.9,19.6,5.9
			c19.5,0,35.3-15.8,35.3-35.3c0-18.2-13-32.7-31.6-35.1c0,0-0.5-0.1-1.9-0.1c-2.2,0-5,0.1-5.4,0.2c-0.3,0-0.6,0-0.9,0h-30.5v30.5
			c0,0.3,0,0.5,0,0.7l-0.1,7.9c1.2,10,6.6,19,14.8,24.8C-61.9,517.2-61.7,517.4-61.5,517.6z"/>
		<g>
			<path class="st22" d="M-154.9,478.2c-20.6,0-37.4-16.8-37.4-37.4s16.8-37.4,37.4-37.4c15.7,0,29.5,9.7,35,24h22.3
				c3.3,0,6,2.7,6,6V447c0,3.3-2.7,6-6,6h-21.9C-124.7,467.9-138.8,478.2-154.9,478.2z"/>
			<path class="st23" d="M-97.6,433.4h-26.8c-3.3-13.8-15.7-24-30.5-24c-17.4,0-31.4,14.1-31.4,31.4s14.1,31.4,31.4,31.4
				c15.2,0,27.9-10.8,30.8-25.2h26.5C-97.6,447-97.6,433.4-97.6,433.4z"/>
		</g>
		<circle class="st24" cx="-154.9" cy="440.8" r="37.4"/>
		<g>
			<path class="st25" d="M-97.6,433.4h-26.8c-3.3-13.8-15.7-24-30.5-24c-17.4,0-31.4,14.1-31.4,31.4s14.1,31.4,31.4,31.4
				c15.2,0,27.9-10.8,30.8-25.2h26.5C-97.6,447-97.6,433.4-97.6,433.4z"/>
		</g>
		<path class="st26" d="M-37.9,433.7L-37.9,433.7h-0.3c-1.3-0.1-2.5-0.1-3.8-0.1c-0.8,0-1.6,0-2.4,0.1h-1.2c-0.3,0-0.5-0.1-0.8-0.1
			h-36.5V420l-0.7,0.1v-12.4h-13.6V484h0.7c0,0.1,0,0.3,0,0.4v1.2c0,0.8-0.1,1.6-0.1,2.4c0,1.3,0.1,2.6,0.1,3.8v0.3l0,0
			c0.8,11.2,5,21.4,11.6,29.7H-85c10,12.7,25.5,20.8,42.9,20.8c30.2,0,54.6-24.5,54.6-54.6C12.6,459.4-9.6,435.8-37.9,433.7z
			 M-42,529.5c-8.8,0-17-2.8-23.7-7.5h0.1c-9.5-6.7-16.1-17.2-17.4-29.4l0.1-8.4c0-0.2,0-0.3,0-0.5V462v-0.2v-14.6h36.5
			c0.2,0,0.3,0,0.5,0c0,0,6.4-0.3,8.4-0.1c21.6,2.9,36.8,19.8,36.8,41.1C-0.7,511-19.2,529.5-42,529.5z"/>
		<path class="st27" d="M-36.1,353.2c-2.8,26.7-28.7,45-54.7,43.8c-25.1,1-52-17.2-54.7-43.8l-13.9,3.9
			c3.6,34.5,34.7,54.9,68.6,54.5c35.1,0.1,65-20,68.6-54.5L-36.1,353.2z"/>
		<g>
			<path class="st28" d="M-36.7,257.5c13.6,1.4,23.6,13.7,22.2,27.3l-1,10l-7.1,60.5l-13.1-3.6l6-58.4h0.1l0.7-6.9
				c0.8-7.9-5-15-12.8-15.8l-9.3-1l1.4-13.6L-36.7,257.5z"/>
			<g>
				<path class="st14" d="M-59.2,274h6c5.9,0,10.8-4.8,10.8-10.8v-1.1c0-5.9-4.8-10.8-10.8-10.8h-6c-5.9,0-10.8,4.8-10.8,10.8v1.1
					C-70,269.1-65.1,274-59.2,274z"/>
			</g>
			<path class="st20" d="M-59.2,274h4.5c5.9,0,10.8-4.8,10.8-10.8v-1.1c0-5.9-4.8-10.8-10.8-10.8h-4.5c-5.9,0-10.8,4.8-10.8,10.8
				v1.1C-70,269.1-65.1,274-59.2,274z"/>
			<ellipse class="st14" cx="-63.6" cy="262.6" rx="2.6" ry="4.6"/>
		</g>
		<g>
			<path class="st28" d="M-144.7,257.5c-13.6,1.4-23.6,13.7-22.2,27.3l1,10l7.1,60.5l13.1-3.6l-6-58.4h-0.1l-0.7-6.9
				c-0.8-7.9,5-15,12.8-15.8l9.3-1l-1.4-13.6L-144.7,257.5z"/>
			<g>
				<path class="st14" d="M-122.2,274h-6c-5.9,0-10.8-4.9-10.8-10.8v-1.1c0-5.9,4.8-10.8,10.8-10.8h6c5.9,0,10.8,4.8,10.8,10.8v1.1
					C-111.4,269.1-116.3,274-122.2,274z"/>
			</g>
			<path class="st20" d="M-122.2,274h-4.5c-5.9,0-10.8-4.8-10.8-10.8v-1.1c0-5.9,4.8-10.8,10.8-10.8h4.5c5.9,0,10.8,4.8,10.8,10.8
				v1.1C-111.4,269.1-116.3,274-122.2,274z"/>
			<ellipse class="st14" cx="-117.8" cy="262.6" rx="2.6" ry="4.6"/>
		</g>
		<path class="st14" d="M-91.5,411c-2.3,0-4.5-0.3-6.7-0.8v2.3c2.1,0.3,4.2,0.5,6.4,0.5c2.8,0,5.5-0.2,8.1-0.6v-2.2
			C-86.2,410.8-88.8,411-91.5,411z"/>
		<path class="st14" d="M-153.6,353.9c-2.2,0.5-4.5,0.9-6.7,0.9l0.5,2.2c2.1-0.2,4.2-0.6,6.3-1.1c2.7-0.7,5.2-1.5,7.7-2.6l-0.5-2.2
			C-148.6,352.4-151,353.3-153.6,353.9z"/>
		<path class="st14" d="M-27.6,353.9c2.2,0.5,4.5,0.9,6.7,0.9l-0.5,2.2c-2.1-0.2-4.2-0.6-6.3-1.1c-2.7-0.7-5.2-1.5-7.7-2.6l0.5-2.2
			C-32.7,352.4-30.2,353.3-27.6,353.9z"/>
		<path class="st29" d="M-39,433.6L-39,433.6h-0.3c-1.3-0.1-2.5-0.1-3.8-0.1c-0.8,0-1.6,0-2.4,0.1h-1.2c-0.3,0-0.5-0.1-0.8-0.1H-84
			v-22.1c31.5-2.3,57.4-21.3,61.5-52.4l0,0l0.2-1.6c0-0.1,0-0.2,0-0.3l0,0l6.4-62.1l1-10c1.4-13.7-8.6-26-22.3-27.4l-7.4-0.8
			c-2-3.3-5.6-5.5-9.7-5.5H-59c-6.2,0-11.3,5.1-11.3,11.3c0,6.2,5.1,11.4,11.3,11.4h4.9c3.2,0,6.2-1.4,8.2-3.6l3.8,0.4
			c7.9,0.8,13.7,7.9,12.8,15.8l-0.7,6.9h-0.1l-6.2,60.4c-3.1,26.3-28.8,44.3-54.6,43.1c-24.9,1-51.6-17-54.7-43.4l-6.2-60.2h-0.1
			l-0.7-6.9c-0.8-7.9,5-15,12.8-15.8l3.8-0.4c2.1,2.2,5,3.6,8.2,3.6h4.9c6.2,0,11.3-5.1,11.3-11.3c0-6.2-5.1-11.3-11.3-11.3h-4.9
			c-4.1,0-7.7,2.2-9.7,5.5l-7.4,0.8c-13.4,1.4-23.4,13.7-22,27.3l1,10l6.4,62.1l0,0l0.2,1.8l0,0c4.2,31.1,31,50.2,61.5,52.5v22l0,0
			v13.6l0,0v14.6v0.2v21.6c0,0.3,0,0.5,0.1,0.8v1.2c0,0.8-0.1,1.6-0.1,2.4c0,1.3,0.1,2.6,0.1,3.8v0.3l0,0c0.8,11.2,5,21.4,11.6,29.7
			h-0.1c10,12.7,25.5,20.8,42.9,20.8c30.2,0,54.6-24.5,54.6-54.6C11.6,459.3-10.7,435.7-39,433.6z M-43.1,529.4
			c-8.8,0-17-2.8-23.7-7.5h0.1c-9.5-6.7-16.1-17.2-17.4-29.4l0.1-8.4c0-0.2,0-0.3,0-0.5V462v-0.2v-14.6h36.5c0.2,0,0.3,0,0.5,0
			c0,0,6.4-0.3,8.4-0.1C-17,450-1.8,466.9-1.8,488.2C-1.7,510.9-20.2,529.4-43.1,529.4z"/>
		<rect x="-85" y="432.2" class="st30" width="2" height="17.9"/>
		<circle class="st31" cx="-154.9" cy="440.8" r="19.1"/>
		<ellipse class="st29" cx="-118.1" cy="262.7" rx="2.6" ry="4.6"/>
		<ellipse class="st29" cx="-63.3" cy="262.7" rx="2.6" ry="4.6"/>
		<circle class="st32" cx="-154.9" cy="440.8" r="31.5"/>
		<circle class="st33" cx="-154.9" cy="440.8" r="20.3"/>
		<path class="st26" d="M-125.4,434.3c0.6,2,0.9,4.2,0.9,6.3c0,1.9-0.2,3.7-0.6,5.5h26.5v-11.8H-125.4z"/>
		<path class="st14" d="M-124.4,440.7c0,1.9-0.2,3.7-0.7,5.5h2.2c0.3-1.7,0.4-3.5,0.4-5.2c0-2.3-0.2-4.5-0.7-6.6h-2.2
			C-124.7,436.4-124.4,438.5-124.4,440.7z"/>
	</g>
</g>
<g id="icons2">
	<g id="Layer_6">
	</g>
</g>
<g id="Layer_7">
</g>
<g id="Layer_8" class="st0">
	<g class="st1">
		<path class="st34" d="M673.9,280.1h3c4,0,7.3,3.3,7.3,7.3v-14.5c0-4,3.3-7.3,7.3-7.3h6.9c4,0,7.3,3.3,7.3,7.3V258
			c0-4,3.3-7.3,7.3-7.3h6.9c4,0,7.3,3.3,7.3,7.3v13.3c0-4,3.3-7.3,7.3-7.3h6.9c4,0,7.3,3.3,7.3,7.3v66.6c0,0.4,0.3,0.7,0.2,1
			c0.3,0.3-0.1,2.2,0.2,2.5l2.8-11.2c0.6-4,4.4-6.7,8.4-6l6.3,1c4,0.6,6.7,4.4,6,8.4l-11.2,42.9c-0.4,2.3-10,9.4-19.1,15.1
			c-2,1.8-4.2,3.4-6.3,4.9v44c0,2.5-2.1,4.6-4.6,4.6h-51.6c-2.5,0-4.6-2.1-4.6-4.6v-47.2c-3.8-4.3-6.5-9.6-7.8-15.7l0,0
			c-0.4-1.9-0.6-3.8-0.7-5.7c-0.1-0.7-0.2-1.4-0.2-2.1V342v-21.6v-33C666.6,283.4,669.9,280.1,673.9,280.1z"/>
		<rect x="726.2" y="271.1" class="st35" width="1.9" height="44.7"/>
		<polygon class="st35" points="747.7,353 749.6,343.7 749.6,338.1 747.7,338.1 		"/>
		<rect x="704.6" y="271.1" class="st35" width="2.2" height="44.7"/>
		<rect x="683.1" y="284.3" class="st35" width="2.2" height="31.5"/>
		<rect x="656.8" y="421.3" class="st36" width="89.7" height="122.6"/>
		<path class="st34" d="M698.8,390.8h-2.6c-3.5,0-6.4,2.9-6.4,6.4v-12.8c0-3.5-2.9-6.4-6.4-6.4h-6c-3.5,0-6.4,2.9-6.4,6.4v-13.1
			c0-3.5-2.9-6.4-6.4-6.4h-6c-3.5,0-6.4,2.9-6.4,6.4V383c0-3.5-2.9-6.4-6.4-6.4h-6c-3.5,0-6.4,2.9-6.4,6.4v58.3
			c0,0.3-0.2,0.6-0.2,0.9c-0.2,0.3,0.1,1.9-0.2,2.2l-2.5-9.9c-0.6-3.5-3.9-5.9-7.4-5.3l-5.5,0.9c-3.5,0.6-5.9,3.9-5.3,7.4l9.8,37.6
			c0.3,2,8.8,8.3,16.7,13.3c1.8,1.6,3.6,3,5.6,4.3v38.6c0,2.2,1.8,4,4,4h45.2c2.2,0,4-1.8,4-4V490c3.3-3.8,5.7-8.4,6.8-13.7l0,0
			c0.4-1.7,0.6-3.4,0.6-5c0.1-0.6,0.2-1.2,0.2-1.8v-24.4v-19v-28.9C705.2,393.7,702.3,390.8,698.8,390.8z"/>
		<rect x="651.3" y="382.9" class="st35" width="1.7" height="39.2"/>
		<polygon class="st35" points="634.1,454.7 632.4,446.5 632.4,441.6 634.1,441.6 		"/>
		<rect x="669.9" y="382.9" class="st35" width="2" height="39.2"/>
		<rect x="688.8" y="394.5" class="st35" width="2" height="27.6"/>
		<rect x="635.3" y="511.2" class="st34" width="78.6" height="32.7"/>
		<path class="st34" d="M794.1,428.2h-2c-2.7,0-4.8,2.2-4.8,4.8v-9.6c0-2.7-2.2-4.8-4.8-4.8H778c-2.7,0-4.8,2.2-4.8,4.8v-9.9
			c0-2.7-2.2-4.8-4.8-4.8h-4.5c-2.7,0-4.8,2.2-4.8,4.8v8.8c0-2.7-2.2-4.8-4.8-4.8h-4.5c-2.7,0-4.8,2.2-4.8,4.8v44.1
			c0,0.3-0.2,0.4-0.1,0.7c-0.2,0.2,0.1,1.5-0.1,1.7l-1.9-7.4c-0.4-2.6-2.9-4.4-5.6-4l-4.2,0.7c-2.6,0.4-4.4,2.9-4,5.6l7.4,28.4
			c0.2,1.5,6.6,6.2,12.6,10c1.3,1.2,2.8,2.3,4.2,3.2v29.2c0,1.7,1.4,3,3,3h34.2c1.7,0,3-1.4,3-3v-31.3c2.5-2.9,4.3-6.4,5.2-10.4l0,0
			c0.3-1.3,0.4-2.5,0.5-3.8c0.1-0.4,0.1-0.9,0.1-1.4v-18.4v-14.3v-21.8C799,430.4,796.8,428.2,794.1,428.2z"/>
		<rect x="758.2" y="422.3" class="st35" width="1.3" height="29.6"/>
		<polygon class="st35" points="745.3,476.5 744,470.3 744,466.6 745.3,466.6 		"/>
		<rect x="772.3" y="422.3" class="st35" width="1.5" height="29.6"/>
		<rect x="786.6" y="431" class="st35" width="1.5" height="20.8"/>
		<rect x="744" y="519.2" class="st37" width="59.7" height="24.7"/>
	</g>
</g>
<g id="guide">
</g>
</svg>
