<?xml version="1.0" encoding="utf-8"?>
<!-- Generator: Adobe Illustrator 19.1.0, SVG Export Plug-In . SVG Version: 6.00 Build 0)  -->
<svg version="1.1" id="Layer_1" xmlns="http://www.w3.org/2000/svg" xmlns:xlink="http://www.w3.org/1999/xlink" x="0px" y="0px"
	 width="218px" height="312px" viewBox="-196 241 218 312" style="enable-background:new -196 241 218 312;" xml:space="preserve">
<style type="text/css">
	.st0{fill:#FFEEDD;}
	.st1{fill:#F3E3FF;}
	.st2{fill:#FFD40B;}
	.st3{fill:#B77DD8;}
	.st4{fill:#FFFFFF;}
	.st5{fill:none;stroke:#262262;stroke-width:1.9467;stroke-miterlimit:10;}
</style>
<g id="icon1">
	<g id="Layer_5">
	</g>
</g>
<g id="icons2">
	<g id="Layer_6">
	</g>
</g>
<g id="Layer_7">
</g>
<g id="Layer_8">
	<g id="Layer_9">
		<path class="st0" d="M-145,545.7l-0.8-3.9c-1-5.2-1.5-10.6-1.5-15.9c0-29.5,15.6-56.4,39.7-68.5l2.2-1.1l0,0
			c6.9-3.2,14.2-5,21.6-5.5h0.3h0.3c1.1,0.1,2,0.1,2.9,0.1s1.8,0,2.9-0.1h0.3c0,0,0.6,0,0.7,0c22.8-2.4,40.5-25.6,40.5-53.1
			c0-27.4-18.9-51.2-42.3-53.3c-0.1,0-0.2,0-0.3,0c-0.5,0.1-1,0.1-1.8,0.1c-1.2,0-2.3,0-3.5-0.1v-0.1c-8.3-0.5-16.3-2.6-23.9-6.4
			c-24-11.9-39.6-38.8-39.6-68.3c0-5.3,0.5-10.7,1.5-15.9l0.8-4h23.2l-1.3,5.9c-1,4.5-1.5,9.2-1.5,13.9c0,28.1,18.2,51.4,41.5,53.2
			c1.1,0.1,2,0.1,2.9,0.1c0.8,0,1.8,0,2.9-0.1h0.3h0.3c8.3,0.5,16.3,2.7,23.9,6.6c24.1,12.1,39.6,38.9,39.6,68.4
			c0,41.3-30,74.9-66.8,75c-24.2,2-44.6,26.2-44.6,53.1c0,4.7,0.5,9.4,1.5,13.9l1.3,5.9H-145V545.7z"/>
		<path class="st1" d="M-38.8,545.7l1.3-5.9c1-4.5,1.5-9.2,1.5-13.9c0-26.9-20.4-51.1-44.6-53.1c-36.9-0.1-66.8-33.7-66.8-75
			c0-29.5,15.6-56.4,39.7-68.5c7.5-3.9,15.6-6.1,23.9-6.6h0.3h0.3c1.1,0.1,2,0.1,2.9,0.1s1.8,0,2.9-0.1
			c23.3-1.8,41.5-25.2,41.5-53.2c0-4.7-0.5-9.4-1.5-13.9l-1.3-5.9h23.2l0.8,3.9c1,5.2,1.5,10.6,1.5,15.9c0,29.5-15.6,56.4-39.7,68.5
			c-7.6,3.8-15.6,5.9-23.9,6.4v0.1c-1.2,0.1-2.4,0.1-3.5,0.1c-0.9,0-1.3-0.1-1.8-0.1c-0.1,0-0.2,0-0.3,0
			c-23.3,2-42.3,25.8-42.3,53.3s17.8,50.7,40.5,53.1c0.1,0,0.7,0,0.7,0h0.3c1.1,0.1,2,0.1,2.9,0.1s1.8,0,2.9-0.1h0.3h0.3
			c7.5,0.4,14.7,2.3,21.6,5.5l0,0l2.2,1.1c24.1,12.1,39.7,38.9,39.7,68.5c0,5.3-0.5,10.7-1.5,15.9l-0.8,3.9h-23.2V545.7z"/>
		<rect x="-128.2" y="353.4" class="st1" width="52.8" height="20.4"/>
		<rect x="-85.1" y="353.4" class="st0" width="52.8" height="20.4"/>
		<rect x="-140.2" y="375.8" class="st1" width="64.8" height="20.4"/>
		<rect x="-85.1" y="375.8" class="st0" width="64.8" height="20.4"/>
		<rect x="-140.2" y="398.5" class="st1" width="64.8" height="20.4"/>
		<rect x="-85.1" y="398.5" class="st0" width="64.8" height="20.4"/>
		<rect x="-131.2" y="421.9" class="st1" width="55.8" height="20.4"/>
		<rect x="-85.1" y="421.9" class="st0" width="55.8" height="20.4"/>
		<rect x="-84.9" y="474.4" class="st1" width="52.5" height="20.4"/>
		<rect x="-128.2" y="474.4" class="st0" width="52.5" height="20.4"/>
		<rect x="-85.1" y="496.8" class="st1" width="60.4" height="20.4"/>
		<rect x="-135.8" y="496.8" class="st0" width="60.4" height="20.4"/>
		<rect x="-85.3" y="522.9" class="st1" width="62.1" height="20.9"/>
		<rect x="-137.3" y="522.9" class="st0" width="62.1" height="20.9"/>
		<rect x="-84.7" y="301.2" class="st1" width="50.7" height="20.4"/>
		<rect x="-126.6" y="301.2" class="st0" width="50.7" height="20.4"/>
		<rect x="-85.1" y="278.8" class="st1" width="60.4" height="20.4"/>
		<rect x="-135.8" y="278.8" class="st0" width="60.4" height="20.4"/>
		<rect x="-85.1" y="256.1" class="st1" width="60.4" height="20.4"/>
		<rect x="-135.8" y="256.1" class="st0" width="60.4" height="20.4"/>
	</g>
	<path class="st2" d="M-54.9,333.7c-6.8-3.5-14.2-5.6-22-6c-1.1,0.1-2.1,0.1-3.2,0.1s-2.2-0.1-3.2-0.1c-6.8,0.4-13.3,2.1-19.4,4.8
		c6.1-2.7,12.6-4.4,19.4-4.8c-25.7-2-46-27.2-46-58.1c0-5.2,0.6-10.2,1.7-15h-13.3c-0.9,4.8-1.4,9.8-1.4,15
		c0,28.6,15.2,53.2,37,64.1c7.1,3.6,14.9,5.7,23.1,6c-0.4,0-0.7,0-1.1,0.1c1.1,0.1,2.1,0.1,3.2,0.1s1.1-0.1,2.1-0.2
		c-0.4,0,0.4,0,0,0c7.6-0.3,14.8-2.1,21.4-5.2c-6.3,3-14.3,4.8-21.4,5.2c25.7,2,47.1,27.3,47.1,58.1c0,30.6-20,55.6-45.4,58
		c-0.2,0-0.4,0-0.7-0.1c-1.1,0.1-2.1,0.1-3.2,0.1s-2.2-0.1-3.2-0.1c-7.8,0.5-15.2,2.6-22,6l0,0c-21.8,10.9-37,35.5-37,64.1
		c0,5.1,0.5,10.2,1.4,15h13.1c-1.1-4.8-1.7-9.8-1.7-15c0-30.9,23.6-56,49.3-58c-7-0.4-17-2.3-23.2-5.2c7.2,3.3,15,5.1,23.2,5.1v0.1
		c34.3,0,62.2-31.4,62.2-70.1C-18,369.2-33.2,344.6-54.9,333.7z"/>
	<path class="st3" d="M-105.3,333.7c6.8-3.5,14.2-5.6,22-6c1.1,0.1,2.1,0.1,3.2,0.1s2.2-0.1,3.2-0.1c6.8,0.4,13.3,2.1,19.4,4.8
		c-6.1-2.7-12.6-4.4-19.4-4.8c25.7-2,46-27.2,46-58.1c0-5.2-0.6-10.2-1.7-15h13.1c0.9,4.8,1.4,9.8,1.4,15c0,28.6-15.2,53.2-37,64.1
		c-7.1,3.6-14.9,5.7-23.1,6c0.4,0,0.7,0,1.1,0.1c-1.1,0.1-2.1,0.1-3.2,0.1s-1.1-0.1-2.1-0.2c0.4,0-0.4,0,0,0
		c-7.6-0.3-14.8-2.1-21.4-5.2c6.3,3,14.3,4.8,21.4,5.2c-25.7,2-47.1,27.3-47.1,58.1c0,30.6,20,55.6,45.4,58c0.2,0,0.4,0,0.7-0.1
		c1.1,0.1,2.1,0.1,3.2,0.1s2.2-0.1,3.2-0.1c7.8,0.5,15.2,2.6,22,6l0,0c21.8,10.9,37,35.5,37,64.1c0,5.1-0.5,10.2-1.4,15h-13.1
		c1.1-4.8,1.7-9.8,1.7-15c0-30.9-23.6-56-49.3-58c7-0.4,17-2.3,23.2-5.2c-7.2,3.3-15,5.1-23.2,5.1v0.1c-34.3,0-62.2-31.4-62.2-70.1
		C-142.3,369.2-127.1,344.6-105.3,333.7z"/>
	<g>
		<path class="st2" d="M-54.6,461.5c-6.6-3.3-14.8-5.4-22.3-6c-0.1,0-0.1,0-0.2,0c-0.2,0-0.4,0-0.7-0.1c-1.1,0.1-2.1,0.1-3.2,0.1
			c-1.1,0-2.1,0-3.2-0.1c-0.3,0.1-0.5,0.1-0.7,0.1c-0.1,0-0.1,0-0.2,0c-7.5,0.6-14.6,2.7-21.1,5.9c7.6,3.9,15.8,6.7,24.7,6.7
			c-0.6,0-0.9-0.8-1.6-0.8c0.7,0,1.4,0.1,2.1,0.1v0.1c0,0-0.1,1-0.1,1c0,0,0.2-1,0.3-1v-0.1c0.7,0,1.4,0,2.1-0.1
			c-0.7,0.1-1.3,0.1-1.9,0.1C-71.8,467.5-62.2,465.4-54.6,461.5z M-104.2,462.4c0.6,0.3,1.1,0.5,1.7,0.7
			C-103.1,462.9-103.7,462.6-104.2,462.4z M-57.6,462.4c-0.5,0.3-1.1,0.5-1.7,0.7C-58.8,462.9-58.2,462.6-57.6,462.4z"/>
		<path class="st2" d="M86.8,339.5c0.3,0,0.5,0.1,0.8,0.1C87.3,339.5,87,339.5,86.8,339.5z"/>
		<path class="st2" d="M81.5,339.6c0.3,0,0.5-0.1,0.8-0.1C82,339.5,81.8,339.5,81.5,339.6z"/>
	</g>
	<rect x="-123.2" y="358.3" class="st3" width="43" height="10.6"/>
	<rect x="-80.1" y="358.3" class="st2" width="43" height="10.6"/>
	<rect x="-135.2" y="380.7" class="st3" width="55" height="10.6"/>
	<rect x="-80.1" y="380.7" class="st2" width="55" height="10.6"/>
	<rect x="-135.2" y="403.4" class="st3" width="55" height="10.6"/>
	<rect x="-80.1" y="403.4" class="st2" width="55" height="10.6"/>
	<rect x="-126.2" y="426.8" class="st3" width="46" height="10.6"/>
	<rect x="-80.1" y="426.8" class="st2" width="46" height="10.6"/>
	<rect x="-80.1" y="479.3" class="st3" width="46" height="10.6"/>
	<rect x="-126.2" y="479.3" class="st2" width="46" height="10.6"/>
	<rect x="-80.1" y="501.7" class="st3" width="50.7" height="10.6"/>
	<rect x="-130.8" y="501.7" class="st2" width="50.7" height="10.6"/>
	<rect x="-80.1" y="524.9" class="st3" width="52.1" height="10.9"/>
	<rect x="-132.2" y="524.9" class="st2" width="52.1" height="10.9"/>
	<rect x="-80.1" y="306.1" class="st3" width="46" height="10.6"/>
	<rect x="-126.2" y="306.1" class="st2" width="46" height="10.6"/>
	<rect x="-80.1" y="283.7" class="st3" width="50.7" height="10.6"/>
	<rect x="-130.8" y="283.7" class="st2" width="50.7" height="10.6"/>
	<rect x="-80.1" y="261" class="st3" width="50.7" height="10.6"/>
	<rect x="-130.8" y="261" class="st2" width="50.7" height="10.6"/>
	<path class="st4" d="M-103.7,334.1c4.6-3.4,11.1-5.5,17.2-5.8l-0.5-0.7l-0.7-0.1l-0.7-0.6c-6.6,0.6-12.4,2.5-17.1,6.2L-103.7,334.1
		z"/>
	<path class="st4" d="M-57.1,333.7c-5.1,3.4-12.2,5.3-18.7,5.3l0.5,0.8l0.8,0.1l0.7,0.6c7.1-0.3,13.3-2.1,18.5-5.8L-57.1,333.7z"/>
	<path class="st4" d="M-54.6,462.5c-5.2,3.8-11.4,5.6-18.5,6l-0.7-0.7l-0.7-0.1l-0.5-0.8c6.5-0.1,13.6-2.1,18.6-5.6L-54.6,462.5z"/>
	<path class="st4" d="M-105.9,461.3c5.2-3.7,11.4-5.5,18.5-5.8l0.7,0.6l0.8,0.1l1.9,0.6c-6.5,0-15,2.1-20.1,5.5L-105.9,461.3z"/>
	<rect x="-81.1" y="261.7" class="st4" width="1.7" height="9.7"/>
	<rect x="-81.1" y="284.6" class="st4" width="1.7" height="9.7"/>
	<rect x="-81.1" y="306.5" class="st4" width="1.7" height="9.7"/>
	<rect x="-81.1" y="480" class="st4" width="1.7" height="9.7"/>
	<rect x="-81.1" y="427.2" class="st4" width="1.7" height="9.7"/>
	<rect x="-81.1" y="381.1" class="st4" width="1.7" height="9.7"/>
	<rect x="-81.1" y="358.3" class="st4" width="1.7" height="9.7"/>
	<rect x="-81.1" y="403.9" class="st4" width="1.7" height="9.7"/>
	<rect x="-81.1" y="502.9" class="st4" width="1.7" height="9.7"/>
	<rect x="-81.1" y="524.3" class="st4" width="1.7" height="10"/>
	<path class="st5" d="M-18,397.9c0-28.6-15.2-53.2-37.1-64.1c21.9-10.9,37.1-35.5,37.1-64.2c0-5.2-0.5-10.2-1.5-15h-13.1
		c0.5,2,0.8,4.1,1.1,6.2h-97.3c0.3-2.1,0.6-4.2,1.1-6.2h-13.2c-0.9,4.8-1.5,9.9-1.5,15c0,28.6,15.2,53.2,37.1,64.1
		c-21.8,10.9-37.1,35.5-37.1,64.1c0,28.6,15.2,53.2,37.1,64.1c-21.8,10.9-37.1,35.5-37.1,64.1c0,5.2,0.5,10.2,1.5,15h13.1
		c-0.5-2-0.8-4-1.1-6.1h97.3c-0.3,2.1-0.6,4.1-1.1,6.1h13.1c0.9-4.8,1.5-9.9,1.5-15c0-28.6-15.2-53.2-37.1-64.1
		C-33.2,451.1-18,426.5-18,397.9z M-127.4,414h94.6c-1.1,4.5-2.6,8.8-4.6,12.7h-85.5C-124.8,422.8-126.3,418.5-127.4,414z
		 M-129.4,397.9c0-2.2,0.1-4.4,0.3-6.5h97.9c0.2,2.1,0.3,4.3,0.3,6.5c0,1.9-0.1,3.7-0.2,5.6h-98.1
		C-129.3,401.6-129.4,399.7-129.4,397.9z M-33.1,380.7h-94.1c1.1-4.1,2.6-8.1,4.3-11.8h85.5C-35.6,372.6-34.1,376.6-33.1,380.7z
		 M-129.4,271.5H-31c-0.1,4.2-0.6,8.2-1.4,12.1H-128C-128.8,279.7-129.2,275.6-129.4,271.5z M-124.8,294.2h89.3
		c-1.7,4.2-3.7,8.2-6.2,11.8h-76.9C-121,302.3-123.1,298.4-124.8,294.2z M-109.2,316.6H-51c-8.2,7.1-18.2,11.2-29.1,11.2
		S-101.1,323.6-109.2,316.6z M-80.1,339.7c14.3,0,27.1,7.2,36.1,18.6h-72.2C-107.2,346.9-94.4,339.7-80.1,339.7z M-30.9,524.4h-98.5
		c0.1-4.2,0.6-8.2,1.4-12.1h95.7C-31.5,516.2-31,520.2-30.9,524.4z M-35.4,501.7h-89.4c1.7-4.2,3.7-8.2,6.1-11.8h77.1
		C-39.1,493.5-37.1,497.5-35.4,501.7z M-50.9,479.3h-58.5c8.2-7.1,18.3-11.4,29.2-11.4S-59.1,472.2-50.9,479.3z M-80.1,456
		c-14.3,0-27.1-7.2-36.1-18.6H-44C-53,448.8-65.9,456-80.1,456z"/>
</g>
<g id="guide">
</g>
</svg>
