<?xml version="1.0" encoding="utf-8"?>
<!-- Generator: Adobe Illustrator 23.0.4, SVG Export Plug-In . SVG Version: 6.00 Build 0)  -->
<svg version="1.1" id="Layer_1" xmlns="http://www.w3.org/2000/svg" xmlns:xlink="http://www.w3.org/1999/xlink" x="0px" y="0px" viewBox="0 0 24 24" style="enable-background:new 0 0 24 24;" xml:space="preserve">
    <style type="text/css">
	.st0{fill:#016D8A;}
	.st1{fill:#FFFFFF;}
</style>
    <g>
        <path class="st0" d="M22.4,24H1.6C0.7,24,0,23.3,0,22.4V1.6C0,0.7,0.7,0,1.6,0h20.8C23.3,0,24,0.7,24,1.6v20.8
		C24,23.3,23.3,24,22.4,24z"></path>
        <g>
            <path class="st1" d="M16.3,6.5l-4.4,4.9L7.7,6.8L5.1,3.8v15.6h2.6v-8.8L9.8,13l0,0c0,0,0.2,0.2,0.5,0.5c-0.5,0.7-1.1,1.7-1.1,2.9
			c0,1.5,1,2.9,2.6,3c0.7,0.1,1.5-0.2,2.1-0.8c0.4-0.4,0.9-1.1,0.9-2.3c0-1.3-0.5-2.3-1.1-3l2.7-3v9h2.6V3.6L16.3,6.5z M11.8,17.5
			c-0.3,0-0.6-0.3-0.6-0.6c0-0.4,0.4-1.2,0.6-1.4c0,0,0,0,0,0c0,0,0.1,0,0.2,0c0.2,0.3,0.7,1,0.7,1.3C12.7,17.2,12.3,17.5,11.8,17.5
			z"></path>
        </g>
    </g>
</svg>
