<?xml version="1.0" encoding="utf-8"?>
<!-- Generator: Adobe Illustrator 23.0.4, SVG Export Plug-In . SVG Version: 6.00 Build 0)  -->
<svg version="1.1" id="Layer_1" xmlns="http://www.w3.org/2000/svg" xmlns:xlink="http://www.w3.org/1999/xlink" x="0px" y="0px" viewBox="0 0 24 24" style="enable-background:new 0 0 24 24;" xml:space="preserve">
    <style type="text/css">
	.st0{fill:#37296B;}
	.st1{fill:none;}
	.st2{fill:#FFFFFF;}
</style>
    <path class="st0" d="M22.4,24H1.6C0.7,24,0,23.3,0,22.4V1.6C0,0.7,0.7,0,1.6,0h20.8C23.3,0,24,0.7,24,1.6v20.8
	C24,23.3,23.3,24,22.4,24z"></path>
    <g>
        <path class="st1" d="M12.4,7.2c0.1-0.1,0.4-0.4,0.1-0.7c-0.2-0.1-0.4-0.1-0.7,0.2c-0.3,0.3-0.4,0.7-0.5,1.1h0.2
		C11.8,7.6,12.1,7.4,12.4,7.2z"></path>
        <path class="st2" d="M17.4,17.4L17.4,17.4L17.4,17.4l-5.7,0h-0.2V9.9c0.6-0.1,1.3-0.4,1.9-0.8c0.2-0.1,0.4-0.3,0.5-0.5
		C15.1,7.3,14.8,5.9,14,5L14,4.9c0,0,0,0,0,0c-0.2-0.2-0.8-0.7-1.8-0.6c-0.5,0-1.2,0.2-1.9,1c-0.8,0.9-1,1.9-1,2.6L5.5,8.2l1.1,2.3
		l2.5-0.2l0,5.7v3.7l9.3,0L17.4,17.4z M11.3,7.7c0.1-0.3,0.2-0.7,0.5-1.1c0.3-0.3,0.5-0.4,0.7-0.2c0.2,0.3,0,0.6-0.1,0.7
		c-0.2,0.3-0.6,0.4-0.9,0.6C11.4,7.7,11.3,7.8,11.3,7.7C11.3,7.8,11.3,7.7,11.3,7.7z"></path>
    </g>
</svg>
