<?xml version="1.0" encoding="utf-8"?>
<!-- Generator: Adobe Illustrator 23.0.4, SVG Export Plug-In . SVG Version: 6.00 Build 0)  -->
<svg version="1.1" id="Layer_1" xmlns="http://www.w3.org/2000/svg" xmlns:xlink="http://www.w3.org/1999/xlink" x="0px" y="0px" viewBox="0 0 24 24" style="enable-background:new 0 0 24 24;" xml:space="preserve">
    <style type="text/css">
	.st0{fill:#008566;}
	.st1{fill:#FFFFFF;}
</style>
    <g>
        <path class="st0" d="M22.4,24H1.6C0.7,24,0,23.3,0,22.4V1.6C0,0.7,0.7,0,1.6,0h20.8C23.3,0,24,0.7,24,1.6v20.8
		C24,23.3,23.3,24,22.4,24z"></path>
    </g>
    <g>
        <path class="st1" d="M16.9,12c-0.1-0.1-0.2-0.2-0.4-0.3c-0.1-0.1-0.2-0.1-0.3-0.2c0.6-0.7,1-1.6,0.9-2.7c0-1.1-0.4-2.1-1-2.8
		c-0.1-0.1-0.1-0.1-0.2-0.2c-0.9-0.8-2.1-1.3-3.5-1.3l-6.6,0L7,7l1.1,0v7.1v5.3c0,0,5,0,5,0c0.1,0,0.3,0,0.4,0c0,0,0.1,0,0.1,0
		c1.4-0.1,2.6-0.6,3.4-1.4c0.8-0.8,1.2-1.8,1.2-3C18.2,13.8,17.7,12.7,16.9,12z M10.7,7.5V7h1.9l0,0c0.7,0,1.4,0.2,1.7,0.5
		c0.3,0.3,0.4,0.7,0.4,1.2c0,0.5-0.1,0.9-0.4,1.1c-0.4,0.4-1.1,0.6-1.9,0.6l-0.4,0l-1.4,0V7.5z M15.2,16.2c-0.1,0.1-0.3,0.3-0.5,0.4
		c-0.4,0.2-1,0.3-1.6,0.3h-0.7h-1.7v-3.7v0h2.5l0,0c0,0,0,0,0,0c0.1,0,0.1,0,0.2,0c0.7,0,1.3,0.2,1.7,0.6c0.2,0.2,0.3,0.3,0.4,0.6
		c0.1,0.2,0.1,0.4,0.1,0.7C15.6,15.5,15.5,15.9,15.2,16.2z"></path>
    </g>
</svg>
