<?xml version="1.0" encoding="utf-8"?>
<!-- Generator: Adobe Illustrator 23.1.1, SVG Export Plug-In . SVG Version: 6.00 Build 0)  -->
<svg version="1.1" id="Layer_1" xmlns="http://www.w3.org/2000/svg" xmlns:xlink="http://www.w3.org/1999/xlink" x="0px" y="0px"
	 viewBox="0 0 15 15" style="enable-background:new 0 0 15 15;" xml:space="preserve">
<style type="text/css">
	.st0{fill:#343638;}
</style>
<path id="Path_3626" class="st0" d="M14.7,5.6c-0.1-0.3-0.3-0.4-0.6-0.4c-0.3,0.1-0.4,0.3-0.4,0.6c0.9,3.5-1.2,7-4.7,7.9
	s-7-1.2-7.9-4.7c-0.9-3.5,1.2-7,4.7-7.9C7.5,0.8,9.2,1,10.7,1.9c0.2,0.1,0.5,0.1,0.7-0.2c0.1-0.2,0.1-0.5-0.2-0.7
	C7.6-1.1,3,0.2,1,3.8C-1.1,7.4,0.2,11.9,3.8,14c3.6,2.1,8.2,0.8,10.2-2.8C15,9.5,15.2,7.5,14.7,5.6L14.7,5.6z"/>
<path id="Path_3627" class="st0" d="M7.5,9.6c-0.1,0-0.1,0-0.2-0.1L5,6.2C4.9,6,4.6,5.9,4.3,6.1S4,6.5,4.2,6.8c0,0,0,0,0,0.1
	l2.3,3.3c0.2,0.3,0.6,0.5,1,0.5h0c0.4,0,0.7-0.2,1-0.5l5.9-7.9c0.2-0.2,0.1-0.5-0.1-0.7c-0.2-0.2-0.5-0.1-0.7,0.1L7.8,9.5
	C7.7,9.5,7.6,9.6,7.5,9.6z"/>
</svg>
