<svg id="Layer_1" data-name="Layer 1" xmlns="http://www.w3.org/2000/svg" viewBox="0 0 53.04 52.46"><defs><style>.cls-1{fill:#332566;}.cls-2{fill:#fff;}</style></defs><title>RaR_socialIcons_8_2019</title><g id="Spotify"><circle class="cls-1" cx="26.52" cy="26.23" r="24.84"/><path class="cls-2" d="M38,37.26a1.55,1.55,0,0,1-2.14.52C30,34.2,22.65,33.4,14,35.38a1.55,1.55,0,1,1-.69-3c9.5-2.17,17.64-1.24,24.21,2.78A1.54,1.54,0,0,1,38,37.26Z"/><path class="cls-2" d="M41.06,30.48a2,2,0,0,1-2.67.64C31.69,27,21.47,25.8,13.54,28.21a1.94,1.94,0,0,1-1.13-3.72c9.06-2.75,20.31-1.42,28,3.31A2,2,0,0,1,41.06,30.48Z"/><path class="cls-2" d="M41.32,23.41c-8-4.78-21.29-5.21-29-2.89A2.33,2.33,0,0,1,11,16.06c8.81-2.67,23.45-2.16,32.7,3.34a2.33,2.33,0,1,1-2.38,4Z"/></g></svg>