<svg id="Layer_1" data-name="Layer 1" xmlns="http://www.w3.org/2000/svg" viewBox="0 0 53.04 52.46"><defs><style>.cls-1{fill:#332566;}.cls-2{fill:#fff;}</style></defs><title>RaR_socialIcons_8_2019</title><g id="Pinterest"><circle class="cls-1" cx="26.52" cy="26.23" r="24.84"/><g id="Pinterest-2" data-name="Pinterest"><path id="pinterest-3" data-name="pinterest" class="cls-2" d="M37.59,21.41c0,6.31-3.51,11-8.67,11a4.6,4.6,0,0,1-3.93-2s-.93,3.7-1.13,4.42A17.4,17.4,0,0,1,21,40.1a.22.22,0,0,1-.39-.1,18.24,18.24,0,0,1,.05-6.1l2.07-8.76a6.07,6.07,0,0,1-.52-2.54c0-2.38,1.39-4.16,3.1-4.16a2.16,2.16,0,0,1,2.17,2.42c0,1.47-.93,3.66-1.42,5.7a2.49,2.49,0,0,0,2.54,3.09c3,0,5.09-3.91,5.09-8.54C33.66,17.59,31.29,15,27,15a7.61,7.61,0,0,0-7.91,7.7,4.63,4.63,0,0,0,1.06,3.15.78.78,0,0,1,.23.89c-.08.3-.26,1-.33,1.29a.56.56,0,0,1-.81.4C17,27.47,15.94,25,15.94,22.25c0-4.57,3.84-10,11.48-10C33.55,12.21,37.59,16.65,37.59,21.41Z"/></g></g></svg>