<svg id="Layer_1" data-name="Layer 1" xmlns="http://www.w3.org/2000/svg" viewBox="0 0 53.04 52.46"><defs><style>.cls-1{fill:#332566;}.cls-2{fill:#fff;}</style></defs><title>RaR_socialIcons_8_2019</title><g id="Instagram"><circle class="cls-1" cx="26.52" cy="26.23" r="24.84"/><path class="cls-2" d="M26.52,13.21c4.24,0,4.74,0,6.42.1a8.74,8.74,0,0,1,2.94.54,5.26,5.26,0,0,1,3,3,8.94,8.94,0,0,1,.54,2.94c.08,1.68.1,2.18.1,6.42s0,4.74-.1,6.41a9,9,0,0,1-.54,3,5,5,0,0,1-1.19,1.83,4.85,4.85,0,0,1-1.83,1.18,8.67,8.67,0,0,1-2.94.55c-1.68.08-2.18.09-6.42.09s-4.74,0-6.41-.09a8.69,8.69,0,0,1-2.95-.55,5.16,5.16,0,0,1-3-3,8.69,8.69,0,0,1-.55-3c-.08-1.67-.09-2.17-.09-6.41s0-4.74.09-6.42a8.61,8.61,0,0,1,.55-2.94A4.85,4.85,0,0,1,15.33,15a5,5,0,0,1,1.83-1.19,8.75,8.75,0,0,1,2.95-.54c1.67-.08,2.17-.1,6.41-.1m0-2.86c-4.31,0-4.85,0-6.54.1a11.57,11.57,0,0,0-3.86.74A7.61,7.61,0,0,0,13.31,13a7.74,7.74,0,0,0-1.83,2.81,11.76,11.76,0,0,0-.74,3.85c-.08,1.7-.09,2.24-.09,6.55s0,4.85.09,6.54a11.83,11.83,0,0,0,.74,3.86,7.74,7.74,0,0,0,1.83,2.81,7.87,7.87,0,0,0,2.81,1.83A11.83,11.83,0,0,0,20,42c1.69.08,2.23.09,6.54.09s4.85,0,6.55-.09a11.76,11.76,0,0,0,3.85-.74,7.87,7.87,0,0,0,2.81-1.83,7.61,7.61,0,0,0,1.83-2.81,11.57,11.57,0,0,0,.74-3.86c.08-1.69.1-2.23.1-6.54s0-4.85-.1-6.55a11.5,11.5,0,0,0-.74-3.85,8.11,8.11,0,0,0-4.64-4.64,11.5,11.5,0,0,0-3.85-.74c-1.7-.08-2.24-.1-6.55-.1Z"/><path class="cls-2" d="M26.52,18.08a8.15,8.15,0,1,0,8.15,8.15A8.15,8.15,0,0,0,26.52,18.08Zm0,13.44a5.29,5.29,0,1,1,5.29-5.29A5.29,5.29,0,0,1,26.52,31.52Z"/><circle class="cls-2" cx="35" cy="17.75" r="1.91"/></g></svg>